<svg width="95" height="52" viewBox="0 0 95 52" fill="none" xmlns="http://www.w3.org/2000/svg">
<path d="M28.5566 4.08759L38.1943 19.4338L38.2336 19.4965L38.8821 19.1222L30.3759 3.03711L28.5566 4.08759Z" fill="white"/>
<path d="M56.0352 3.03711L47.5293 19.122L48.1774 19.4963L57.8543 4.08752L56.0352 3.03711Z" fill="white"/>
<path d="M61.8928 7.18555L49.5137 20.5209L50.0429 21.05L63.3782 8.67099L61.8928 7.18555Z" fill="white"/>
<path d="M66.4873 12.6748L51.0352 22.3789L51.434 23.0697L67.5641 14.5399L66.4873 12.6748Z" fill="white"/>
<path d="M69.3058 19.0723L51.9316 24.5074L52.1846 25.4657L69.9083 21.355L69.3058 19.0723Z" fill="white"/>
<path d="M52.1914 26.8419V27.8744L70.2104 28.6383V24.0488L52.1914 26.8419Z" fill="white"/>
<path d="M34.0932 26.8419V27.8744L16.0742 28.6383V24.0488L34.0932 26.8419Z" fill="white"/>
<path d="M16.416 21.3548L34.225 25.4652L34.4792 24.5061L17.0218 19.0713L16.416 21.3548Z" fill="white"/>
<path d="M18.8477 14.5399L34.9775 23.0697L35.3765 22.3789L19.9246 12.6748L18.8477 14.5399Z" fill="white"/>
<path d="M23.0332 8.67099L36.3143 21L36.3684 21.05L36.8976 20.5209L24.5188 7.18555L23.0332 8.67099Z" fill="white"/>
<path d="M36.2012 0.801758L35.1113 1.10618L40.4554 18.4456L41.1311 18.2646L36.2012 0.801758Z" fill="white"/>
<path d="M50.3008 0.801758L51.3906 1.10618L46.0468 18.4456L45.3711 18.2646L50.3008 0.801758Z" fill="white"/>
<path d="M42.9552 17.9367H43.4579L43.8706 0.0130881L42.8145 0L42.9552 17.9367Z" fill="white"/>
<path d="M5.09694 38.5662C8.84748 38.7472 11.7144 38.1814 11.7144 34.8551C11.7144 30.9856 6.93648 30.7141 5.09694 31.506V38.5662ZM7.10363 39.494C6.48269 39.4713 5.81351 39.4486 5.09694 39.3808V44.3138C5.09694 45.5131 5.26409 46.2826 6.38684 46.2826L0.701172 46.3051C1.82408 46.2826 1.99123 45.4905 1.99123 44.2913V31.9132C1.99123 30.6914 1.82408 29.8994 0.701172 29.8994C0.701172 29.8994 6.93648 29.9219 7.55759 29.9219C12.4311 30.1483 14.7722 32.2302 14.7962 35.0815C14.8201 36.7559 13.8405 38.634 10.281 39.2676C10.7826 40.2181 12.8849 44.2913 12.8849 44.3138C13.2878 45.0389 13.7255 45.5599 14.0524 45.9014C14.4788 46.3468 15.6993 47.5872 17.6617 47.9891C18.2656 48.1127 18.7802 48.1244 19.1305 48.1129C18.6537 48.2973 16.0879 49.2349 13.3446 47.9538C11.3155 47.0061 10.3374 45.3807 10.0181 44.789C9.99437 44.7212 7.79644 40.7612 7.10363 39.494Z" fill="white"/>
<path d="M23.3973 39.8329C23.4212 37.208 22.155 35.7823 20.9367 35.7823C19.6944 35.7823 18.4282 37.208 18.4521 39.8329H23.3973ZM18.4043 40.489V40.5344C18.4043 43.3857 19.5034 45.1279 21.3907 45.1279C23.7557 45.1279 24.3769 43.0008 23.5645 41.1679C24.9263 40.489 26.4313 41.4168 26.0969 42.9783C25.6908 44.9018 24.0185 46.2368 20.9367 46.2368C17.831 46.2368 15.2988 43.7024 15.2988 40.5117C15.2988 37.2985 17.831 34.6963 20.9367 34.6963C24.0185 34.6963 26.5509 37.2985 26.5509 40.489H18.4043Z" fill="white"/>
<path d="M34.9589 36.4619C33.5732 35.0136 30.7305 35.8283 30.7066 40.6256C30.7066 43.635 32.1399 46.1923 34.9589 44.7441V36.4619ZM34.9589 48.2741V45.83C34.4095 46.0792 33.7644 46.2826 33.0955 46.2826C28.9146 46.2602 27.553 42.8431 27.6008 40.3314C27.6726 36.0998 31.0171 34.6289 33.1911 34.6289C34.1228 34.6289 35.0065 34.878 35.6517 35.2173C36.5594 34.5159 38.16 34.5159 39.3306 35.0136C38.5662 34.9004 38.0168 35.24 38.0644 36.4392V47.3236C38.0644 50.6954 35.2456 51.5325 33.1433 51.5325C31.6383 51.5325 30.3959 51.1026 29.7509 50.2653C29.0105 49.2472 29.8465 47.12 32.1399 48.161C31.1364 48.4323 31.0888 50.6049 33.0716 50.5822C34.6722 50.5595 34.9111 49.6997 34.9589 48.2741Z" fill="white"/>
<path d="M44.7076 44.3138V36.7786C44.7084 35.7712 44.7091 34.7639 44.7099 33.7568C44.3423 34.0625 43.7365 34.4893 42.8937 34.7758C41.8151 35.1421 40.8766 35.0986 40.3599 35.0359C40.5552 35.1495 40.9013 35.3853 41.1847 35.8087C41.5194 36.3082 41.5858 36.799 41.6021 37.0297V44.3138C41.6021 45.5131 41.4589 46.3051 40.3359 46.3051H45.9977C44.875 46.3051 44.7076 45.5131 44.7076 44.3138Z" fill="white"/>
<path d="M51.7772 34.5615C53.0912 34.5615 55.5755 35.3534 55.5755 36.7565C55.5755 37.9784 54.19 38.3856 52.9238 37.7522C54.1659 36.6207 52.7565 35.4666 51.6576 35.4666C50.5825 35.4893 49.7942 36.1454 49.6748 36.7565C49.173 39.9924 56.5789 39.9018 56.5789 43.2056C56.5789 44.8348 55.3127 46.781 51.4427 46.781C49.6986 46.781 47.2142 46.2377 46.9752 44.1561C46.7602 42.3458 49.0298 40.9881 50.2721 42.753C48.3607 43.1604 49.3641 45.6495 51.4427 45.6041C53.2822 45.5363 53.6884 44.5181 53.6884 44.0655C53.6884 41.1464 47.023 40.7844 47.023 37.8652C47.023 35.4213 49.6986 34.5615 51.7772 34.5615Z" fill="white"/>
<path d="M61.6448 32.6826V34.7418H63.126V35.3527H62.3616C61.7405 35.4207 61.6448 35.6921 61.6448 36.6653C61.6448 37.0274 61.6688 44.5174 61.6688 44.5174C61.6209 45.7392 62.1703 46.0788 62.9349 45.9656C61.2149 46.7124 58.5393 46.3504 58.563 44.2232C58.563 44.2232 58.5393 36.7558 58.5393 36.6653C58.5393 35.6921 58.372 35.3527 57.9421 35.3527H57.6074V34.7418H58.5393V34.063C58.8021 34.063 60.6653 33.565 61.6448 32.6826Z" fill="white"/>
<path d="M69.3147 35.8283C67.9052 35.8283 66.7586 37.7291 66.7586 40.5576C66.7586 43.4089 67.9052 45.0834 69.3147 45.0834C70.7002 45.0834 71.8471 43.4089 71.8471 40.5576C71.8471 37.7291 70.7002 35.8283 69.3147 35.8283ZM69.3147 34.7422C72.4204 34.7422 74.929 37.3219 74.929 40.5351C74.929 43.7257 72.4204 46.3281 69.3147 46.3281C66.2331 46.3281 63.7246 43.7257 63.7246 40.5351C63.7246 37.3219 66.2331 34.7422 69.3147 34.7422Z" fill="white"/>
<path d="M81.1149 46.3054H75.4531C76.5759 46.2827 76.7432 45.4907 76.7432 44.2914V36.5297C76.7908 35.3079 76.2412 34.9456 75.4768 35.0815C76.7908 34.2895 79.323 34.38 79.8487 35.9642C80.637 35.1269 81.6883 34.7195 82.6436 34.7195C85.8211 34.7195 86.8962 36.4846 86.9201 38.2947V44.2914C86.9201 45.4907 87.0634 46.2827 88.1861 46.3054L82.5243 46.2827C83.6473 46.2827 83.8144 45.4907 83.8144 44.2914L83.7905 38.3852C83.7905 34.8551 80.7565 35.6699 79.8487 37.0955V44.2914C79.8487 45.4907 79.9921 46.2827 81.1149 46.3054Z" fill="white"/>
<path d="M42.6005 33.3695C40.7579 31.9454 40.4541 28.8442 41.443 26.8394C41.8271 26.0607 42.3841 25.3792 42.7926 24.6129C43.201 23.8464 43.4562 22.9317 43.1744 22.1104C44.22 22.9924 45.0276 24.1783 45.359 25.5056C45.6904 26.8326 45.5219 28.2982 44.8045 29.4631C44.3814 30.1504 43.787 30.7158 43.3246 31.3774C42.9108 31.9697 42.6801 32.6654 42.6005 33.3695Z" fill="white"/>
<path d="M87.0964 31.4485C86.5069 31.4849 86.2125 31.5033 85.623 31.5394V30.7781C87.2284 30.6191 88.0306 30.5391 89.6357 30.3799V31.2914C89.0463 31.3279 88.7516 31.3461 88.1622 31.3825V35.0673C87.736 35.025 87.5227 35.0039 87.0964 34.9616V31.4485Z" fill="white"/>
<path d="M94.5499 29.8926C93.9309 31.776 93.268 33.6533 92.5567 35.5041C92.1358 35.4624 91.9251 35.4414 91.5042 35.3997C90.7096 33.2388 90.3124 32.2376 89.5176 30.3922C89.9782 30.3464 90.2084 30.3235 90.6688 30.2779C91.2293 31.662 91.5093 32.3935 92.0698 33.9365C92.6382 32.4415 92.9224 31.6539 93.4907 29.9976C93.9146 29.9557 94.1263 29.9347 94.5499 29.8926Z" fill="white"/>
</svg>
