<svg width="90" height="83" viewBox="0 0 90 83" fill="none" xmlns="http://www.w3.org/2000/svg">
<path fill-rule="evenodd" clip-rule="evenodd" d="M25.4224 72.6942C25.7127 73.2851 25.8579 73.943 25.8579 74.6677C25.8579 75.3925 25.7127 76.0476 25.4224 76.6329C25.1321 77.2183 24.758 77.6838 24.3003 78.0295C23.3735 78.7431 22.4132 79.0999 21.4195 79.0999H19.3259V80.9898C19.3259 81.2462 19.3175 81.4386 19.3007 81.5668C19.284 81.695 19.231 81.8427 19.1416 82.01C18.9853 82.3111 18.5498 82.4616 17.8352 82.4616C17.0536 82.4616 16.5958 82.2553 16.4618 81.8427C16.3948 81.6532 16.3613 81.3633 16.3613 80.973V71.6907C16.3613 71.4342 16.3697 71.2419 16.3865 71.1137C16.4032 70.9855 16.4562 70.8377 16.5456 70.6705C16.7019 70.3694 17.1373 70.2189 17.852 70.2189H21.4362C22.4188 70.2189 23.3735 70.5757 24.3003 71.2893C24.758 71.6349 25.1321 72.1032 25.4224 72.6942ZM21.4362 76.1395C21.7712 76.1395 22.1006 76.0169 22.4244 75.7716C22.7482 75.5263 22.9101 75.1583 22.9101 74.6677C22.9101 74.1772 22.7482 73.8064 22.4244 73.5555C22.1006 73.3046 21.7656 73.1792 21.4195 73.1792H19.3259V76.1395H21.4362ZM28.964 71.6907C28.964 71.4342 28.9724 71.2419 28.9891 71.1137C29.0059 70.9855 29.0589 70.8377 29.1482 70.6705C29.3046 70.3694 29.74 70.2189 30.4547 70.2189C31.2363 70.2189 31.6996 70.4251 31.8448 70.8377C31.9006 71.0272 31.9285 71.3172 31.9285 71.7074V81.0065C31.9285 81.2741 31.9201 81.4692 31.9034 81.5919C31.8867 81.7145 31.8336 81.8595 31.7443 82.0267C31.588 82.3278 31.1525 82.4783 30.4379 82.4783C29.6563 82.4783 29.1985 82.2664 29.0645 81.8427C28.9975 81.6644 28.964 81.38 28.964 80.9898V71.6907ZM43.5095 79.6183C43.945 79.6183 44.2604 79.6713 44.4558 79.7772C44.6512 79.8832 44.7852 80.0365 44.8578 80.2372C44.9304 80.4378 44.9666 80.6943 44.9666 81.0065C44.9666 81.3187 44.9387 81.5696 44.8829 81.7591C44.8271 81.9487 44.7601 82.0936 44.6819 82.194C44.6038 82.2943 44.4865 82.3668 44.3302 82.4114C44.1516 82.4783 43.8668 82.5118 43.476 82.5118H36.5086C36.2517 82.5118 36.0061 82.4448 35.7716 82.3111C35.2803 82.0323 35.0346 81.5919 35.0346 80.9898C35.0346 80.6999 35.1017 80.4657 35.2356 80.2874L40.4277 73.1123H36.5755C36.3076 73.1123 36.1093 73.1039 35.981 73.0872C35.8526 73.0705 35.699 73.0231 35.5204 72.9451C35.1966 72.789 35.0346 72.3709 35.0346 71.6907C35.0346 70.9771 35.1854 70.5423 35.4869 70.3861C35.6544 70.297 35.8023 70.244 35.9307 70.2272C36.0591 70.2105 36.2573 70.2021 36.5253 70.2021H43.2583C43.5151 70.2021 43.7607 70.2691 43.9952 70.4029C44.2297 70.5367 44.4111 70.7151 44.5395 70.9381C44.668 71.1611 44.7322 71.4231 44.7322 71.7242C44.7322 72.0252 44.6652 72.2649 44.5312 72.4433L39.3391 79.6183H43.5095ZM56.2964 79.6183C56.7319 79.6183 57.0473 79.6713 57.2427 79.7772C57.4381 79.8832 57.5721 80.0365 57.6447 80.2372C57.7173 80.4378 57.7535 80.6943 57.7535 81.0065C57.7535 81.3187 57.7256 81.5696 57.6698 81.7591C57.614 81.9487 57.5469 82.0936 57.4688 82.194C57.3907 82.2943 57.2734 82.3668 57.1171 82.4114C56.9384 82.4783 56.6537 82.5118 56.2629 82.5118H49.2954C49.0386 82.5118 48.793 82.4448 48.5585 82.3111C48.0672 82.0323 47.8215 81.5919 47.8215 80.9898C47.8215 80.6999 47.8885 80.4657 48.0225 80.2874L53.2146 73.1123H49.3624C49.0945 73.1123 48.8962 73.1039 48.7679 73.0872C48.6394 73.0705 48.4859 73.0231 48.3072 72.9451C47.9834 72.789 47.8215 72.3709 47.8215 71.6907C47.8215 70.9771 47.9723 70.5423 48.2737 70.3861C48.4412 70.297 48.5892 70.244 48.7176 70.2272C48.846 70.2105 49.0442 70.2021 49.3122 70.2021H56.0451C56.302 70.2021 56.5476 70.2691 56.7821 70.4029C57.0166 70.5367 57.198 70.7151 57.3264 70.9381C57.4548 71.1611 57.5191 71.4231 57.5191 71.7242C57.5191 72.0252 57.452 72.2649 57.3181 72.4433L52.126 79.6183H56.2964ZM67.9444 71.0886L72.4665 80.4211C72.6563 80.8002 72.7512 81.0846 72.7512 81.2741C72.7512 81.6755 72.4274 82.0379 71.7798 82.3612C71.4002 82.5508 71.1015 82.6455 70.8837 82.6455C70.666 82.6455 70.4874 82.5954 70.3478 82.495C70.2082 82.3947 70.1077 82.2888 70.0463 82.1773C69.9849 82.0657 69.8984 81.8985 69.7867 81.6755L68.9158 79.8692H64.2764L63.4055 81.6755C63.2938 81.8985 63.2073 82.0602 63.1458 82.1605C63.0844 82.2609 62.984 82.364 62.8444 82.4699C62.7048 82.5759 62.5261 82.6288 62.3084 82.6288C62.0907 82.6288 61.792 82.5341 61.4123 82.3445C60.7647 82.0323 60.4409 81.6755 60.4409 81.2741C60.4409 81.0846 60.5358 80.8002 60.7257 80.4211L65.2478 71.0719C65.3706 70.8154 65.5577 70.6091 65.8089 70.453C66.0601 70.297 66.3253 70.2189 66.6044 70.2189C67.2074 70.2189 67.654 70.5088 67.9444 71.0886ZM66.5877 75.1026L65.4823 77.3939H67.7099L66.5877 75.1026Z" fill="white"/>
<path fill-rule="evenodd" clip-rule="evenodd" d="M67.296 57.8557L67.2901 57.8616L67.267 57.8845L67.2379 57.9131L67.2129 57.9379L67.2088 57.9419L67.1797 57.9704L67.1505 57.9991L67.1352 58.0139L67.1212 58.0276L67.0919 58.056L67.0626 58.0845L67.0572 58.0895L67.0331 58.1127L67.0036 58.1411L66.9741 58.1693L66.9446 58.1976L66.9149 58.2257L66.9002 58.2397L66.8852 58.2538L66.8555 58.2817L66.8257 58.3097L66.8211 58.3141L66.7957 58.3377L66.7659 58.3657L66.7615 58.3696L66.7076 58.4197L66.706 58.4212L66.6759 58.4489L66.6617 58.4619L66.6457 58.4766L66.6156 58.5041L66.5853 58.5317L66.5816 58.5352L66.5551 58.5592L66.5248 58.5866L66.5009 58.6083L66.4944 58.6141L66.4639 58.6415L66.4335 58.6688L66.4199 58.6808L66.4029 58.6959L66.3722 58.7232L66.3702 58.725L66.3154 58.7734L66.311 58.7773L66.2803 58.8043L66.2568 58.8249L66.2494 58.8313L66.2185 58.8582L66.1876 58.8851L66.1747 58.8963L66.1567 58.9118L66.1257 58.9385L66.0946 58.9653L66.0923 58.9673L66.0635 58.9919L66.0323 59.0185L66.0094 59.0379L66.001 59.0451L65.9698 59.0715L65.9386 59.0978L65.9262 59.1082L65.9071 59.1243L65.8757 59.1505L65.8443 59.1768L65.8426 59.1782L65.8127 59.203L65.7811 59.2292L65.7587 59.2475L65.7495 59.2552L65.7178 59.2813L65.6861 59.3072L65.6744 59.3168L65.6542 59.3331L65.6224 59.359L65.5906 59.3848L65.5897 59.3854L65.5586 59.4105L65.5266 59.4362L65.5047 59.4537L65.4946 59.4618L65.4625 59.4874L65.4303 59.5129L65.4194 59.5216L65.3981 59.5384L65.3658 59.5638L65.3336 59.5892C60.177 63.6291 53.5608 65.1947 47.094 64.901C39.6974 64.565 32.4915 61.8601 26.4178 57.6892C22.7309 55.157 19.4018 52.0435 16.677 48.4797C15.4026 48.7019 14.1283 48.9232 12.8532 49.1414C10.4139 49.5588 7.97122 49.9646 5.48861 49.6985C1.13437 49.2319 1.02947 44.8698 2.65212 41.766C4.68403 37.8793 7.05115 34.1836 9.46756 30.5271C9.28143 28.0584 9.42681 25.5723 9.96769 23.1387C9.75891 23.1235 9.5505 23.1051 9.3425 23.0839C5.89113 22.7309 2.18881 21.4022 1.20671 17.6854C1.01448 16.9579 0.706173 15.9467 1.49114 15.434L3.77991 13.3828L3.78165 13.4012L3.78344 13.4195L3.78537 13.4379L3.78729 13.4563L3.78936 13.4746L3.79156 13.493V13.4931L3.79376 13.5115L3.79596 13.5299V13.53L3.79843 13.5484L3.80077 13.5668V13.5669L3.80339 13.5853L3.80581 13.6038L3.80857 13.6223L3.81118 13.6408L3.81393 13.6591L3.81407 13.6593L3.81682 13.6777V13.6778L3.81971 13.6962L3.81984 13.6963L3.82273 13.7148L3.82576 13.7333L3.82892 13.7518L3.83204 13.7703L3.8352 13.7888V13.789L3.8385 13.8073V13.8075L3.8418 13.826H3.84194L3.84524 13.8445L3.84868 13.863L3.84882 13.8631L3.85226 13.8816L3.85579 13.9002L3.85936 13.9187V13.9188L3.86308 13.9373L3.86679 13.9558L3.8705 13.9743L3.87064 13.9745L3.87435 13.993H3.87449L3.8782 14.0115H3.87834L3.88215 14.03V14.0301L3.88614 14.0485V14.0486L3.89012 14.0671L3.89411 14.0856H3.89425L3.89824 14.1041L3.90237 14.1227L3.9025 14.1228L3.90658 14.1412V14.1413L3.91071 14.1598H3.91085L3.91497 14.1783H3.91511L3.91924 14.1968H3.91937L3.92364 14.2153L3.92804 14.2338L3.93239 14.2522V14.2523L3.93679 14.2707L3.9412 14.2892H3.94133L3.94573 14.3077L3.95027 14.3261L3.95477 14.3446H3.9549L3.95944 14.363L3.96398 14.3815L3.96866 14.3998L3.97333 14.4182L3.97801 14.4366L3.98264 14.4549L3.98745 14.4733L3.99213 14.4917L3.99694 14.5101L4.00176 14.5283L4.00653 14.5467L4.01134 14.5649C4.02771 14.6266 4.04458 14.6879 4.06227 14.7483L4.08011 14.8074C4.09249 14.8487 4.10468 14.8898 4.11761 14.9304L4.14012 14.9993L4.17624 15.1072L4.20173 15.1795L4.23814 15.2798L4.26711 15.3566L4.30402 15.4506L4.33464 15.5257L4.37718 15.6262L4.4041 15.688C4.4195 15.723 4.43541 15.7577 4.45132 15.7921L4.47974 15.8534L4.53232 15.9614L4.55759 16.0128C4.57844 16.0542 4.59985 16.0951 4.62154 16.1358L4.63804 16.1676L4.64079 16.1727C4.66702 16.2213 4.69365 16.2696 4.72079 16.3174L4.72341 16.3218L4.75266 16.3719L4.81239 16.4731L4.84669 16.5289C4.86512 16.5587 4.88336 16.5884 4.90216 16.6178L4.94282 16.6804L4.99907 16.7654L5.03603 16.8194L5.09915 16.9098L5.13569 16.9604L5.19855 17.0455L5.23866 17.0988C5.26241 17.1299 5.28657 17.1608 5.31087 17.1913L5.34076 17.2292L5.41915 17.3247L5.45143 17.3636L5.52226 17.4456L5.56522 17.4953L5.56659 17.4968C5.60189 17.5365 5.63742 17.5757 5.67355 17.6145L5.67768 17.6189L5.69523 17.6373C5.72641 17.6705 5.75758 17.7035 5.78926 17.7361L5.83868 17.7859L5.91089 17.858L5.95839 17.9037L6.02981 17.9719L6.08414 18.0222L6.15662 18.088L6.20522 18.1312L6.28361 18.1992L6.33744 18.245L6.4073 18.3028L6.46718 18.3518L6.55515 18.4214L6.59279 18.4509L6.68806 18.5231L6.73322 18.557L6.73817 18.5607C6.78071 18.5921 6.82353 18.623 6.86681 18.6536L6.86722 18.6539C6.91348 18.6865 6.96029 18.7191 7.00723 18.751L7.04483 18.7759L7.14271 18.8411L7.21042 18.8842L7.28661 18.9325L7.35139 18.9724L7.42663 19.018L7.5053 19.0646L7.57228 19.1034L7.64448 19.1445L7.72453 19.1891L7.79467 19.2275L7.8699 19.2675L7.94706 19.308L8.02903 19.3496L8.09491 19.383L8.18018 19.4246L8.24496 19.4562L8.24978 19.4583L8.39653 19.5268L8.48052 19.5644L8.56111 19.6004L8.61686 19.6244L8.7146 19.666L8.78997 19.6971L8.87327 19.7311L8.96253 19.7664L9.01856 19.7883L9.12767 19.8298L9.1852 19.8512L9.27524 19.8841L9.35955 19.9141L9.44203 19.9431L9.52854 19.9723L9.59882 19.996L9.69931 20.0286L9.77166 20.0518L9.92955 20.1004L9.93569 20.1023L10.0882 20.1472L10.0886 20.1473L10.2085 20.181L10.2579 20.1949L10.3886 20.23L10.4154 20.2371L10.5455 20.2706L10.5866 20.281L10.7027 20.3095L10.7642 20.3242L10.869 20.3486L10.9337 20.3632L11.0366 20.3861L11.1025 20.4002L11.2119 20.4234L11.2487 20.4308C11.4494 20.4717 11.6509 20.5088 11.853 20.5424L11.874 20.546C11.5134 22.8878 11.4855 25.2619 11.7415 27.6128L11.6611 27.7353L11.6383 27.7702L11.5352 27.9276L11.4321 28.0853L11.4241 28.0975L11.3291 28.243L11.3058 28.2787L11.2263 28.4006L11.1876 28.46L11.1236 28.5584L11.0697 28.6415L11.0211 28.7163L10.9517 28.823L10.9187 28.8743L10.8341 29.0046L10.8162 29.0323L10.7167 29.1864L10.7141 29.1904L10.6121 29.3487L10.5993 29.3683L10.5101 29.507L10.4822 29.5502L10.4084 29.6654L10.3654 29.7324L10.3068 29.8239L10.2487 29.9147L10.2054 29.9825L10.1323 30.097L10.1042 30.1412L10.016 30.2797L10.0031 30.3001L9.90209 30.459L9.90002 30.4624L9.80145 30.618L9.78431 30.6451L9.70082 30.7773L9.66869 30.8281L9.60047 30.9364L9.55352 31.0113L9.50039 31.0959L9.4385 31.1946L9.40045 31.2555L9.3237 31.3782L9.30064 31.415L9.20936 31.5617L9.20111 31.5749L9.10186 31.7347L9.09516 31.7455L9.00274 31.8948L8.98133 31.9295L8.9039 32.0549L8.86768 32.1138L8.80519 32.2153L8.7544 32.298L8.70676 32.3757L8.64143 32.4825L8.60861 32.5364L8.52884 32.6673L8.51073 32.697L8.41656 32.8522L8.41299 32.858L8.31566 33.0191L8.30452 33.0373L8.21846 33.1803L8.19293 33.2226L8.12155 33.3416L8.08175 33.4082L8.02504 33.5031L7.97081 33.594L7.92868 33.6647L7.86028 33.7799L7.83259 33.8266L7.75006 33.9661L7.73672 33.9887L7.64132 34.1508L7.64036 34.1525L7.53097 34.3392L7.4512 34.4757L7.42195 34.526L7.35662 34.6384L7.31339 34.7132L7.26232 34.8013L7.20519 34.9004L7.16838 34.9643L7.09741 35.0881L7.07476 35.1276L6.99009 35.2759L6.98142 35.2911L6.88849 35.4547L6.88313 35.464L6.79584 35.6185L6.77672 35.6523L6.70342 35.7826L6.67078 35.841L6.61145 35.9468L6.56519 36.0297L6.5199 36.1112L6.46003 36.2189L6.42858 36.2758L6.35541 36.4084L6.33771 36.4406L6.25138 36.5981L6.24712 36.6057L6.1569 36.771L6.14773 36.788L6.06713 36.9364L6.04448 36.9783L5.97778 37.1021L5.94179 37.1688L5.88866 37.2681L5.83965 37.3596L5.79999 37.4342L5.73805 37.5507L5.71169 37.6005L5.63701 37.7421L5.62385 37.7671L5.53638 37.9339C3.56077 41.7128 4.08079 46.7676 9.14688 47.3105C11.7294 47.5872 14.2465 47.1792 16.7851 46.7448L16.8337 46.7365L16.8821 46.7283L16.9307 46.7199L16.9613 46.7147L16.9794 46.7115L17.0279 46.7033L17.0764 46.6949L17.125 46.6866L17.1377 46.6844L17.1736 46.6782L17.2221 46.67L17.2707 46.6616L17.314 46.6541L17.3192 46.6533L17.3677 46.6449L17.4163 46.6365L17.4649 46.6282L17.4904 46.6238L17.5134 46.6198L17.562 46.6114L17.6105 46.6031L17.659 46.5947L17.6667 46.5935L17.7076 46.5863L17.7562 46.578L17.8047 46.5696L17.843 46.563L17.8533 46.5613L17.9018 46.5529L17.9503 46.5445L17.9989 46.5362L18.0192 46.5326L18.0475 46.5278L18.096 46.5193L18.1446 46.5109L18.1931 46.5026L18.1956 46.5022L18.2416 46.4942L18.2902 46.4859L18.3388 46.4774L18.3719 46.4718L18.3873 46.469L18.4359 46.4606L18.4845 46.4523L18.5816 46.4354L18.63 46.4271L18.6786 46.4186L18.7245 46.4107L18.7272 46.4102L18.7757 46.4019L18.8243 46.3933L18.8729 46.385L18.9007 46.3802L18.9213 46.3765L18.9699 46.3681L19.067 46.3513L19.077 46.3496L19.1156 46.3429L19.164 46.3344L19.2126 46.326L19.2533 46.319L19.3097 46.3092L19.3583 46.3007L19.4067 46.2923L19.4295 46.2883L19.4553 46.2838L19.5038 46.2755L19.5524 46.2669L19.6495 46.2501L19.6981 46.2416L19.7465 46.2332L19.7821 46.2271L19.7951 46.2247L19.8436 46.2164L19.8922 46.2079C22.523 49.4324 25.6408 52.269 29.0617 54.6184C35.2997 58.9025 42.6956 61.6697 50.2913 62.0147C56.2277 62.2844 62.2701 61.0345 67.296 57.8557ZM86.0443 41.2123L83.9346 43.103C83.6349 43.4234 83.1819 43.6309 82.5895 43.6065L82.5111 43.6034L82.4525 43.6009L82.4329 43.6001L82.3545 43.5969L82.3154 43.5953L82.2763 43.5936L82.1979 43.5905L82.1784 43.5897L82.1195 43.5873L82.0412 43.5842L81.9628 43.581L81.9042 43.5787L81.8845 43.5779L81.8062 43.5747L81.7671 43.5732L81.7278 43.5716L81.6494 43.5686L81.6299 43.5677L81.571 43.5654L81.4929 43.5622H81.4928L81.4144 43.5592L81.3558 43.5569L81.336 43.5561L81.2578 43.553L81.2187 43.5515L81.1794 43.55L81.101 43.547L81.0816 43.5462L81.0226 43.5439L80.9445 43.5409H80.9444L80.866 43.5378L80.8073 43.5356L80.7876 43.535L80.7092 43.5319L80.6703 43.5304L80.6309 43.5289L80.5526 43.5259L80.5332 43.5252L80.4742 43.523L80.3961 43.52H80.3958L80.3174 43.5171L80.2589 43.515L80.2391 43.5143L80.1607 43.5112L80.1218 43.5099L80.0824 43.5084L80.004 43.5055L79.9847 43.5048L79.9256 43.5026L79.8476 43.4998L79.8472 43.4997L79.7688 43.497L79.7105 43.4948L79.6905 43.4941L79.6122 43.4912L79.5733 43.4899L79.5338 43.4885L79.4554 43.4856L79.4362 43.4849L79.377 43.4829L79.299 43.4801H79.2986L79.2202 43.4774L79.1619 43.4753L79.1419 43.4746L79.0636 43.4719L79.0247 43.4705L78.9852 43.4692L78.9068 43.4664L78.8876 43.4657L78.8284 43.4637L78.7504 43.4611H78.75L78.6717 43.4583L78.6133 43.4564L78.5933 43.4557L78.5149 43.4531L78.4762 43.4517L78.4365 43.4504L78.3581 43.4478L78.339 43.4472L78.2797 43.4452L78.2019 43.4427L78.2013 43.4426L78.123 43.4401L78.0647 43.4382L78.0446 43.4375L77.9662 43.4349L77.9276 43.4336L77.8878 43.4324L77.8094 43.4298L77.7903 43.4293L77.731 43.4273L77.6532 43.4249H77.6526L77.5742 43.4224C77.7672 42.6033 77.9172 41.7783 78.026 40.9501L78.1514 40.9528L78.227 40.9546L78.2767 40.9557L78.4021 40.9587L78.5274 40.9617L78.5995 40.9635L78.6527 40.9647L78.778 40.9679L78.9032 40.971L78.9717 40.9728L79.0286 40.9742L79.1539 40.9775L79.2793 40.9807L79.3442 40.9824L79.4046 40.984L79.5299 40.9875L79.6553 40.9909L79.7165 40.9926L79.7805 40.9943L79.9058 40.9978L80.0312 41.0013L80.0888 41.003L80.1565 41.0049L80.2818 41.0084L80.4072 41.0121L80.4612 41.0138L80.5323 41.0159L80.6577 41.0196L80.783 41.0234L80.8336 41.0249L80.9084 41.0271L81.0336 41.0311L81.1589 41.0349L81.2059 41.0363L81.2843 41.0387L81.4096 41.0427L81.5348 41.0468L81.5782 41.0482L81.6601 41.0508L81.7855 41.0549L81.9107 41.059L81.9503 41.0603L82.036 41.0631L82.1613 41.0673L82.2865 41.0715L82.3226 41.0728L82.4119 41.0758L82.5372 41.08L82.6624 41.0844L82.695 41.0855L82.7878 41.0886L82.913 41.093L83.0383 41.0974L83.0671 41.0985L83.1635 41.102L83.2888 41.1063L83.414 41.1109L83.4393 41.1118L83.5394 41.1154L83.6646 41.1201L83.7899 41.1246L83.8116 41.1254L83.9151 41.1292L84.0404 41.1339L84.1656 41.1385L84.1838 41.1392L84.291 41.1434L84.4162 41.148L84.5415 41.1528L84.556 41.1533L84.6667 41.1576L84.7919 41.1625L84.9173 41.1673L84.9279 41.1678L85.0425 41.1723L85.1677 41.1772L85.293 41.1821L85.3001 41.1824L85.4182 41.1871L85.5434 41.192L85.6686 41.1971L85.6723 41.1972L85.7939 41.2022L85.9191 41.2072L86.0443 41.2123Z" fill="white"/>
<path fill-rule="evenodd" clip-rule="evenodd" d="M54.7433 28.9733C55.2864 28.9614 55.8295 28.9519 56.3726 28.9467C56.5041 28.1598 56.7405 27.3893 57.0689 26.6603C56.3065 27.2726 55.617 27.9741 55.0452 28.6237C54.9436 28.7393 54.843 28.8558 54.7433 28.9733ZM60.0575 8.45295C66.2641 12.7156 71.4529 18.6325 74.4341 25.5741C74.5298 25.7969 74.6228 26.0207 74.7137 26.2457C74.0435 25.9177 73.3054 25.6952 72.6342 25.5327C71.0835 25.1574 69.0558 24.8828 67.7876 26.0402C67.1463 24.4477 65.0772 23.8132 63.4563 23.5195C63.1303 23.4605 62.784 23.4067 62.4289 23.3692C62.4886 23.2368 62.5389 23.0975 62.5792 22.9514C63.1519 20.8716 61.3994 19.5123 59.7731 18.6811C58.448 18.0038 57.0118 17.4984 55.5681 17.1401C54.8078 16.9515 54.0362 16.8056 53.2568 16.7237C50.4367 16.4267 47.6182 16.5519 44.79 16.5429C43.1851 16.5378 41.0196 16.5017 39.5809 15.7294C39.441 15.6541 39.3054 15.571 39.1754 15.4796C38.5881 15.0664 38.0267 14.6612 37.2812 14.5999C36.8541 14.5647 36.4352 14.6604 36.0635 14.8729C34.8244 15.5808 34.8896 16.8745 35.1124 18.079C36.015 22.9592 41.8119 23.8864 45.9105 24.1562C46.2544 24.1787 46.5988 24.1937 46.9433 24.2034C45.7705 25.2283 44.5679 26.1527 43.5609 27.3624C43.3453 27.6214 43.1487 27.8964 42.9706 28.1826C42.3295 28.4044 41.6784 28.5952 41.0215 28.7641C41.0235 28.7533 41.0257 28.7423 41.0276 28.7314C41.1897 27.8727 41.3194 27.0132 41.3446 26.1384C41.4119 23.7888 39.1075 22.6931 37.1223 22.3549C35.6806 22.1094 33.9555 22.1527 32.8168 23.1227C32.0239 21.7342 30.1834 21.1872 28.6167 21.0331C28.9515 20.6553 29.2923 20.283 29.6395 19.9163C30.3843 19.13 30.8046 18.1242 30.6911 17.0328C30.3391 13.6487 25.4319 12.654 22.6983 12.2843C20.9804 12.0521 19.1324 11.9332 17.4112 12.1756C17.0064 12.2326 16.5803 12.2985 16.1399 12.3649C16.2949 12.1121 16.4549 11.862 16.6204 11.6153C17.9105 9.69016 19.4917 7.99153 21.3166 6.56173C26.4499 2.53975 33.0364 0.981207 39.4742 1.27361C46.8376 1.60798 54.011 4.30064 60.0575 8.45295ZM76.7786 40.9244C76.5919 42.2845 76.2893 43.6342 75.8584 44.9611C75.2285 46.9009 74.3385 48.741 73.2028 50.4358C71.9125 52.3609 70.3313 54.0599 68.5064 55.4897C63.3731 59.5114 56.7865 61.0701 50.349 60.7775C42.9856 60.443 35.8123 57.7504 29.7657 53.5981C26.6341 51.4474 23.7616 48.8751 21.3011 45.963C23.5562 45.5694 25.8112 45.1746 28.0682 44.7917C31.7522 44.167 35.4431 43.5748 39.1527 43.1216C46.8147 42.1853 54.5025 41.4132 62.2161 41.0678C67.0674 40.8503 71.9238 40.8321 76.7786 40.9244ZM12.8512 25.9334C12.7597 24.1887 12.837 22.4381 13.1057 20.7067C14.1213 20.8061 15.1436 20.8359 16.1649 20.8124C15.1077 22.5487 13.9741 24.2396 12.8512 25.9334ZM17.9763 36.517C19.4194 36.323 20.8629 36.1317 22.307 35.945C21.489 34.6214 21.1849 32.9551 21.1149 31.4073C20.0521 33.1003 19.0155 34.8095 17.9763 36.517ZM54.7433 28.9733C55.2864 28.9614 55.8295 28.9519 56.3726 28.9467C56.5041 28.1598 56.7405 27.3893 57.0689 26.6603C56.3065 27.2726 55.617 27.9741 55.0452 28.6237C54.9436 28.7393 54.843 28.8558 54.7433 28.9733ZM59.3543 9.47399C44.3736 -0.814203 25.8143 0.391328 17.7723 12.1302C19.389 11.9503 21.1 12.0682 22.6983 12.2843C25.4319 12.654 30.3391 13.6487 30.6911 17.0328C30.8046 18.1242 30.3843 19.13 29.6395 19.9163C29.2923 20.283 28.9515 20.6553 28.6167 21.0331C30.1834 21.1872 32.0239 21.7342 32.8168 23.1227C33.9555 22.1527 35.6806 22.1094 37.1223 22.3549C39.1075 22.6931 41.4119 23.7888 41.3446 26.1384C41.3194 27.0132 41.1897 27.8727 41.0276 28.7314C41.0257 28.7423 41.0235 28.7533 41.0215 28.7641C41.6784 28.5952 42.3295 28.4044 42.9706 28.1826C43.1487 27.8964 43.3453 27.6214 43.5609 27.3624C44.5679 26.1527 45.7705 25.2283 46.9433 24.2034C46.5988 24.1937 46.2544 24.1787 45.9105 24.1562C41.8119 23.8864 36.015 22.9592 35.1124 18.079C34.8896 16.8745 34.8244 15.5808 36.0635 14.8729C36.4352 14.6604 36.8541 14.5647 37.2812 14.5999C38.0267 14.6612 38.5881 15.0664 39.1754 15.4796C39.3054 15.571 39.441 15.6541 39.5809 15.7294C41.0196 16.5017 43.1851 16.5378 44.79 16.5429C47.6182 16.5519 50.4367 16.4267 53.2568 16.7237C54.0362 16.8056 54.8078 16.9515 55.5681 17.1401C57.0118 17.4984 58.448 18.0038 59.7731 18.6811C61.3994 19.5123 63.1519 20.8716 62.5792 22.9514C62.5389 23.0975 62.4886 23.2368 62.4289 23.3692C62.784 23.4067 63.1303 23.4605 63.4563 23.5195C65.0772 23.8132 67.1463 24.4477 67.7876 26.0402C69.0558 24.8828 71.0835 25.1574 72.6342 25.5327C72.7918 25.5708 72.9531 25.6122 73.1163 25.6576C70.4136 19.5848 65.7158 13.8428 59.3543 9.47399ZM14.3493 20.7946C14.1758 21.8825 14.08 22.9893 14.0604 24.1088C14.7779 23.0202 15.487 21.9257 16.1649 20.8124C15.5596 20.8264 14.9538 20.8216 14.3493 20.7946ZM22.7251 45.7145C24.927 48.2279 27.518 50.5506 30.4689 52.5771C45.5241 62.9166 64.1952 61.6492 72.1717 49.7467C73.9732 47.0586 75.0729 44.0572 75.5258 40.903C71.0884 40.8365 66.6501 40.8691 62.2161 41.0678C54.5025 41.4132 46.8147 42.1853 39.1527 43.1216C35.4431 43.5748 31.7522 44.167 28.0682 44.7917C26.2862 45.094 24.5055 45.4036 22.7251 45.7145ZM17.9763 36.517C19.4194 36.323 20.8629 36.1317 22.307 35.945C21.489 34.6214 21.1849 32.9551 21.1149 31.4073C20.0521 33.1003 19.0155 34.8095 17.9763 36.517ZM54.7433 28.9733C55.2864 28.9614 55.8295 28.9519 56.3726 28.9467C56.5041 28.1598 56.7405 27.3893 57.0689 26.6603C56.3065 27.2726 55.617 27.9741 55.0452 28.6237C54.9436 28.7393 54.843 28.8558 54.7433 28.9733ZM57.0897 12.5579C45.793 4.90503 32.0081 5.13631 24.7731 12.6437C27.3911 13.2155 30.4175 14.4021 30.6911 17.0328C30.8046 18.1242 30.3843 19.13 29.6395 19.9163C29.2923 20.283 28.9515 20.6553 28.6167 21.0331C30.1834 21.1872 32.0239 21.7342 32.8168 23.1227C33.9555 22.1527 35.6806 22.1094 37.1223 22.3549C39.1075 22.6931 41.4119 23.7888 41.3446 26.1384C41.3194 27.0132 41.1897 27.8727 41.0276 28.7314C41.0257 28.7423 41.0235 28.7533 41.0215 28.7641C41.6784 28.5952 42.3295 28.4044 42.9706 28.1826C43.1487 27.8964 43.3453 27.6214 43.5609 27.3624C44.5679 26.1527 45.7705 25.2283 46.9433 24.2034C46.5988 24.1937 46.2544 24.1787 45.9105 24.1562C41.8119 23.8864 36.015 22.9592 35.1124 18.079C34.8896 16.8745 34.8244 15.5808 36.0635 14.8729C36.4352 14.6604 36.8541 14.5647 37.2812 14.5999C38.0267 14.6612 38.5881 15.0664 39.1754 15.4796C39.3054 15.571 39.441 15.6541 39.5809 15.7294C41.0196 16.5017 43.1851 16.5378 44.79 16.5429C47.6182 16.5519 50.4367 16.4267 53.2568 16.7237C54.0362 16.8056 54.8078 16.9515 55.5681 17.1401C57.0118 17.4984 58.448 18.0038 59.7731 18.6811C61.3994 19.5123 63.1519 20.8716 62.5792 22.9514C62.5389 23.0975 62.4886 23.2368 62.4289 23.3692C62.784 23.4067 63.1303 23.4605 63.4563 23.5195C65.0772 23.8132 67.1463 24.4477 67.7876 26.0402C67.9632 25.8799 68.1535 25.7473 68.3549 25.6384C66.1466 20.7303 62.3009 16.0881 57.0897 12.5579ZM29.8349 44.4952C30.9591 45.4991 32.171 46.4478 33.4687 47.327C45.7801 55.6672 61.0482 54.6451 67.571 45.0438C68.4583 43.7378 69.1364 42.3398 69.6176 40.879C67.1497 40.8983 64.6824 40.9572 62.2161 41.0678C54.5025 41.4132 46.8147 42.1853 39.1527 43.1216C36.0359 43.5024 32.9322 43.9813 29.8349 44.4952Z" fill="white"/>
<path fill-rule="evenodd" clip-rule="evenodd" d="M30.8072 35.9107C31.2309 35.8633 31.6545 35.817 32.0783 35.7711C31.9327 35.62 31.796 35.4603 31.6682 35.2925C31.3904 35.5092 31.0991 35.7181 30.8072 35.9107ZM22.6509 27.2089C22.3054 27.7212 21.9647 28.2372 21.6273 28.7561C19.6999 31.7221 17.8904 34.7619 16.0426 37.7777C18.8063 37.4022 21.5709 37.0328 24.338 36.6835C22.5716 35.4875 22.1301 33.012 22.0918 30.9533C22.069 29.7205 22.2748 28.4431 22.6509 27.2089ZM65.7492 35.6045C66.904 35.6656 68.058 35.7373 69.2105 35.8199C68.692 35.438 68.2427 34.9829 67.8646 34.4651C67.5417 34.7175 67.1761 34.9313 66.9194 35.0704C66.5489 35.2714 66.1552 35.4519 65.7492 35.6045ZM50.7628 35.4143C51.0927 35.4051 51.4227 35.3969 51.7526 35.3895C54.6705 35.3251 57.5946 35.329 60.5176 35.4016C59.9883 35.0474 59.5312 34.5606 59.1659 33.9339C57.7647 34.0915 56.3448 34.3659 54.9662 34.6299C53.7224 34.8682 52.4795 35.1193 51.2316 35.3343C51.0787 35.3607 50.922 35.3876 50.7628 35.4143ZM38.2871 36.1575C41.1885 35.904 44.0919 35.6986 46.995 35.5584C45.6064 35.3182 44.4005 34.6647 43.9535 33.3589C43.8079 33.4643 43.6608 33.5679 43.5126 33.6698C42.144 34.6092 40.2272 35.6686 38.2871 36.1575ZM35.6384 36.4019C35.019 36.3401 34.4242 36.1786 33.8734 35.8915C32.9565 35.4134 32.3243 34.6625 31.9059 33.7749C31.1431 34.5242 30.0453 35.2529 29.4379 35.5754C28.3313 36.1634 26.9392 36.6211 25.692 36.2398C23.5188 35.5754 23.1201 32.8655 23.0842 30.935C23.0379 28.4457 24.0241 25.7345 25.431 23.7054C25.9787 22.9153 27.5137 22.9219 28.3655 22.9999C29.2376 23.0799 31.0688 23.3923 31.2128 24.4854C31.2401 24.6925 31.1991 24.8964 31.104 25.0815C30.357 26.5335 29.7457 28.4314 29.4422 30.1579C31.5727 29.0549 32.6069 26.8796 33.8865 24.8806C34.4145 24.0559 35.9564 24.1668 36.7869 24.3083C37.6684 24.4584 39.3915 24.9326 39.3584 26.0807C39.3361 26.8576 39.219 27.6018 39.0753 28.3633C38.881 29.3914 38.7076 30.2978 38.6858 31.3013C40.6205 30.9352 42.4981 30.5013 44.3453 29.7895C44.5463 29.3776 44.7949 28.978 45.0858 28.6288C46.0575 27.4615 47.2679 26.5619 48.3988 25.5627C49.1546 24.895 49.9221 24.2083 50.5726 23.4356C50.8865 23.0626 51.1778 22.6671 51.4584 22.2649C51.0792 22.2408 50.6943 22.2377 50.353 22.2344C49.4093 22.2255 48.4658 22.2453 47.5219 22.2318C47.0274 22.225 46.5328 22.2098 46.0392 22.1773C43.0391 21.9799 37.7468 21.4156 37.0628 17.7183C36.7891 16.2373 37.0142 16.3844 38.0303 17.0993C38.2255 17.2367 38.4289 17.3617 38.6392 17.4745C40.4343 18.4382 42.7865 18.518 44.782 18.5245C47.5629 18.5334 50.2658 18.4013 53.0469 18.6943C53.7337 18.7666 54.4179 18.8969 55.0877 19.0632C56.3606 19.3791 57.6981 19.8475 58.8671 20.4449C59.512 20.7745 60.9151 21.5103 60.6634 22.4248C60.5498 22.837 60.1762 23.0335 59.7859 23.1107C57.3393 23.5946 55.1591 25.4886 53.5524 27.3143C52.7447 28.2322 52.0005 29.2061 51.299 30.2067C51.1017 30.4883 50.9108 30.7756 50.7199 31.0628C53.2318 31 55.7458 30.898 58.2579 30.9298C58.1006 29.0797 58.7655 27.1745 59.9505 25.7571C60.5358 25.0569 62.3137 25.3268 63.1003 25.4693C63.9006 25.6143 66.0149 26.0334 65.9992 27.1269C65.997 27.2693 65.9582 27.407 65.8877 27.5306C65.3059 28.553 64.9151 30.0056 64.8117 31.2749C65.6963 31.041 66.4599 30.6207 67.1528 29.9514C67.8845 29.2448 68.4007 28.3985 69.0265 27.609C69.6003 26.8853 71.404 27.2744 72.1649 27.4585C72.9438 27.647 74.7633 28.1356 74.8891 29.0968C74.9718 29.7276 74.9395 30.315 74.871 30.9435C74.783 31.75 74.7082 32.3878 74.8107 33.1409C75.907 33.1539 76.9604 33.1194 78.058 32.9374C78.3196 32.894 78.5805 32.8463 78.8417 32.8004C79.6053 32.666 80.4322 32.521 81.2069 32.4806C81.697 32.4548 82.3844 32.4656 82.5439 33.0561C82.6889 33.5925 82.2003 33.9561 81.8115 34.2054C81.4348 34.4469 81.029 34.6608 80.6346 34.8726C80.3498 35.0257 80.0632 35.1777 79.7829 35.3389C78.951 35.817 78.0268 36.2381 77.0591 36.5535C80.2407 36.927 83.4147 37.4029 86.5392 38.0156C87.4248 38.1888 87.2954 39.2796 86.3941 39.2423C78.3165 38.9096 70.2048 38.7246 62.1253 39.0865C54.359 39.4344 46.6242 40.2105 38.9098 41.153C35.1696 41.6101 31.4484 42.2067 27.734 42.8366C23.9701 43.475 20.2121 44.1469 16.4493 44.7908C14.111 45.1909 11.737 45.5943 9.35828 45.3393C5.75164 44.9528 6.02222 41.2868 7.29561 38.8508C9.40344 34.819 11.8772 30.993 14.3881 27.203C16.2329 24.4184 18.1859 21.5252 19.7304 18.5334C19.2656 18.5983 18.7988 18.6522 18.3319 18.6964C16.6423 18.8564 14.8968 18.8968 13.2074 18.7241C10.1972 18.4162 6.78756 17.3295 5.93011 14.0587C5.50027 12.4569 5.75191 12.7392 6.87113 13.3844C10.0632 15.4817 14.1709 14.6334 17.687 14.1378C19.1768 13.928 20.9429 14.0468 22.4302 14.2481C23.9781 14.4572 28.5044 15.2134 28.7149 17.2368C28.7679 17.7457 28.5371 18.1927 28.1954 18.5537C25.375 21.5323 23.0243 24.7856 20.7947 28.2165C18.4843 31.772 16.3384 35.4409 14.0954 39.0434C21.2399 38.0673 28.4314 37.1012 35.6384 36.4019ZM43.6412 28.9949C43.8379 28.6421 44.065 28.3045 44.3225 27.9952C45.3347 26.7794 46.5642 25.8601 47.7411 24.8203C48.3195 24.3094 48.9048 23.79 49.4342 23.2238C48.7921 23.2259 48.1499 23.232 47.5078 23.223C46.9961 23.2157 46.4846 23.1999 45.974 23.1663C42.4113 22.9319 36.8826 22.2008 36.0867 17.8983C35.9517 17.1678 35.7666 16.1826 36.5546 15.7324C37.2962 15.3087 38.0195 15.8793 38.602 16.289C38.7646 16.4035 38.9341 16.5075 39.1091 16.6015C40.7282 17.4707 42.9819 17.5276 44.7853 17.5332C47.5816 17.5421 50.3615 17.4149 53.1509 17.7085C53.8845 17.7857 54.6116 17.9238 55.3271 18.1013C56.6902 18.4395 58.0681 18.9232 59.3193 19.5626C60.4732 20.1524 62.0425 21.155 61.6203 22.6877C61.4043 23.4722 60.7482 23.9307 59.9788 24.083C57.7693 24.5199 55.7438 26.3258 54.2979 27.9686C53.7194 28.6261 53.175 29.3129 52.6556 30.0182C54.1889 29.9746 55.7223 29.9332 57.2563 29.9327C57.3615 28.1817 58.0661 26.4644 59.1884 25.1219C60.0949 24.0377 62.0329 24.2687 63.2775 24.494C64.683 24.7487 67.0176 25.3334 66.9916 27.1412C66.9872 27.4505 66.9036 27.7515 66.7508 28.0202C66.5 28.4609 66.2953 28.9832 66.1394 29.5247C66.2496 29.4361 66.3573 29.341 66.4627 29.2391C67.1396 28.5854 67.664 27.7309 68.2483 26.9938C69.1635 25.839 71.1482 26.1926 72.3987 26.4952C73.6904 26.8078 75.6718 27.4296 75.8733 28.9682C75.9654 29.6711 75.9342 30.3491 75.8578 31.0509C75.8177 31.4183 75.7743 31.7815 75.7599 32.1458C76.4743 32.1293 77.1841 32.0775 77.8954 31.9596C78.1538 31.9167 78.4115 31.8697 78.6694 31.8242C79.4906 31.6797 80.3213 31.5342 81.155 31.4907C82.1595 31.4381 83.2013 31.6848 83.5023 32.7976C83.7761 33.8113 83.1357 34.5343 82.3479 35.0394C81.9461 35.297 81.525 35.5198 81.1049 35.7454C80.9388 35.8346 80.7726 35.9232 80.6074 36.0137C82.6566 36.3053 84.6992 36.645 86.7303 37.0429C88.808 37.4502 88.4683 40.32 86.3532 40.2327C78.2986 39.9008 70.2266 39.7158 62.1697 40.0766C54.4307 40.4233 46.7177 41.1975 39.0305 42.1369C35.3055 42.5919 31.5993 43.1864 27.9003 43.8138C24.1369 44.4522 20.3792 45.1238 16.6169 45.7677C14.1774 46.1851 11.7349 46.5908 9.25229 46.3246C4.898 45.8581 4.79315 41.4961 6.4158 38.3922C8.53967 34.3293 11.0302 30.4751 13.5603 26.6562C15.0673 24.3813 16.6051 22.102 17.9551 19.7245C16.345 19.8553 14.7117 19.8744 13.1062 19.7101C9.65481 19.3571 5.95248 18.0285 4.97034 14.3117C4.77816 13.5841 4.46985 12.5728 5.25481 12.0601C5.9876 11.5817 6.74474 12.1671 7.36741 12.5261L7.39253 12.5405L7.41669 12.5564C10.3176 14.4623 14.3377 13.6088 17.5482 13.1563C19.1581 12.9294 20.9552 13.0483 22.5634 13.2657C24.7552 13.5622 29.419 14.4124 29.7021 17.1344C29.7855 17.9361 29.4608 18.6601 28.9167 19.2346C28.045 20.1552 27.2155 21.1076 26.4197 22.0857C27.1024 21.9474 27.836 21.9561 28.4563 22.0128C29.884 22.1438 31.973 22.6564 32.1969 24.3563C32.2505 24.7633 32.1744 25.17 31.987 25.5344C31.7308 26.0321 31.4977 26.5696 31.2907 27.1257C31.9418 26.2231 32.49 25.222 33.0502 24.3468C33.8472 23.1018 35.6585 23.1106 36.9538 23.3313C38.4041 23.5783 40.4016 24.332 40.3507 26.1092C40.327 26.9336 40.2034 27.7379 40.0505 28.5468C39.9548 29.0546 39.8576 29.5605 39.7862 30.0699C41.0929 29.7905 42.383 29.4542 43.6412 28.9949Z" fill="white"/>
</svg>
