<svg width="83" height="60" viewBox="0 0 83 60" fill="none" xmlns="http://www.w3.org/2000/svg">
<path d="M26.6031 53.1209C26.8032 53.0932 26.8322 53.2301 26.7123 53.2328C26.008 55.804 23.055 58.9492 19.998 56.7611C22.1545 55.4972 24.5085 54.4414 26.6083 53.1209" fill="white"/>
<path d="M34.2393 55.1719C34.6342 57.2401 33.7877 59.0451 31.7168 59.0293C32.4909 57.6693 33.4494 56.5016 34.2393 55.1719Z" fill="white"/>
<path d="M0.996094 40.083C7.35098 41.547 13.1253 42.9109 19.5723 44.2801C17.7897 44.5882 15.8413 44.6882 13.5005 44.7304C11.032 44.7778 8.41869 45.1253 5.97258 44.8396C3.45142 44.5447 1.66094 42.5765 0.996094 40.083" fill="white"/>
<path d="M0.996094 40.083C7.35098 41.547 13.1253 42.9109 19.5723 44.2801C17.7897 44.5882 15.8413 44.6882 13.5005 44.7304C11.032 44.7778 8.41869 45.1253 5.97258 44.8396C3.45142 44.5447 1.66094 42.5765 0.996094 40.083" stroke="white" stroke-miterlimit="10"/>
<path d="M0.996094 40.083C7.35098 41.547 13.1253 42.9109 19.5723 44.2801C17.7897 44.5882 15.8413 44.6882 13.5005 44.7304C11.032 44.7778 8.41869 45.1253 5.97258 44.8396C3.45142 44.5447 1.66094 42.5765 0.996094 40.083Z" fill="white" stroke="white" stroke-miterlimit="10"/>
<path d="M20.8165 47.417C20.9113 47.3999 20.9218 47.4604 20.9284 47.5289C17.6844 50.291 9.84978 52.9464 6.80859 48.0134C11.1334 47.5855 16.0243 47.7725 20.8165 47.417Z" fill="white" stroke="white" stroke-miterlimit="10"/>
<path d="M20.8165 47.417C20.9113 47.3999 20.9218 47.4604 20.9284 47.5289C17.6844 50.291 9.84978 52.9464 6.80859 48.0134C11.1334 47.5855 16.019 47.7725 20.8165 47.417Z" fill="white" stroke="white" stroke-miterlimit="10"/>
<path d="M23.3036 50.8182C23.4984 50.7906 23.534 50.9236 23.4181 50.9262C21.9541 53.3394 16.4497 57.9894 13.6758 53.5882C16.9526 52.718 20.186 51.8254 23.3062 50.8235" fill="white"/>
<path d="M23.3036 50.8182C23.4984 50.7906 23.534 50.9236 23.4181 50.9262C21.9541 53.3394 16.4497 57.9894 13.6758 53.5882C16.9526 52.718 20.186 51.8254 23.3062 50.8235" stroke="white" stroke-miterlimit="10"/>
<path d="M23.3036 50.8182C23.4984 50.7906 23.534 50.9236 23.4181 50.9262C21.9541 53.3394 16.4497 57.9894 13.6758 53.5882C16.9539 52.714 20.1873 51.8214 23.3036 50.8182Z" fill="white" stroke="white" stroke-miterlimit="10"/>
<path d="M30.3907 54.5273C31.0318 56.5574 29.5218 59.3314 26.8848 58.4453C27.0981 58.1555 27.3289 57.879 27.5759 57.6172C28.3553 56.7496 29.6495 55.4594 30.3907 54.5273" fill="white"/>
<path d="M10.235 0C12.6389 8.45739 16.1106 19.6466 22.7657 35.3067C19.4752 31.6265 16.4916 27.6831 13.8449 23.5159C11.0591 19.1239 7.78489 14.1316 7.76778 7.91498C7.74935 4.57362 9.00137 2.31183 10.235 0Z" fill="white"/>
<path d="M10.235 0C12.6389 8.45739 16.1106 19.6466 22.7657 35.3067C19.4752 31.6265 16.4916 27.6831 13.8449 23.5159C11.0591 19.1239 7.78489 14.1316 7.76778 7.91498C7.74935 4.57362 9.00137 2.31183 10.235 0Z" fill="white"/>
<path d="M2.91605 16.1339C3.26361 15.9101 3.67832 16.7777 4.02588 17.2385C9.38284 24.3898 14.7846 31.4715 20.2508 38.5992C16.0748 35.1512 11.4208 31.1884 6.9025 26.9768C5.58597 25.7498 3.38737 24.0146 2.80809 22.4348C2.08268 20.485 2.59745 18.1956 2.91605 16.1339Z" fill="white"/>
<path d="M2.91605 16.1339C3.26361 15.9101 3.67832 16.7777 4.02588 17.2385C9.38284 24.3898 14.7846 31.4715 20.2508 38.5992C16.0748 35.1512 11.4208 31.1884 6.9025 26.9768C5.58597 25.7498 3.38737 24.0146 2.80809 22.4348C2.08268 20.485 2.59745 18.1956 2.91605 16.1339Z" fill="white"/>
<path d="M0.0178363 28.8516C6.20553 32.9499 12.6723 36.3689 18.9074 40.6556C18.9074 40.6556 19.3998 40.8017 19.1246 40.9886C15.2093 39.547 10.2841 38.2569 5.88034 36.8192C2.24935 35.6251 -0.236254 33.7793 0.0178363 28.8516Z" fill="white"/>
<path d="M0.0178363 28.8516C6.20553 32.9499 12.6723 36.3689 18.9074 40.6556C18.9074 40.6556 19.3998 40.8017 19.1246 40.9886C15.2093 39.547 10.2841 38.2569 5.88034 36.8192C2.24935 35.6251 -0.236254 33.7793 0.0178363 28.8516Z" fill="white"/>
<path d="M27.9957 42.8794C29.2701 42.8636 29.6651 42.5055 29.6651 41.0968C29.6651 39.6881 29.2701 39.3247 27.9957 39.3247L26.2421 39.3484V42.8794H27.9957ZM23.7578 37.5632C25.1204 37.4316 26.013 37.4092 28.0484 37.4092C31.1725 37.4092 32.177 38.2136 32.177 41.0955C32.177 44.0089 31.1725 44.7949 28.3762 44.7949C27.6628 44.794 26.9502 44.7501 26.2421 44.6633V48.8538H23.7578V37.5632Z" fill="white"/>
<path d="M37.7624 40.945C37.6835 40.6 37.5821 40.2209 37.536 39.8786H37.0937C37.012 40.2209 36.9344 40.6 36.8475 40.945L35.8943 44.3995H38.7143L37.7624 40.945ZM35.3729 46.3282L34.5567 49.2957H32L35.2571 38.6516C35.3066 38.4594 35.4206 38.29 35.5799 38.1716C35.7392 38.0533 35.9343 37.9931 36.1326 38.0012H38.4826C38.6805 37.9907 38.8758 38.05 39.0344 38.1689C39.193 38.2878 39.3048 38.4586 39.3502 38.6516L42.6139 49.2957H40.0756L39.2541 46.3282H35.3729Z" fill="white"/>
<path d="M48.16 42.5239C49.4674 42.5239 49.865 42.1645 49.865 40.9217C49.865 39.6578 49.47 39.3287 48.16 39.3287L46.3551 39.3497V42.5239H48.16ZM50.1743 48.8617L49.3173 45.4058C49.1106 44.687 48.7801 44.4566 48.1087 44.4566L46.3551 44.4434V48.8617H43.8984V37.5632C45.2558 37.4316 46.176 37.4092 48.2101 37.4092C51.1499 37.4092 52.3782 38.1636 52.3782 40.7532C52.3782 42.3475 51.8226 43.3625 50.2217 43.5508V43.6364C50.7971 43.7614 51.5659 44.1748 51.8226 45.3479L52.8021 48.8604L50.1743 48.8617Z" fill="white"/>
<path d="M56.8907 45.9932C56.8907 46.587 57.1276 46.8292 57.7675 46.8292H61.6499L61.7658 48.729C60.2597 48.8896 58.5903 48.9106 56.9815 48.9106C55.1673 48.9106 54.3945 47.893 54.3945 46.5027V37.5635H56.8959L56.8907 45.9932Z" fill="white"/>
<path d="M68.3002 40.5073C68.2055 40.1559 68.1286 39.8 68.0698 39.4409H67.6301C67.5367 39.7832 67.4656 40.1623 67.38 40.5073L66.4294 43.9619H69.2495L68.3002 40.5073ZM65.9055 45.8906L65.0892 48.858H62.5352L65.7988 38.2139C65.8455 38.0224 65.957 37.853 66.1145 37.7344C66.2719 37.6159 66.4656 37.5555 66.6625 37.5635H69.0243C69.2219 37.5538 69.4167 37.6135 69.5749 37.7323C69.7331 37.8511 69.8448 38.0214 69.8906 38.2139L73.1503 48.858H70.6068L69.7866 45.8906H65.9055Z" fill="white"/>
<path d="M76.1628 43.8815C76.2284 44.2383 76.2663 44.5997 76.276 44.9624V48.858H73.7852V37.5635H76.276V40.7534C76.2777 41.2031 76.2399 41.652 76.1628 42.095H77.1305L79.9965 37.5635H82.6981L79.7819 42.0634C79.5798 42.4215 79.2983 42.7287 78.9591 42.9612V43.0337C79.3371 43.3027 79.6598 43.642 79.9096 44.0329L82.8916 48.858H80.1005L77.1278 43.8815H76.1628Z" fill="white"/>
<path d="M44.1281 59.1442C44.1291 59.1509 44.1286 59.1578 44.1267 59.1643C44.1248 59.1708 44.1216 59.1769 44.1173 59.1821C44.113 59.1873 44.1076 59.1915 44.1015 59.1945C44.0955 59.1975 44.0888 59.1992 44.0821 59.1995H43.9109C43.874 59.1995 43.8596 59.1758 43.8596 59.1442V56.0688C43.8596 55.8345 43.8688 55.6278 43.8859 55.429C43.8859 55.3553 43.8346 55.3329 43.8109 55.4158C43.751 55.5869 43.6793 55.7537 43.5963 55.9148L42.626 57.9844C42.5536 58.1595 42.4522 58.4149 42.3811 58.5979C42.3732 58.6255 42.3548 58.6282 42.3258 58.6282H42.1547C42.1178 58.6282 42.0994 58.6282 42.0915 58.5979C42.0256 58.4149 41.9256 58.1568 41.8426 57.9752L40.8763 55.9148C40.8026 55.7436 40.7315 55.583 40.6683 55.4158C40.6354 55.3329 40.5775 55.3553 40.588 55.429C40.6095 55.6415 40.6179 55.8552 40.613 56.0688V59.1442C40.613 59.1758 40.5972 59.1995 40.5682 59.1995H40.3984C40.3837 59.1992 40.3697 59.1933 40.3592 59.1831C40.3487 59.1728 40.3425 59.1589 40.3418 59.1442V54.9853C40.3431 54.9712 40.3497 54.9582 40.3601 54.9487C40.3706 54.9392 40.3843 54.9339 40.3984 54.934H40.6999C40.7127 54.9326 40.7255 54.9358 40.7361 54.943C40.7468 54.9503 40.7544 54.9611 40.7578 54.9735C40.812 55.1504 40.8825 55.3218 40.9685 55.4856L42.0401 57.8119C42.1038 57.938 42.1541 58.0703 42.1902 58.2069C42.2126 58.2674 42.2679 58.2674 42.2824 58.2069C42.3224 58.0705 42.3753 57.9382 42.4403 57.8119L43.5107 55.4948C43.5924 55.3249 43.6607 55.1488 43.7147 54.9682C43.7147 54.9406 43.7398 54.9287 43.7714 54.9287H44.0821C44.0885 54.9289 44.0949 54.9303 44.1007 54.933C44.1066 54.9358 44.1119 54.9396 44.1162 54.9444C44.1205 54.9492 44.1238 54.9549 44.1258 54.961C44.1279 54.9671 44.1287 54.9736 44.1281 54.9801V59.1442Z" fill="white"/>
<path d="M50.7116 56.8847C50.7432 56.8847 50.7655 56.9005 50.7655 56.9242V57.0835C50.7652 57.0901 50.7635 57.0966 50.7606 57.1026C50.7577 57.1086 50.7536 57.1139 50.7485 57.1182C50.7434 57.1225 50.7376 57.1257 50.7312 57.1277C50.7249 57.1297 50.7182 57.1303 50.7116 57.1296H48.6801V58.9437H51.1644C51.1775 58.9448 51.1896 58.9508 51.1982 58.9607C51.2068 58.9705 51.2112 58.9833 51.2105 58.9964V59.1439C51.2112 59.1505 51.2106 59.1573 51.2087 59.1637C51.2067 59.1701 51.2035 59.1761 51.1992 59.1813C51.1949 59.1864 51.1896 59.1907 51.1836 59.1938C51.1777 59.1968 51.1711 59.1987 51.1644 59.1991H48.4563C48.4491 59.1992 48.442 59.1977 48.4354 59.1949C48.4287 59.1921 48.4227 59.188 48.4177 59.1829C48.4127 59.1777 48.4087 59.1716 48.4061 59.1649C48.4035 59.1582 48.4022 59.1511 48.4024 59.1439V54.9849C48.403 54.9711 48.409 54.958 48.4191 54.9485C48.4291 54.9389 48.4425 54.9336 48.4563 54.9336H51.1197C51.15 54.9336 51.1789 54.9573 51.1644 54.9889L51.1197 55.1298C51.118 55.1424 51.1117 55.154 51.102 55.1623C51.0923 55.1706 51.0798 55.1749 51.067 55.1745H48.6801V56.886L50.7116 56.8847Z" fill="white"/>
<path d="M55.5234 58.9437H56.6464C57.5903 58.9437 58.1314 58.2407 58.1314 57.0558C58.1314 55.871 57.5903 55.1732 56.6464 55.1732H55.5234V58.9437ZM56.6464 54.9336C57.7352 54.9336 58.4079 55.7419 58.4079 57.0558C58.4079 58.3697 57.7352 59.1991 56.6464 59.1991H55.2917C55.2789 59.1975 55.2672 59.191 55.2591 59.1809C55.251 59.1708 55.2471 59.158 55.2482 59.1452V54.9863C55.2475 54.9736 55.2515 54.9611 55.2596 54.9514C55.2676 54.9416 55.2791 54.9352 55.2917 54.9336H56.6464Z" fill="white"/>
<path d="M62.7387 59.1439C62.7387 59.1755 62.7242 59.1992 62.6913 59.1992H62.5228C62.5158 59.1988 62.5091 59.1971 62.5028 59.1942C62.4965 59.1912 62.4909 59.187 62.4863 59.1819C62.4816 59.1768 62.478 59.1708 62.4757 59.1642C62.4734 59.1577 62.4724 59.1508 62.4727 59.1439V54.985C62.473 54.9717 62.4784 54.959 62.4877 54.9495C62.4969 54.9399 62.5095 54.9343 62.5228 54.9336H62.6913C62.6979 54.9334 62.7045 54.9346 62.7106 54.9371C62.7167 54.9397 62.7223 54.9435 62.7268 54.9484C62.7313 54.9533 62.7346 54.9591 62.7367 54.9654C62.7388 54.9717 62.7394 54.9784 62.7387 54.985V59.1439Z" fill="white"/>
<path d="M69.5231 57.7246L68.8267 56.0645C68.7327 55.8471 68.6591 55.6214 68.6068 55.3904C68.5976 55.343 68.5463 55.343 68.541 55.3904C68.4803 55.6203 68.4033 55.8455 68.3106 56.0645L67.6168 57.7246H69.5231ZM67.5128 57.9748L67.0204 59.1596C67.0167 59.1729 67.0085 59.1843 66.9972 59.1921C66.9858 59.1998 66.9722 59.2032 66.9585 59.2018H66.7821C66.736 59.2018 66.7308 59.1754 66.736 59.1478L68.1276 55.8565C68.2466 55.568 68.3464 55.2721 68.4265 54.9705C68.4296 54.9582 68.437 54.9474 68.4474 54.9401C68.4578 54.9329 68.4705 54.9296 68.4831 54.931H68.6542C68.6924 54.931 68.7069 54.9428 68.7148 54.9705C68.7898 55.2417 68.907 55.5668 69.0202 55.8565L70.4012 59.1478C70.4236 59.1754 70.4012 59.2018 70.3683 59.2018H70.184C70.1511 59.2018 70.1393 59.1886 70.1261 59.1596L69.6363 57.9748H67.5128Z" fill="white"/>
</svg>
