<svg width="75" height="63" viewBox="0 0 75 63" fill="none" xmlns="http://www.w3.org/2000/svg">
<path fill-rule="evenodd" clip-rule="evenodd" d="M33.1637 31.2188C31.1664 31.8446 29.0631 32.2311 26.8876 32.3448C26.7629 34.044 26.2715 35.6416 25.4922 37.0583C25.5071 37.0583 25.5221 37.0583 25.537 37.0583C28.8926 37.0583 32.1202 36.5102 35.135 35.4988C34.6167 33.9992 33.9541 32.567 33.1637 31.2188ZM36.1868 24.783C33.3614 21.1719 29.7307 18.2212 25.565 16.2012C25.5647 16.2013 25.5642 16.2013 25.5639 16.2015C23.147 16.822 20.8062 17.6326 18.5586 18.6166C24.7636 20.1507 30.0722 23.9587 33.5494 29.1055C34.3144 27.5908 35.1977 26.1459 36.1868 24.783ZM48.6704 16.2012C44.5049 18.2214 40.8743 21.1719 38.0489 24.783C39.0382 26.1459 39.9214 27.5908 40.6863 29.1055C44.1635 23.9587 49.472 20.1507 55.677 18.6166C53.4294 17.6328 51.0888 16.8221 48.6718 16.2016C48.6714 16.2015 48.6709 16.2013 48.6704 16.2013V16.2012ZM41.0719 31.2188C40.2815 32.567 39.6189 33.9994 39.1006 35.4988C42.1155 36.5103 45.3431 37.0583 48.6986 37.0583C48.7107 37.0583 48.7227 37.0583 48.7348 37.0583C47.9553 35.6414 47.4639 34.0437 47.3394 32.3443C45.167 32.2302 43.0666 31.8437 41.072 31.2188H41.0719Z" fill="white"/>
<path fill-rule="evenodd" clip-rule="evenodd" d="M37.1196 37.059C37.7028 34.7632 38.5979 32.5916 39.7568 30.5923C39.009 28.9931 38.125 27.4704 37.1196 26.0391C36.1143 27.4704 35.2302 28.9931 34.4824 30.5923C35.6414 32.5916 36.5364 34.7632 37.1196 37.059Z" fill="white"/>
<path fill-rule="evenodd" clip-rule="evenodd" d="M37.1211 7.70531C38.0483 7.20847 39.0771 6.94931 40.1304 6.94855L40.3004 6.99366C41.211 7.52017 41.9744 8.26103 42.5281 9.15372H42.5316L42.5333 9.1566C43.584 9.19005 44.6043 9.48025 45.5164 10.0058L45.6413 10.1307C46.167 11.0428 46.4571 12.0631 46.4905 13.114L46.4934 13.1157V13.119C47.1824 13.5464 47.7805 14.0978 48.2608 14.748C48.4061 14.679 48.5522 14.611 48.6987 14.5443V11.5808C48.6987 4.63227 40.9781 3.86022 37.1179 0C33.2577 3.86022 25.5371 4.63227 25.5371 11.5808V14.5444C25.6838 14.6113 25.8299 14.6793 25.9754 14.7483C26.1635 14.494 26.3703 14.2542 26.5936 14.0309V14.0296C26.9381 13.685 27.3237 13.3789 27.7424 13.1192V13.1157L27.7455 13.1139C27.7789 12.0619 28.0688 11.0442 28.5947 10.1307L28.7196 10.0058C29.6323 9.4801 30.6512 9.19005 31.7027 9.1566L31.7045 9.15372H31.708C32.2618 8.26072 33.0252 7.52032 33.9357 6.99366L34.1057 6.94855C35.1591 6.94916 36.1878 7.20832 37.1151 7.70531L37.1179 7.70349L37.121 7.70531H37.1211ZM42.4058 14.5968C42.5672 14.194 42.6826 13.7506 42.7443 13.3212L42.7915 12.8559L42.133 12.9343L41.414 13.1122L40.9196 13.2955L40.4786 13.5058C40.2585 13.3582 40.0279 13.2248 39.7886 13.1072C39.7694 12.5406 39.6628 11.9895 39.479 11.4535L39.4553 11.3866L39.4182 11.2865L39.3924 11.2201L39.359 11.1373L39.3169 11.0384L39.2804 10.9565L39.2424 10.8749L39.2031 10.7938L39.195 10.7776L38.2981 11.5124L38.255 11.5563L38.1843 11.6303L38.1426 11.6751L38.1151 11.7053L38.0744 11.7508L38.0341 11.7967L37.9814 11.8585L37.9425 11.9052L37.9169 11.9366L37.8789 11.9839L37.8415 12.0316L37.8046 12.0796L37.515 12.4994H36.7204L36.3565 11.9838L36.1065 11.69L35.7576 11.3389L35.041 10.7776C34.7116 11.442 34.5102 12.16 34.458 12.9003L34.4468 13.1069C34.2076 13.225 33.9771 13.3583 33.7571 13.5058L33.185 13.2416L32.207 12.9538L32.1027 12.9342L32.0501 12.9251L31.9975 12.9165L31.9623 12.911L31.8564 12.8957L31.7318 12.8804L31.6423 12.8712L31.4982 12.8594L31.444 12.8558L31.4476 12.9101L31.4596 13.0541L31.4688 13.1435L31.4841 13.2681L31.4993 13.3741L31.5047 13.4094L31.5194 13.497L31.5224 13.5144L31.5421 13.6189C31.6355 14.0972 31.802 14.5854 32.0206 15.0264L32.094 15.1689C31.9464 15.389 31.8132 15.6194 31.6951 15.8587C31.1903 15.8761 30.6747 15.9654 30.1931 16.118L29.693 16.3022L29.3658 16.4529L29.396 16.498L29.447 16.5723L29.4886 16.631L29.5097 16.6603L29.5414 16.7037L29.5855 16.7621C30.5518 17.387 31.4817 18.0633 32.3717 18.7869C32.3671 18.7018 32.3649 18.616 32.3649 18.5297C32.3649 15.9049 34.4927 13.7771 37.1175 13.7771C39.7424 13.7771 41.8701 15.9049 41.8701 18.5297C41.8701 18.616 41.8678 18.7018 41.8633 18.7869C42.7529 18.0636 43.6826 17.3875 44.6485 16.7627L44.8686 16.4529L44.2596 16.192L44.025 16.113C43.5407 15.9636 43.0466 15.8763 42.5404 15.859C42.4223 15.6197 42.2888 15.3891 42.1411 15.1693L42.4052 14.5972L42.4058 14.5968ZM28.4648 14.0274L28.729 15.1596L29.0263 15.8645C29.7422 15.502 30.5263 15.2718 31.3265 15.2029L31.3471 15.2002L31.3415 15.1772C31.3311 15.1546 31.3209 15.1322 31.3108 15.1097C31.0777 14.5901 30.9201 14.0583 30.8309 13.4941L30.7637 12.8547C30.1305 12.9054 29.6606 12.9899 29.061 13.2191L28.4232 13.5097L28.4648 14.0273V14.0274ZM27.8389 14.4235L27.7704 13.9172C27.5232 14.0959 27.2906 14.2945 27.0744 14.5105L27.0738 14.5099C26.9038 14.68 26.7442 14.8611 26.5966 15.0517C27.1867 15.3478 27.7664 15.6619 28.3346 15.9931L28.0284 15.2031L27.8387 14.4235H27.8389ZM30.7631 12.1653C30.7955 11.5113 30.9399 10.8362 31.1755 10.2252L31.3287 9.86082C31.0254 9.89216 30.7246 9.94772 30.4291 10.0269C29.9782 10.1477 29.5437 10.3225 29.1368 10.5482C28.9111 10.9552 28.7363 11.3898 28.6154 11.8406C28.5363 12.1361 28.4807 12.4369 28.4495 12.7401C29.0083 12.4824 29.6482 12.2975 30.2585 12.2199L30.754 12.1742V12.1651H30.7631V12.1653ZM31.4436 12.1748C31.9301 12.2018 32.41 12.2828 32.8777 12.4193L33.766 12.7527V12.7228L33.7918 12.7377C33.8432 12.1317 33.9984 11.4924 34.2288 10.9297L34.4535 10.4368C34.0287 10.2244 33.597 10.0697 33.1333 9.96634L32.0986 9.83433C31.8353 10.328 31.6447 10.8637 31.5382 11.4152L31.4436 12.1748ZM35.5449 8.89864L36.4394 8.12781C36.161 8.00322 35.8727 7.90089 35.5772 7.82172C35.1264 7.70092 34.6628 7.63507 34.1978 7.62704C33.7981 7.86698 33.4291 8.15612 33.0991 8.48598C32.883 8.702 32.6844 8.93482 32.5058 9.18188L32.8817 9.22866C33.5487 9.33265 34.1828 9.53853 34.7841 9.84538L34.7885 9.83781L34.7966 9.84251L35.5446 8.89864H35.5449ZM36.166 10.7936L36.2708 10.8902L36.3295 10.9462L36.373 10.9886L37.0837 11.8238L37.1032 11.8515L37.1181 11.8258L37.1329 11.8515C37.5014 11.3335 37.9137 10.8948 38.4159 10.504L38.8565 10.1898L38.5897 9.81647C38.1809 9.29103 37.683 8.84112 37.1179 8.48916L36.3501 9.06395L35.8531 9.56533L35.8294 9.59258L35.7941 9.6339L35.7708 9.66161L35.7246 9.71747L35.6904 9.75985L35.6678 9.78831L35.6454 9.81692L35.6232 9.84569L35.5791 9.90382L35.5466 9.94787L35.5251 9.97754L35.4932 10.0222L35.4615 10.0672L35.4406 10.0974L35.4096 10.1431L35.3792 10.1892L35.6713 10.3911L35.82 10.5036L35.8525 10.529L35.8848 10.5546L35.9962 10.6457L36.0431 10.6854L36.0742 10.7122L36.166 10.7933V10.7936ZM39.4515 9.84584C40.0251 9.54837 40.6992 9.33008 41.3381 9.23138L41.7304 9.18203C41.5517 8.93498 41.3531 8.70215 41.1371 8.48613C40.8071 8.15612 40.4382 7.86713 40.0384 7.62719C39.5733 7.63522 39.1098 7.70122 38.659 7.82187C38.3635 7.90089 38.0751 8.00338 37.7969 8.12796C38.2833 8.4775 38.7176 8.88108 39.0882 9.35279L39.4401 9.84235L39.4472 9.83827L39.4516 9.84584H39.4515ZM39.7824 10.4374C40.1453 11.156 40.3758 11.9349 40.4445 12.738L40.4703 12.7231V12.753C41.0145 12.5023 41.5614 12.3359 42.1535 12.2422L42.7929 12.175C42.7422 11.5418 42.6577 11.0719 42.4285 10.4723L42.1379 9.83448C41.3783 9.8634 40.6375 10.0364 39.9478 10.3575L39.7825 10.4373L39.7824 10.4374ZM45.2518 12.5241L45.7868 12.7401C45.7556 12.4369 45.7 12.1361 45.6209 11.8406C45.5001 11.3896 45.3252 10.9552 45.0995 10.5482C44.6926 10.3227 44.258 10.1477 43.8072 10.0269C43.5117 9.94772 43.2107 9.89216 42.9077 9.86082C43.2414 10.6174 43.4305 11.335 43.4734 12.1655H43.4824V12.1745L44.6926 12.3562L45.2519 12.5241H45.2518ZM43.4728 12.855C43.4292 13.6402 43.2466 14.3945 42.9257 15.11C42.9155 15.1325 42.9052 15.1549 42.8949 15.1775H42.9248L42.9099 15.2032C43.7094 15.2716 44.4955 15.5028 45.2108 15.8649C45.2736 15.7394 45.3314 15.6127 45.3844 15.4848C45.5724 15.0309 45.6994 14.5608 45.7663 14.0674L45.8133 13.51C45.3273 13.2507 44.7739 13.0518 44.2324 12.9496L43.4728 12.855ZM46.4659 13.9174L46.2738 14.9775L46.0425 15.6083L45.9012 15.9934C46.4697 15.6622 47.0491 15.3481 47.6392 15.052C47.305 14.6209 46.9079 14.237 46.466 13.9174H46.4659Z" fill="white"/>
<path d="M1.24405 42.4722H0V47.7452H1.24405V42.4722ZM3.65101 47.7452V43.9756L5.10261 47.7452H6.03572L7.49458 43.9756V47.7452H8.70927V42.4722H7.04286L5.56917 46.3308L4.08063 42.4722H2.43663V47.7452H3.65101ZM9.66463 45.1087C9.66463 46.7825 10.8495 47.9305 12.5825 47.9305C14.3081 47.9305 15.5004 46.7825 15.5004 45.1087C15.5004 43.4425 14.3081 42.2871 12.5825 42.2871C10.8495 42.2871 9.66463 43.4425 9.66463 45.1087ZM10.9088 45.1087C10.9088 44.0793 11.5976 43.3534 12.5825 43.3534C13.5675 43.3534 14.2563 44.0793 14.2563 45.1087C14.2563 46.1381 13.5675 46.8638 12.5825 46.8638C11.5976 46.8564 10.9088 46.1381 10.9088 45.1087ZM17.6704 47.7452V43.9756L19.122 47.7452H20.0551L21.514 43.9756V47.7452H22.7285V42.4722H21.0621L19.5884 46.3308L18.0999 42.4722H16.4559V47.7452H17.6704ZM29.3051 42.4722H27.4981L25.7282 47.7452H27.039L27.3352 46.7898H29.4532L29.7641 47.7452H31.0677L29.305 42.4722H29.3051ZM28.4017 43.5386L29.2016 45.8936H27.6019L28.4018 43.5386H28.4017ZM34.4448 47.7452C35.5781 47.7452 36.3704 47.1675 36.3704 46.301C36.3704 45.679 36.0001 45.1827 35.4595 45.0494C35.9113 44.9234 36.2224 44.4791 36.2224 43.9237C36.2224 43.0867 35.4521 42.4721 34.356 42.4721H31.801V47.745H34.4447L34.4448 47.7452ZM34.1931 45.4788C34.719 45.4788 35.0965 45.753 35.0965 46.1529C35.0965 46.5306 34.7188 46.8045 34.1931 46.8045H33.0452V45.4788H34.1931ZM34.1338 43.4126C34.6077 43.4126 34.9485 43.6645 34.9485 44.0274C34.9485 44.383 34.6079 44.6346 34.1338 44.6346H33.0452V43.4125H34.1338V43.4126ZM40.8139 45.5309C40.8139 46.3084 40.3696 46.8638 39.7029 46.8638C38.992 46.8491 38.5847 46.2121 38.5847 45.5309V42.4722H37.333V45.5604C37.333 46.9602 38.3032 47.9303 39.7029 47.9303C41.0952 47.9303 42.058 46.9601 42.058 45.5604V42.4722H40.8139V45.5309ZM46.709 47.7452V45.5161H48.8863V47.7452H50.1304V42.4722H48.8863V44.5088H46.709V42.4722H45.4649V47.7452H46.709ZM54.4332 42.4722H52.6262L50.8562 47.7452H52.167L52.4633 46.7898H54.5814L54.8924 47.7452H56.1959L54.4332 42.4722ZM53.5298 43.5386L54.3297 45.8936H52.73L53.5299 43.5386H53.5298ZM58.3213 42.4722H56.929V47.7452H58.1065V43.983L60.2098 47.7452H61.6022V42.4722H60.4173V46.2418L58.3214 42.4722H58.3213ZM64.0387 42.4722H62.7946V47.7452H64.0387V42.4722ZM68.386 45.8567V44.9086H66.4753V43.5384H68.8229V42.4721H65.2311V47.745H66.4753V45.8565H68.386V45.8567ZM72.4739 42.4722H70.6669L68.8969 47.7452H70.2078L70.504 46.7898H72.6221L72.9331 47.7452H74.2366L72.4739 42.4722ZM71.5705 43.5386L72.3704 45.8936H70.7707L71.5706 43.5386H71.5705ZM4.88432 52.3029L3.12905 55.0875H4.57323L5.85452 52.999L7.16533 55.0875H8.63176L6.79505 52.3029L8.5871 49.8145H7.12082L5.85437 51.6438L4.61758 49.8145H3.17356L4.88432 52.3029ZM12.5419 49.8145H10.7349L8.96495 55.0875H10.2758L10.572 54.1321H12.69L13.0009 55.0875H14.3045L12.5418 49.8145H12.5419ZM11.6385 50.881L12.4384 53.2361H10.8387L11.6386 50.881H11.6385ZM18.4888 55.0876V54.0213H16.282V49.8147H15.0379V55.0876H18.489H18.4888ZM18.9628 52.4512C18.9628 54.1248 20.1476 55.2727 21.8806 55.2727C22.2066 55.2727 22.5175 55.2284 22.7991 55.1394L23.5396 56.1244H24.7616L23.7174 54.7246C24.3913 54.221 24.7985 53.4286 24.7985 52.451C24.7985 50.7846 23.6062 49.6293 21.8806 49.6293C20.1476 49.6293 18.9628 50.7846 18.9628 52.451V52.4512ZM20.2068 52.4512C20.2068 51.4218 20.8956 50.6959 21.8805 50.6959C22.8655 50.6959 23.5543 51.4218 23.5543 52.4512C23.5543 53.4805 22.8581 54.2063 21.8805 54.2063C20.8956 54.1988 20.2068 53.4805 20.2068 52.4512ZM28.6421 49.8147H26.8351L25.0651 55.0876H26.3759L26.6722 54.1322H28.7903L29.1012 55.0876H30.4048L28.6421 49.8147ZM27.7386 50.8812L28.5385 53.2362H26.9389L27.7388 50.8812H27.7386ZM31.1379 55.0878H32.3821V53.2436H33.4559L34.4927 55.0878H35.8849L34.6111 53.0733C35.2998 52.8511 35.7664 52.2734 35.7664 51.57C35.7664 50.5331 34.9147 49.8148 33.6928 49.8148H31.1378V55.0878H31.1379ZM33.493 50.7552C34.0779 50.7552 34.5223 51.0515 34.5223 51.5698C34.5223 52.0438 34.0779 52.3623 33.493 52.3623H32.382V50.7552H33.493ZM36.4478 52.4513C36.4478 54.125 37.6326 55.2729 39.3656 55.2729C41.0912 55.2729 42.2835 54.125 42.2835 52.4513C42.2835 50.7849 41.0912 49.6296 39.3656 49.6296C37.6326 49.6296 36.4478 50.7849 36.4478 52.4513ZM37.6918 52.4513C37.6918 51.4219 38.3806 50.696 39.3655 50.696C40.3505 50.696 41.0393 51.4219 41.0393 52.4513C41.0393 53.4807 40.3505 54.2064 39.3655 54.2064C38.3806 54.199 37.6918 53.4807 37.6918 52.4513ZM46.7493 49.8148H45.5052V55.0878H46.7493V49.8148ZM50.0374 55.2731C51.3779 55.2731 52.2739 54.5251 52.2739 53.4734C52.2739 51.3627 48.9932 52.2886 48.9932 51.2147C48.9932 50.8444 49.3857 50.5704 49.9708 50.5704C50.6077 50.5704 51.0744 50.9407 51.0668 51.459H52.148C52.148 50.4001 51.2223 49.6297 49.9411 49.6297C48.6673 49.6297 47.7859 50.3407 47.7859 51.3776C47.7859 53.4733 51.0594 52.5329 51.0594 53.6512C51.0594 54.0288 50.6891 54.3325 50.0743 54.3325C49.3635 54.3325 48.8524 53.9252 48.8524 53.3549H47.7341C47.7341 54.4659 48.6969 55.2731 50.0374 55.2731ZM56.71 55.0879V54.0216H54.5032V49.815H53.259V55.0879H56.71ZM57.184 52.4515C57.184 54.1251 58.3688 55.2731 60.1018 55.2731C61.8274 55.2731 63.0197 54.1251 63.0197 52.4515C63.0197 50.7851 61.8274 49.6297 60.1018 49.6297C58.3688 49.6297 57.184 50.7851 57.184 52.4515ZM58.428 52.4515C58.428 51.4221 59.1168 50.6962 60.1018 50.6962C61.0869 50.6962 61.7755 51.4221 61.7755 52.4515C61.7755 53.4808 61.0867 54.2066 60.1018 54.2066C59.1168 54.1992 58.428 53.4808 58.428 52.4515ZM65.1896 55.0879V51.3184L66.6412 55.0879H67.5743L69.0332 51.3184V55.0879H70.2479V49.815H68.5815L67.1078 53.6736L65.6192 49.815H63.9752V55.0879H65.1898H65.1896ZM13.193 57.1573H11.386L9.61604 62.4302H10.9269L11.2231 61.4748H13.3412L13.6522 62.4302H14.9557L13.193 57.1573ZM12.2896 58.2238L13.0895 60.5788H11.4898L12.2897 58.2238H12.2896ZM15.6889 57.1573V62.4302H16.9329V60.1048L18.7251 62.4302H20.2359L18.0365 59.6901L20.1915 57.1573H18.6882L16.9331 59.3049V57.1573H15.689H15.6889ZM24.0351 57.1573H22.2281L20.4581 62.4302H21.7689L22.0652 61.4748H24.1833L24.4942 62.4302H25.7978L24.0351 57.1573ZM23.1317 58.2238L23.9316 60.5788H22.3319L23.1318 58.2238H23.1317ZM26.5309 62.4304H28.5083C30.3301 62.4304 31.5447 61.3787 31.5447 59.7939C31.5447 58.2091 30.3301 57.1574 28.5083 57.1574H26.5309V62.4304ZM30.3079 59.7939C30.3079 60.8159 29.582 61.4602 28.5083 61.4602H27.7382V58.1275H28.5083C29.5822 58.1275 30.3079 58.7718 30.3079 59.7939ZM33.6997 61.4305V60.164H35.9066V59.2903H33.6997V58.157H36.2028V57.1573H32.4999V62.4302H36.2769V61.4303H33.6996L33.6997 61.4305ZM38.4393 62.4304V58.6608L39.8909 62.4304H40.824L42.2829 58.6608V62.4304H43.4976V57.1574H41.8312L40.3575 61.016L38.869 57.1574H37.225V62.4304H38.4395H38.4393ZM45.9416 57.1574H44.6976V62.4304H45.9416V57.1574ZM48.5263 60.5938V62.4304H49.7707V60.5938L51.6072 57.1574H50.2668L49.1483 59.4976L47.9783 57.1574H46.6601L48.5263 60.5938ZM54.7843 57.1574H52.9772L51.2073 62.4304H52.5181L52.8144 61.475H54.9325L55.2434 62.4304H56.547L54.7843 57.1574ZM53.8808 58.2239L54.6807 60.579H53.0811L53.881 58.2239H53.8808ZM59.2279 62.6156C60.5684 62.6156 61.4644 61.8677 61.4644 60.816C61.4644 58.7053 58.1835 59.6312 58.1835 58.5571C58.1835 58.1868 58.5761 57.9128 59.1612 57.9128C59.798 57.9128 60.2647 58.2831 60.2572 58.8014H61.3385C61.3385 57.7425 60.4128 56.9723 59.1316 56.9723C57.8578 56.9723 56.9764 57.6833 56.9764 58.7202C56.9764 60.816 60.2499 59.8755 60.2499 60.9937C60.2499 61.3714 59.8796 61.6751 59.2649 61.6751C58.554 61.6751 58.0429 61.2677 58.0429 60.6975H56.9245C56.9245 61.8085 57.8873 62.6156 59.2278 62.6156H59.2279ZM63.6937 57.1574H62.4496V62.4304H63.6937V57.1574Z" fill="white"/>
</svg>
