<svg width="76" height="53" viewBox="0 0 76 53" fill="none" xmlns="http://www.w3.org/2000/svg">
<path d="M17.399 45.1264C17.399 45.3155 17.3724 45.4353 17.3191 45.4806C17.2658 45.5286 17.1353 45.5525 16.9329 45.5525H14.7806C14.6181 45.5525 14.5009 45.5232 14.4263 45.462C14.3517 45.4007 14.3145 45.2888 14.3145 45.1264V35.0762C14.3145 34.5888 14.3784 34.1226 14.5062 33.6751C14.6341 33.2276 14.8445 32.828 15.1349 32.4764C15.4252 32.1248 15.8088 31.8425 16.2829 31.6347C16.7571 31.4243 17.3458 31.3204 18.049 31.3204H23.9784C24.1542 31.3204 24.266 31.355 24.314 31.4216C24.3619 31.4882 24.3859 31.6187 24.3859 31.8078V33.5339C24.3859 33.7097 24.3566 33.8296 24.2953 33.8882C24.2341 33.9495 24.1302 33.9788 23.981 33.9788H18.7229C18.1955 33.9788 17.8439 34.096 17.6681 34.333C17.4923 34.5701 17.4043 34.8711 17.4043 35.236V37.1033H23.1713C23.3338 37.1033 23.4376 37.1326 23.4856 37.1939C23.5335 37.2551 23.5575 37.3856 23.5575 37.5907V39.1757C23.5575 39.3381 23.5309 39.4553 23.4776 39.5299C23.4243 39.6045 23.3231 39.6418 23.1739 39.6418H17.407V45.1264H17.399ZM34.5879 44.2314C34.5879 44.4072 34.5639 44.5563 34.516 44.6789C34.468 44.8014 34.3508 44.9159 34.1617 45.0251C33.8501 45.1743 33.5198 45.2968 33.1602 45.3901C32.8006 45.4833 32.4356 45.5605 32.068 45.6138C31.6951 45.6671 31.3195 45.7097 30.9413 45.7363C30.5657 45.763 30.2061 45.7763 29.8678 45.7763C28.9515 45.7763 28.1897 45.6884 27.5877 45.5126C26.9884 45.3368 26.5036 45.097 26.1386 44.7907C25.7764 44.4871 25.518 44.1275 25.3715 43.7146C25.2223 43.3017 25.1477 42.8595 25.1477 42.3854C25.1477 41.858 25.2356 41.3732 25.4114 40.9337C25.5872 40.4942 25.851 40.1106 26.2026 39.7856C26.5542 39.4607 26.999 39.2076 27.5317 39.0238C28.0672 38.84 28.6985 38.7495 29.431 38.7495H31.6658V38.4245C31.6658 38.2354 31.6445 38.0516 31.6045 37.8758C31.5646 37.7 31.4794 37.5481 31.3515 37.4176C31.2236 37.2897 31.0425 37.1832 30.8134 37.1033C30.5844 37.0234 30.278 36.9807 29.8998 36.9807C29.6973 36.9807 29.4656 36.9914 29.2099 37.0101C28.9515 37.0314 28.6958 37.058 28.4374 37.0926C28.179 37.1273 27.9286 37.1672 27.6862 37.2152C27.4412 37.2631 27.2254 37.3137 27.0363 37.367C26.8605 37.4069 26.738 37.4069 26.6714 37.367C26.6048 37.327 26.5568 37.2391 26.5302 37.1033L26.2052 35.6809C26.1653 35.5317 26.1599 35.4278 26.1946 35.3666C26.2292 35.3053 26.2985 35.2547 26.4077 35.2147C27.0177 34.999 27.6569 34.8418 28.3255 34.7486C28.9968 34.6527 29.6627 34.6074 30.326 34.6074C31.799 34.6074 32.8778 34.9217 33.5624 35.5503C34.2496 36.179 34.5906 37.1113 34.5906 38.3419V44.2314H34.5879ZM31.6418 40.7179H30.0383C29.8492 40.7179 29.6467 40.7312 29.4283 40.7579C29.2125 40.7845 29.0128 40.8484 28.829 40.9497C28.6452 41.0509 28.4933 41.1974 28.3735 41.3865C28.2536 41.5756 28.1897 41.834 28.1897 42.159C28.1897 42.6331 28.3495 42.9634 28.6665 43.1552C28.9835 43.3443 29.415 43.4402 29.9557 43.4402C30.0356 43.4402 30.1448 43.4376 30.2807 43.4296C30.4165 43.4216 30.5604 43.4083 30.7175 43.3896C30.872 43.3683 31.0319 43.3417 31.1943 43.3097C31.3568 43.2751 31.506 43.2325 31.6418 43.1765V40.7179ZM43.8363 38.4857L46.9848 45.145C47.094 45.4167 46.9928 45.5499 46.6811 45.5499H44.3264C44.1639 45.5499 44.0387 45.5259 43.9508 45.478C43.8629 45.43 43.7857 45.3261 43.7164 45.1636L41.7879 40.8192L40.2456 42.5665C40.2456 42.6891 40.2456 42.8622 40.2456 43.0833C40.2456 43.3044 40.2456 43.5441 40.2456 43.7945C40.2456 44.0449 40.2429 44.2926 40.235 44.535C40.227 44.7774 40.2243 44.9878 40.2243 45.1636C40.2243 45.3128 40.2003 45.414 40.1524 45.4673C40.1044 45.5206 39.9872 45.5499 39.7981 45.5499H37.7071C37.4221 45.5499 37.2809 45.422 37.2809 45.1636V31.0727C37.2809 30.9235 37.3155 30.8249 37.3821 30.777C37.4487 30.729 37.5579 30.7051 37.7071 30.7051H39.8194C40.0085 30.7051 40.1231 30.7264 40.1657 30.7663C40.2056 30.8063 40.227 30.9075 40.227 31.07V38.5843L40.3095 38.6243L43.213 35.1721C43.3222 35.0629 43.4128 34.9883 43.4873 34.9484C43.5619 34.9084 43.6951 34.8871 43.8842 34.8871H46.3615C46.5506 34.8871 46.6545 34.9297 46.6758 35.0203C46.6971 35.1082 46.6598 35.2067 46.5639 35.3159L43.8363 38.4857ZM55.5432 45.0305C55.5566 45.1264 55.5646 45.2009 55.5646 45.2595C55.5646 45.3208 55.49 45.3767 55.3408 45.4327C54.84 45.5792 54.3393 45.6724 53.8385 45.7124C53.3377 45.7523 52.9115 45.7736 52.5599 45.7736C51.3959 45.7736 50.5621 45.5259 50.0614 45.0331C49.5606 44.5377 49.3102 43.8105 49.3102 42.8489V37.0607H47.8878C47.7386 37.0607 47.6454 37.0234 47.6027 36.9488C47.5628 36.8742 47.5415 36.7836 47.5415 36.6744V35.577C47.5415 35.4411 47.5575 35.3506 47.5921 35.3026C47.6267 35.2547 47.7173 35.2121 47.8665 35.1694L49.3688 34.8232L49.51 32.9133C49.5233 32.7508 49.5686 32.6363 49.6432 32.567C49.7177 32.5004 49.8296 32.4445 49.9788 32.4045L51.846 31.7945C51.9686 31.7679 52.0671 31.7812 52.1417 31.8345C52.2163 31.8878 52.2536 31.997 52.2536 32.1595V34.8791H54.4884C54.6376 34.8791 54.7282 34.9084 54.7628 34.9697C54.7974 35.0309 54.8134 35.1162 54.8134 35.2227V36.6638C54.8134 36.7996 54.8001 36.8982 54.7734 36.9595C54.7468 37.0207 54.6509 37.05 54.4884 37.05H52.2536V42.2256C52.2536 42.6171 52.3521 42.8915 52.5492 43.0407C52.7464 43.1898 53.0394 43.2644 53.4336 43.2644C53.5295 43.2644 53.644 43.2564 53.7799 43.2431C53.9157 43.2298 54.0542 43.2165 54.1954 43.2032C54.3366 43.1898 54.4751 43.1765 54.611 43.1632C54.7468 43.1499 54.8614 43.1366 54.9572 43.1232C55.173 43.0833 55.2875 43.1499 55.3035 43.3257L55.5432 45.0305ZM67.0052 40.1719C67.0052 41.9592 66.579 43.339 65.7266 44.3139C64.8742 45.2888 63.5743 45.7763 61.8269 45.7763C60.0662 45.7763 58.7823 45.2888 57.9699 44.3139C57.1575 43.339 56.7526 41.9725 56.7526 40.2118C56.7526 39.3461 56.8725 38.563 57.1069 37.8678C57.3439 37.1699 57.6822 36.5839 58.1217 36.1124C58.5612 35.6383 59.0966 35.2733 59.7253 35.0149C60.3539 34.7566 61.0678 34.6287 61.8669 34.6287C63.5717 34.6287 64.8556 35.1188 65.7159 36.1017C66.5736 37.082 67.0052 38.4378 67.0052 40.1719ZM63.9392 40.2305C63.9392 39.7696 63.9046 39.3515 63.838 38.9705C63.7714 38.5923 63.6542 38.2673 63.4917 37.9956C63.3293 37.7239 63.1188 37.5108 62.8631 37.3563C62.6047 37.2018 62.2878 37.1219 61.9095 37.1219C61.193 37.1219 60.6602 37.3963 60.3166 37.945C59.9703 38.4937 59.7999 39.2342 59.7999 40.1692C59.7999 41.1841 59.9597 41.9566 60.2767 42.484C60.5936 43.0114 61.1184 43.2751 61.8509 43.2751C62.2292 43.2751 62.5515 43.1978 62.8152 43.0407C63.0789 42.8862 63.2946 42.6678 63.4651 42.3907C63.6356 42.1137 63.7555 41.7914 63.83 41.4265C63.902 41.0642 63.9392 40.6647 63.9392 40.2305ZM72.3752 45.185C72.3752 45.3474 72.3486 45.4487 72.2953 45.4886C72.242 45.5286 72.1195 45.5499 71.9304 45.5499H69.858C69.7088 45.5499 69.5996 45.5259 69.533 45.478C69.4664 45.43 69.4318 45.3315 69.4318 45.1823V36.5332C69.4318 36.0058 69.5224 35.6036 69.7062 35.3239C69.89 35.0469 70.2789 34.8604 70.8729 34.7646C71.1153 34.7379 71.3683 34.7139 71.624 34.6926C71.8824 34.6713 72.1461 34.6633 72.4152 34.6633C73.5019 34.6633 74.2744 34.7219 75.2999 35.0975C75.7874 35.2414 75.7075 37.7612 75.2999 37.7026C74.4875 37.5881 74.0613 37.2977 73.1876 37.2817C72.9026 37.2764 72.6336 37.3031 72.3752 37.343V45.185Z" fill="white"/>
<path fill-rule="evenodd" clip-rule="evenodd" d="M27.2124 22.0292L40.5815 0.983269C41.0024 0.320007 41.6949 -0.0369271 42.4781 0.00302844C43.2612 0.042984 43.9138 0.469177 44.2654 1.16973L57.4161 27.4045H52.6747L42.1531 6.41722L29.4552 26.403C29.1116 26.9464 28.5975 27.2767 27.9609 27.3646C27.3243 27.4551 26.7409 27.2793 26.2588 26.8505L17.1409 18.7661L4.71741 45.2673H0C0.0159822 45.23 0.0319651 45.1927 0.050611 45.1581L14.5598 14.4003C14.8608 13.785 15.3829 13.3855 16.0515 13.2523C16.7227 13.1191 17.3567 13.2922 17.8681 13.7451L27.2124 22.0292Z" fill="white"/>
<path d="M1.07131 49.0498L1.80118 50.8745L2.53369 49.0498H3.45266V51.9319H2.78408V50.1233L2.06221 51.9319H1.54279L0.820935 50.1233V51.9319H0.152344V49.0498H1.07131Z" fill="white"/>
<path d="M5.35584 50.9358V49.8623H6.01644V51.932H5.35584V51.7136C5.23331 51.9 5.04952 51.9933 4.80446 51.9933C4.47416 51.9933 4.23177 51.9027 4.07994 51.7216C3.92811 51.5404 3.85352 51.2794 3.85352 50.9358V49.8623H4.51412V50.9358C4.51412 51.1169 4.54608 51.2527 4.61001 51.346C4.67394 51.4392 4.78315 51.4872 4.93498 51.4872C5.08681 51.4872 5.19603 51.4392 5.25996 51.346C5.32655 51.2527 5.35584 51.1169 5.35584 50.9358Z" fill="white"/>
<path d="M6.92552 49.8623L7.42097 51.2128L7.91642 49.8623H8.60366L7.73529 51.932H7.10399L6.23828 49.8623H6.92552Z" fill="white"/>
<path d="M8.68164 51.2898C8.68164 51.1859 8.70029 51.0953 8.73758 51.0128C8.77488 50.9302 8.82816 50.8636 8.89475 50.8103C8.96134 50.7571 9.03857 50.7118 9.12914 50.6745C9.2197 50.6372 9.31827 50.6105 9.42216 50.5972C9.5287 50.5839 9.63791 50.5733 9.75245 50.5706C9.86699 50.5653 9.98419 50.5706 10.0987 50.5839C10.0987 50.5333 10.0934 50.4907 10.0881 50.4587C10.0801 50.4268 10.0641 50.3948 10.0375 50.3682C10.0135 50.3388 9.97621 50.3202 9.9256 50.3069C9.87499 50.2936 9.81105 50.2882 9.73114 50.2882C9.49673 50.2882 9.27831 50.3309 9.07055 50.4188L8.85212 49.9979C8.98531 49.9313 9.13447 49.8807 9.29695 49.8487C9.4621 49.8168 9.61927 49.8008 9.76843 49.8008C9.96022 49.8008 10.12 49.8168 10.2479 49.8541C10.3758 49.8887 10.477 49.9446 10.5516 50.0192C10.6261 50.0938 10.6768 50.1817 10.7087 50.2829C10.738 50.3841 10.754 50.5093 10.754 50.6558V51.9317H10.0934V51.6601C9.99752 51.8731 9.78974 51.9797 9.4701 51.9797C9.36355 51.9797 9.26233 51.9664 9.1691 51.9397C9.07587 51.9131 8.99063 51.8731 8.91605 51.8199C8.84146 51.7666 8.78287 51.6947 8.74025 51.6041C8.70296 51.5135 8.68164 51.4097 8.68164 51.2898ZM9.34225 51.2312C9.34225 51.3058 9.36621 51.3644 9.41416 51.4097C9.4621 51.4523 9.53669 51.4736 9.63791 51.4736C9.77909 51.4736 9.89363 51.439 9.97621 51.3724C10.0588 51.3058 10.1014 51.2232 10.1014 51.13V50.9515C10.0508 50.9488 9.99484 50.9488 9.93091 50.9462C9.86699 50.9435 9.80039 50.9462 9.73114 50.9568C9.66188 50.9675 9.59796 50.9835 9.54203 50.9994C9.48342 51.0181 9.43813 51.0474 9.40084 51.0847C9.36089 51.1273 9.34225 51.1752 9.34225 51.2312Z" fill="white"/>
<path d="M13.7587 49.3325C13.7134 49.3325 13.6761 49.3351 13.6468 49.3431C13.6148 49.3511 13.5909 49.3644 13.5696 49.3857C13.5483 49.407 13.5323 49.4283 13.5216 49.4523C13.511 49.4763 13.503 49.5083 13.495 49.5562C13.4897 49.6015 13.4843 49.6468 13.4843 49.6867C13.4817 49.7267 13.4817 49.7853 13.4817 49.8599H14.0517V50.366H13.4817V51.9296H12.8211V50.366H12.0779V51.9296H11.4173V50.366H11.0391V49.8599H11.4173C11.42 49.7533 11.4253 49.6601 11.436 49.5775C11.4466 49.4976 11.4706 49.4124 11.5079 49.3218C11.5452 49.2312 11.5904 49.1593 11.6517 49.1007C11.7103 49.0421 11.7929 48.9968 11.8994 48.9569C12.0033 48.9196 12.1285 48.9009 12.275 48.9009C12.4641 48.9009 12.6373 48.9302 12.7918 48.9888L12.6213 49.4497C12.5254 49.4204 12.4375 49.407 12.3549 49.407C12.3096 49.407 12.2723 49.4097 12.243 49.4177C12.2111 49.4257 12.1871 49.439 12.1658 49.4577C12.1445 49.4763 12.1285 49.4976 12.1179 49.5162C12.1072 49.5376 12.0992 49.5669 12.0912 49.6068C12.0859 49.6468 12.0806 49.6841 12.0806 49.716C12.0779 49.7507 12.0779 49.7959 12.0779 49.8545H12.8211C12.8211 49.7666 12.8264 49.6894 12.8317 49.6228C12.8371 49.5535 12.8477 49.4843 12.8637 49.4097C12.8797 49.3351 12.8983 49.2712 12.9249 49.2152C12.9489 49.1593 12.9862 49.106 13.0288 49.0528C13.0741 48.9995 13.1247 48.9569 13.1807 48.9249C13.2393 48.8929 13.3085 48.8663 13.3938 48.8477C13.4763 48.829 13.5722 48.8184 13.6761 48.8184C13.8652 48.8184 14.0384 48.8477 14.1929 48.9063L14.0224 49.3671C13.9292 49.3458 13.8413 49.3325 13.7587 49.3325Z" fill="white"/>
<path d="M14.2754 51.2898C14.2754 51.1859 14.294 51.0953 14.3313 51.0128C14.3686 50.9302 14.4219 50.8636 14.4885 50.8103C14.5551 50.7571 14.6323 50.7118 14.7229 50.6745C14.8135 50.6372 14.912 50.6105 15.0159 50.5972C15.1225 50.5839 15.2317 50.5733 15.3462 50.5706C15.4607 50.5653 15.5779 50.5706 15.6925 50.5839C15.6925 50.5333 15.6872 50.4907 15.6818 50.4587C15.6738 50.4268 15.6579 50.3948 15.6312 50.3682C15.6073 50.3388 15.57 50.3202 15.5194 50.3069C15.4687 50.2936 15.4048 50.2882 15.3249 50.2882C15.0905 50.2882 14.8721 50.3309 14.6643 50.4188L14.4459 49.9979C14.5791 49.9313 14.7282 49.8807 14.8907 49.8487C15.0559 49.8168 15.213 49.8008 15.3622 49.8008C15.554 49.8008 15.7138 49.8168 15.8417 49.8541C15.9695 49.8887 16.0707 49.9446 16.1453 50.0192C16.2199 50.0938 16.2705 50.1817 16.3025 50.2829C16.3318 50.3841 16.3478 50.5093 16.3478 50.6558V51.9317H15.6872V51.6601C15.5913 51.8731 15.3835 51.9797 15.0639 51.9797C14.9573 51.9797 14.8561 51.9664 14.7629 51.9397C14.6696 51.9131 14.587 51.8731 14.5098 51.8199C14.4352 51.7666 14.3766 51.6947 14.334 51.6041C14.2967 51.5135 14.2754 51.4097 14.2754 51.2898ZM14.9333 51.2312C14.9333 51.3058 14.9573 51.3644 15.0053 51.4097C15.0532 51.4523 15.1278 51.4736 15.229 51.4736C15.3702 51.4736 15.4847 51.439 15.5673 51.3724C15.6499 51.3058 15.6925 51.2232 15.6925 51.13V50.9515C15.6419 50.9488 15.5859 50.9488 15.522 50.9462C15.4581 50.9435 15.3915 50.9462 15.3222 50.9568C15.253 50.9675 15.1891 50.9835 15.1331 50.9994C15.0745 51.0181 15.0292 51.0474 14.9919 51.0847C14.952 51.1273 14.9333 51.1752 14.9333 51.2312Z" fill="white"/>
<path d="M16.9668 51.698C16.7724 51.5009 16.6738 51.2346 16.6738 50.8963C16.6738 50.558 16.7724 50.2916 16.9668 50.0945C17.1613 49.8974 17.417 49.7988 17.7313 49.7988C17.8885 49.7988 18.0243 49.8281 18.1389 49.8894C18.2534 49.9507 18.344 50.0306 18.4106 50.1318V49.8574H19.0712V52.9979H18.4106V51.6554C18.344 51.7567 18.2561 51.8366 18.1389 51.8978C18.0243 51.9591 17.8858 51.9884 17.7313 51.9884C17.417 51.9937 17.1613 51.8952 16.9668 51.698ZM17.4729 50.4728C17.3797 50.582 17.3318 50.7231 17.3318 50.8963C17.3318 51.0694 17.3797 51.2133 17.4729 51.3225C17.5688 51.4317 17.6994 51.4876 17.8698 51.4876C18.0403 51.4876 18.1735 51.4317 18.2667 51.3225C18.36 51.2133 18.4079 51.0721 18.4079 50.8963C18.4079 50.7231 18.36 50.582 18.2667 50.4728C18.1708 50.3635 18.0403 50.3076 17.8698 50.3076C17.702 50.3103 17.5688 50.3635 17.4729 50.4728Z" fill="white"/>
<path d="M19.4867 51.932V49.8623H20.1473V51.932H19.4867ZM19.5719 49.4947C19.5027 49.4281 19.4707 49.3455 19.4707 49.2496C19.4707 49.1537 19.5053 49.0738 19.5719 49.0045C19.6412 48.9353 19.7211 48.9033 19.817 48.9033C19.9129 48.9033 19.9928 48.9379 20.062 49.0045C20.1286 49.0711 20.1633 49.1537 20.1633 49.2496C20.1633 49.3455 20.1286 49.4254 20.062 49.4947C19.9928 49.5613 19.9129 49.5959 19.817 49.5959C19.7211 49.5959 19.6412 49.5613 19.5719 49.4947Z" fill="white"/>
<path d="M21.0713 49.862L21.5667 51.2125L22.0622 49.862H22.7494L21.8624 51.9317L21.6147 52.5124C21.5801 52.5897 21.5481 52.6536 21.5108 52.7069C21.4735 52.7601 21.4309 52.8108 21.3776 52.8587C21.3243 52.9067 21.2577 52.9413 21.1832 52.9626C21.1086 52.9866 21.0207 52.9972 20.9221 52.9972C20.7303 52.9972 20.5705 52.9626 20.4453 52.896L20.6478 52.4485C20.725 52.4778 20.7996 52.4911 20.8742 52.4911C20.9328 52.4911 20.9807 52.4725 21.018 52.4352C21.058 52.3979 21.0926 52.3393 21.1272 52.262L21.2737 51.9291L20.3867 49.8594H21.0713V49.862Z" fill="white"/>
<path d="M22.8281 51.2898C22.8281 51.1859 22.8468 51.0953 22.8841 51.0128C22.9213 50.9302 22.9746 50.8636 23.0412 50.8103C23.1078 50.7571 23.1851 50.7118 23.2756 50.6745C23.3662 50.6372 23.4647 50.6105 23.5686 50.5972C23.6752 50.5839 23.7844 50.5733 23.8989 50.5706C24.0135 50.5653 24.1307 50.5706 24.2452 50.5839C24.2452 50.5333 24.2399 50.4907 24.2346 50.4587C24.2266 50.4268 24.2106 50.3948 24.1839 50.3682C24.16 50.3388 24.1227 50.3202 24.0721 50.3069C24.0215 50.2936 23.9575 50.2882 23.8776 50.2882C23.6432 50.2882 23.4248 50.3309 23.217 50.4188L22.9986 49.9979C23.1318 49.9313 23.281 49.8807 23.4434 49.8487C23.6086 49.8168 23.7657 49.8008 23.9149 49.8008C24.1067 49.8008 24.2665 49.8168 24.3944 49.8541C24.5222 49.8887 24.6235 49.9446 24.698 50.0192C24.7726 50.0938 24.8232 50.1817 24.8552 50.2829C24.8845 50.3841 24.9005 50.5093 24.9005 50.6558V51.9317H24.2399V51.6601C24.144 51.8731 23.9362 51.9797 23.6166 51.9797C23.51 51.9797 23.4088 51.9664 23.3156 51.9397C23.2223 51.9131 23.1371 51.8731 23.0625 51.8199C22.9879 51.7666 22.9293 51.6947 22.8867 51.6041C22.8494 51.5135 22.8281 51.4097 22.8281 51.2898ZM23.4887 51.2312C23.4887 51.3058 23.5127 51.3644 23.5606 51.4097C23.6086 51.4523 23.6832 51.4736 23.7844 51.4736C23.9256 51.4736 24.0401 51.439 24.1227 51.3724C24.2053 51.3058 24.2479 51.2232 24.2479 51.13V50.9515C24.1973 50.9488 24.1413 50.9488 24.0774 50.9462C24.0135 50.9435 23.9469 50.9462 23.8776 50.9568C23.8084 50.9675 23.7444 50.9835 23.6885 50.9994C23.6299 51.0181 23.5846 51.0474 23.5473 51.0847C23.5047 51.1273 23.4887 51.1752 23.4887 51.2312Z" fill="white"/>
<path d="M25.1875 50.3679V49.8618H25.5791V49.2598H26.2397V49.8618H26.823V50.3679H26.2397V51.0711C26.2397 51.1323 26.2423 51.183 26.2477 51.2256C26.253 51.2682 26.2636 51.3108 26.2823 51.3534C26.2983 51.3961 26.3249 51.428 26.3595 51.452C26.3942 51.4733 26.4394 51.4866 26.4927 51.4866C26.5859 51.4866 26.6818 51.4706 26.7804 51.436L26.9216 51.9075C26.7777 51.9661 26.6206 51.9927 26.4528 51.9927C26.2849 51.9927 26.1438 51.9741 26.0319 51.9368C25.9174 51.8995 25.8294 51.8409 25.7629 51.761C25.6963 51.6811 25.651 51.5852 25.6217 51.476C25.5924 51.3668 25.5817 51.2336 25.5817 51.0737V50.3705H25.1875V50.3679Z" fill="white"/>
<path d="M28.8591 49.8623L29.3546 51.2128L29.85 49.8623H30.5373L29.6689 51.932H29.0376L28.1719 49.8623H28.8591Z" fill="white"/>
<path d="M30.6152 51.2898C30.6152 51.1859 30.6339 51.0953 30.6712 51.0128C30.7085 50.9302 30.7617 50.8636 30.8283 50.8103C30.8949 50.7571 30.9722 50.7118 31.0627 50.6745C31.1533 50.6372 31.2519 50.6105 31.3557 50.5972C31.4623 50.5839 31.5715 50.5733 31.686 50.5706C31.8006 50.5653 31.9178 50.5706 32.0323 50.5839C32.0323 50.5333 32.027 50.4907 32.0217 50.4587C32.0137 50.4268 31.9977 50.3948 31.971 50.3682C31.9471 50.3388 31.9098 50.3202 31.8592 50.3069C31.8086 50.2936 31.7446 50.2882 31.6647 50.2882C31.4303 50.2882 31.2119 50.3309 31.0041 50.4188L30.7857 49.9979C30.9189 49.9313 31.0681 49.8807 31.2305 49.8487C31.3957 49.8168 31.5529 49.8008 31.702 49.8008C31.8938 49.8008 32.0536 49.8168 32.1815 49.8541C32.3093 49.8887 32.4106 49.9446 32.4852 50.0192C32.5597 50.0938 32.6103 50.1817 32.6423 50.2829C32.6716 50.3841 32.6876 50.5093 32.6876 50.6558V51.9317H32.027V51.6601C31.9311 51.8731 31.7233 51.9797 31.4037 51.9797C31.2971 51.9797 31.1959 51.9664 31.1027 51.9397C31.0095 51.9131 30.9242 51.8731 30.8496 51.8199C30.7751 51.7666 30.7164 51.6947 30.6738 51.6041C30.6365 51.5135 30.6152 51.4097 30.6152 51.2898ZM31.2758 51.2312C31.2758 51.3058 31.2998 51.3644 31.3478 51.4097C31.3957 51.4523 31.4703 51.4736 31.5715 51.4736C31.7127 51.4736 31.8272 51.439 31.9098 51.3724C31.9924 51.3058 32.035 51.2232 32.035 51.13V50.9515C31.9844 50.9488 31.9284 50.9488 31.8645 50.9462C31.8006 50.9435 31.734 50.9462 31.6647 50.9568C31.5955 50.9675 31.5315 50.9835 31.4756 50.9994C31.417 51.0181 31.3717 51.0474 31.3344 51.0847C31.2945 51.1273 31.2758 51.1752 31.2758 51.2312Z" fill="white"/>
<path d="M35.167 49.0498L35.8969 50.8745L36.6294 49.0498H37.5484V51.9319H36.8798V50.1233L36.1579 51.9319H35.6385L34.9166 50.1233V51.9319H34.248V49.0498H35.167Z" fill="white"/>
<path d="M37.8691 51.2898C37.8691 51.1859 37.8878 51.0953 37.9251 51.0128C37.9624 50.9302 38.0156 50.8636 38.0822 50.8103C38.1488 50.7571 38.2261 50.7118 38.3166 50.6745C38.4072 50.6372 38.5058 50.6105 38.6097 50.5972C38.7162 50.5839 38.8254 50.5733 38.94 50.5706C39.0545 50.5653 39.1717 50.5706 39.2862 50.5839C39.2862 50.5333 39.2809 50.4907 39.2756 50.4587C39.2676 50.4268 39.2516 50.3948 39.225 50.3682C39.201 50.3388 39.1637 50.3202 39.1131 50.3069C39.0625 50.2936 38.9986 50.2882 38.9186 50.2882C38.6842 50.2882 38.4658 50.3309 38.258 50.4188L38.0396 49.9979C38.1728 49.9313 38.322 49.8807 38.4845 49.8487C38.6496 49.8168 38.8068 49.8008 38.9559 49.8008C39.1477 49.8008 39.3075 49.8168 39.4354 49.8541C39.5633 49.8887 39.6645 49.9446 39.7391 50.0192C39.8137 50.0938 39.8643 50.1817 39.8962 50.2829C39.9255 50.3841 39.9415 50.5093 39.9415 50.6558V51.9317H39.2809V51.6601C39.185 51.8731 38.9772 51.9797 38.6576 51.9797C38.5511 51.9797 38.4498 51.9664 38.3566 51.9397C38.2634 51.9131 38.1808 51.8731 38.1035 51.8199C38.029 51.7666 37.9704 51.6947 37.9278 51.6041C37.8905 51.5135 37.8691 51.4097 37.8691 51.2898ZM38.5271 51.2312C38.5271 51.3058 38.551 51.3644 38.599 51.4097C38.6469 51.4523 38.7215 51.4736 38.8228 51.4736C38.9639 51.4736 39.0785 51.439 39.161 51.3724C39.2436 51.3058 39.2862 51.2232 39.2862 51.13V50.9515C39.2356 50.9488 39.1797 50.9488 39.1158 50.9462C39.0518 50.9435 38.9852 50.9462 38.916 50.9568C38.8467 50.9675 38.7828 50.9835 38.7269 50.9994C38.6683 51.0181 38.623 51.0474 38.5857 51.0847C38.5457 51.1273 38.5271 51.1752 38.5271 51.2312Z" fill="white"/>
<path d="M42.0063 49.8622H42.6669V51.9319C42.6669 52.0944 42.6429 52.2409 42.5923 52.3688C42.5443 52.4966 42.4777 52.5978 42.3978 52.6751C42.3179 52.7523 42.222 52.8163 42.1075 52.8669C41.9956 52.9175 41.8784 52.9521 41.7612 52.9708C41.644 52.9894 41.5188 53.0001 41.3856 53.0001C41.0047 53.0001 40.6771 52.9228 40.4027 52.7656L40.6531 52.3075C40.8795 52.43 41.1246 52.4913 41.3856 52.4913C41.5747 52.4913 41.7266 52.4433 41.8385 52.3528C41.9503 52.2595 42.0063 52.1184 42.0063 51.9292V51.6549C41.9397 51.7561 41.8518 51.836 41.7346 51.8973C41.62 51.9585 41.4815 51.9879 41.327 51.9879C41.0127 51.9879 40.7596 51.8893 40.5625 51.6922C40.3654 51.4951 40.2695 51.2287 40.2695 50.8904C40.2695 50.5521 40.3681 50.2857 40.5625 50.0886C40.757 49.8915 41.0127 49.793 41.327 49.793C41.4842 49.793 41.62 49.8223 41.7346 49.8835C41.8491 49.9448 41.9397 50.0247 42.0063 50.1259V49.8622ZM41.0713 50.4722C40.9781 50.5814 40.9301 50.7226 40.9301 50.8957C40.9301 51.0689 40.9781 51.2127 41.0713 51.3219C41.1672 51.4311 41.2977 51.4871 41.4682 51.4871C41.6387 51.4871 41.7719 51.4311 41.8651 51.3219C41.9583 51.2127 42.0063 51.0715 42.0063 50.8957C42.0063 50.7226 41.9583 50.5814 41.8651 50.4722C41.7692 50.363 41.6387 50.3071 41.4682 50.3071C41.2977 50.3097 41.1645 50.363 41.0713 50.4722Z" fill="white"/>
<path d="M42.9902 50.1393L43.4138 49.0498H44.0557L43.5549 50.1393H42.9902Z" fill="white"/>
<path d="M44.2754 51.1489V48.8848H44.936V51.0877C44.936 51.1196 44.936 51.1436 44.936 51.1596C44.936 51.1729 44.936 51.1969 44.9387 51.2262C44.9413 51.2555 44.944 51.2768 44.9467 51.2928C44.952 51.3088 44.9573 51.3247 44.9626 51.346C44.9706 51.3647 44.9786 51.3807 44.9919 51.3887C45.0026 51.3993 45.0186 51.4073 45.0346 51.4153C45.0532 51.4233 45.0718 51.426 45.0958 51.426H45.1757V51.9321H44.9626C44.8321 51.9321 44.7202 51.9134 44.6297 51.8708C44.5364 51.8308 44.4672 51.7856 44.4246 51.7376C44.3793 51.687 44.3473 51.6204 44.3233 51.5352C44.2994 51.4499 44.2861 51.3833 44.2834 51.3354C44.2781 51.2901 44.2754 51.2262 44.2754 51.1489Z" fill="white"/>
<path d="M47.0004 50.9358V49.8623H47.661V51.932H47.0004V51.7136C46.8778 51.9 46.694 51.9933 46.449 51.9933C46.1187 51.9933 45.8763 51.9027 45.7245 51.7216C45.5726 51.5404 45.498 51.2794 45.498 50.9358V49.8623H46.1586V50.9358C46.1586 51.1169 46.1906 51.2527 46.2545 51.346C46.3185 51.4392 46.4277 51.4872 46.5795 51.4872C46.7313 51.4872 46.8405 51.4392 46.9045 51.346C46.9684 51.2527 47.0004 51.1169 47.0004 50.9358Z" fill="white"/>
<path d="M50.1629 50.0963C50.36 50.2934 50.4559 50.5598 50.4559 50.8981C50.4559 51.2364 50.3574 51.5027 50.1629 51.6999C49.9685 51.897 49.7128 51.9955 49.3984 51.9955C49.2413 51.9955 49.1054 51.9636 48.9909 51.905C48.8764 51.8437 48.7858 51.7638 48.7192 51.6626V51.9369H48.0586V48.8896H48.7192V50.1389C48.7858 50.0377 48.8764 49.9578 48.9909 49.8965C49.1054 49.8353 49.2413 49.806 49.3984 49.806C49.7154 49.8006 49.9685 49.8992 50.1629 50.0963ZM49.6568 51.3216C49.75 51.2124 49.798 51.0712 49.798 50.8954C49.798 50.7223 49.75 50.5811 49.6568 50.4719C49.5609 50.3627 49.4304 50.3067 49.2599 50.3067C49.0894 50.3067 48.9563 50.36 48.863 50.4719C48.7698 50.5811 48.7219 50.7223 48.7219 50.8954C48.7219 51.0686 48.7698 51.2124 48.863 51.3216C48.9589 51.4308 49.0894 51.4868 49.2599 51.4868C49.4304 51.4868 49.5636 51.4308 49.6568 51.3216Z" fill="white"/>
<path d="M50.7972 51.932V49.8623H51.4578V51.932H50.7972ZM50.8825 49.4947C50.8132 49.4281 50.7812 49.3455 50.7812 49.2496C50.7812 49.1537 50.8159 49.0738 50.8825 49.0045C50.9517 48.9353 51.0316 48.9033 51.1275 48.9033C51.2234 48.9033 51.3033 48.9379 51.3726 49.0045C51.4392 49.0711 51.4738 49.1537 51.4738 49.2496C51.4738 49.3455 51.4392 49.4254 51.3726 49.4947C51.306 49.5613 51.2234 49.5959 51.1275 49.5959C51.0316 49.5959 50.949 49.5613 50.8825 49.4947Z" fill="white"/>
<path d="M52.3786 49.862L52.8741 51.2125L53.3695 49.862H54.0568L53.1698 51.9317L52.922 52.5124C52.8874 52.5897 52.8528 52.6536 52.8181 52.7069C52.7809 52.7601 52.7382 52.8108 52.685 52.8587C52.6317 52.9067 52.5651 52.9413 52.4905 52.9626C52.4159 52.9866 52.328 52.9972 52.2295 52.9972C52.0377 52.9972 51.8779 52.9626 51.7527 52.896L51.9551 52.4485C52.0324 52.4778 52.1069 52.4911 52.1789 52.4911C52.2375 52.4911 52.2854 52.4725 52.3227 52.4352C52.3627 52.3979 52.3973 52.3393 52.4319 52.262L52.5784 51.9291L51.6914 49.8594H52.3786V49.862Z" fill="white"/>
<path d="M54.1348 51.2898C54.1348 51.1859 54.1534 51.0953 54.1907 51.0128C54.228 50.9302 54.2813 50.8636 54.3479 50.8103C54.4145 50.7571 54.4917 50.7118 54.5823 50.6745C54.6728 50.6372 54.7714 50.6105 54.8753 50.5972C54.9818 50.5839 55.091 50.5733 55.2056 50.5706C55.3201 50.5653 55.4373 50.5706 55.5519 50.5839C55.5519 50.5333 55.5465 50.4907 55.5412 50.4587C55.5332 50.4268 55.5172 50.3948 55.4906 50.3682C55.4666 50.3388 55.4293 50.3202 55.3787 50.3069C55.3281 50.2936 55.2642 50.2882 55.1843 50.2882C54.9499 50.2882 54.7314 50.3309 54.5237 50.4188L54.3052 49.9979C54.4384 49.9313 54.5876 49.8807 54.7501 49.8487C54.9152 49.8168 55.0724 49.8008 55.2216 49.8008C55.4134 49.8008 55.5732 49.8168 55.701 49.8541C55.8289 49.8887 55.9301 49.9446 56.0047 50.0192C56.0793 50.0938 56.1299 50.1817 56.1618 50.2829C56.1911 50.3841 56.2071 50.5093 56.2071 50.6558V51.9317H55.5465V51.6601C55.4506 51.8731 55.2429 51.9797 54.9232 51.9797C54.8167 51.9797 54.7155 51.9664 54.6222 51.9397C54.529 51.9131 54.4464 51.8731 54.3692 51.8199C54.2946 51.7666 54.236 51.6947 54.1934 51.6041C54.1561 51.5135 54.1348 51.4097 54.1348 51.2898ZM54.7954 51.2312C54.7954 51.3058 54.8193 51.3644 54.8673 51.4097C54.9152 51.4523 54.9898 51.4736 55.091 51.4736C55.2322 51.4736 55.3468 51.439 55.4293 51.3724C55.5119 51.3058 55.5545 51.2232 55.5545 51.13V50.9515C55.5039 50.9488 55.448 50.9488 55.384 50.9462C55.3201 50.9435 55.2535 50.9462 55.1843 50.9568C55.115 50.9675 55.0511 50.9835 54.9951 50.9994C54.9365 51.0181 54.8913 51.0474 54.854 51.0847C54.814 51.1273 54.7954 51.1752 54.7954 51.2312Z" fill="white"/>
<path d="M56.4961 50.3679V49.8618H56.8877V49.2598H57.5483V49.8618H58.1316V50.3679H57.5483V51.0711C57.5483 51.1323 57.5509 51.183 57.5563 51.2256C57.5616 51.2682 57.5723 51.3108 57.5909 51.3534C57.6069 51.3961 57.6335 51.428 57.6681 51.452C57.7028 51.4733 57.7481 51.4866 57.8013 51.4866C57.8946 51.4866 57.9905 51.4706 58.089 51.436L58.2302 51.9075C58.0863 51.9661 57.9292 51.9927 57.7614 51.9927C57.5935 51.9927 57.4524 51.9741 57.3405 51.9368C57.2286 51.8995 57.1381 51.8409 57.0715 51.761C57.0049 51.6811 56.9569 51.5852 56.9303 51.476C56.9036 51.3668 56.8903 51.2336 56.8903 51.0737V50.3705H56.4961V50.3679Z" fill="white"/>
<path d="M61.6817 51.6896C61.4607 51.8921 61.165 51.9933 60.7974 51.9933C60.4298 51.9933 60.1341 51.8921 59.913 51.6896C59.692 51.4872 59.5801 51.2235 59.5801 50.8985C59.5801 50.5709 59.692 50.3072 59.913 50.1047C60.1341 49.9023 60.4298 49.8037 60.7974 49.8037C61.165 49.8037 61.4607 49.9049 61.6844 50.1047C61.9055 50.3072 62.0174 50.5709 62.0174 50.8985C62.0147 51.2235 61.9028 51.4872 61.6817 51.6896ZM60.3819 51.3247C60.4777 51.4339 60.6163 51.4872 60.7947 51.4872C60.9732 51.4872 61.1117 51.4312 61.2103 51.3247C61.3062 51.2155 61.3541 51.0743 61.3541 50.8985C61.3541 50.7227 61.3062 50.5815 61.2103 50.4723C61.1144 50.3631 60.9759 50.3098 60.7947 50.3098C60.6136 50.3098 60.4777 50.3631 60.3819 50.4723C60.286 50.5815 60.238 50.7227 60.238 50.8985C60.238 51.0716 60.286 51.2155 60.3819 51.3247Z" fill="white"/>
<path d="M62.3379 51.9317V49.8621H62.9985V50.0752C63.0251 50.0165 63.0571 49.9686 63.0944 49.9313C63.1317 49.894 63.1743 49.8647 63.2196 49.8487C63.2649 49.8301 63.3075 49.8194 63.3501 49.8114C63.3901 49.8035 63.4353 49.8008 63.4859 49.8008C63.8189 49.8008 64.0533 49.926 64.1865 50.1737C64.301 49.9233 64.5061 49.8008 64.7991 49.8008C65.0735 49.8008 65.2786 49.886 65.4171 50.0538C65.5556 50.2243 65.6276 50.4561 65.6276 50.7571V51.9317H64.967V50.7571C64.967 50.4561 64.8577 50.3069 64.6393 50.3069C64.4209 50.3069 64.3117 50.4561 64.3117 50.7571V51.9317H63.6511V50.7571C63.6511 50.4561 63.5419 50.3069 63.3235 50.3069C63.105 50.3069 62.9958 50.4561 62.9958 50.7571V51.9317H62.3379Z" fill="white"/>
<path d="M66.0433 51.932V49.8623H66.7039V51.932H66.0433ZM66.1286 49.4947C66.062 49.4281 66.0273 49.3455 66.0273 49.2496C66.0273 49.1537 66.062 49.0738 66.1286 49.0045C66.1978 48.9353 66.2777 48.9033 66.3736 48.9033C66.4695 48.9033 66.5494 48.9379 66.6187 49.0045C66.6853 49.0711 66.7199 49.1537 66.7199 49.2496C66.7199 49.3455 66.6853 49.4254 66.6187 49.4947C66.5521 49.5613 66.4695 49.5959 66.3736 49.5959C66.2777 49.5959 66.1978 49.5613 66.1286 49.4947Z" fill="white"/>
<path d="M67.123 51.1489V48.8848H67.7836V51.0877C67.7836 51.1196 67.7836 51.1436 67.7836 51.1596C67.7836 51.1729 67.7836 51.1969 67.7863 51.2262C67.789 51.2555 67.7916 51.2768 67.7943 51.2928C67.7996 51.3088 67.805 51.3247 67.8103 51.346C67.8183 51.3647 67.8263 51.3807 67.8396 51.3887C67.8502 51.3993 67.8662 51.4073 67.8822 51.4153C67.9008 51.4233 67.9195 51.426 67.9435 51.426H68.0234V51.9321H67.8103C67.6798 51.9321 67.5679 51.9134 67.4773 51.8708C67.3841 51.8308 67.3148 51.7856 67.2722 51.7376C67.2269 51.687 67.195 51.6204 67.171 51.5352C67.147 51.4499 67.1337 51.3833 67.131 51.3354C67.123 51.2901 67.123 51.2262 67.123 51.1489Z" fill="white"/>
<path d="M68.3418 51.1489V48.8848H69.0024V51.0877C69.0024 51.1196 69.0024 51.1436 69.0024 51.1596C69.0024 51.1729 69.0024 51.1969 69.0051 51.2262C69.0077 51.2555 69.0104 51.2768 69.013 51.2928C69.0184 51.3088 69.0237 51.3247 69.029 51.346C69.037 51.3647 69.045 51.3807 69.0583 51.3887C69.069 51.3993 69.085 51.4073 69.1009 51.4153C69.1196 51.4233 69.1382 51.426 69.1622 51.426H69.2421V51.9321H69.029C68.8985 51.9321 68.7866 51.9134 68.6961 51.8708C68.6028 51.8308 68.5336 51.7856 68.491 51.7376C68.4457 51.687 68.4137 51.6204 68.3897 51.5352C68.3658 51.4499 68.3524 51.3833 68.3498 51.3354C68.3418 51.2901 68.3418 51.2262 68.3418 51.1489Z" fill="white"/>
<path d="M69.4824 51.2898C69.4824 51.1859 69.5011 51.0953 69.5384 51.0128C69.5757 50.9302 69.6289 50.8636 69.6955 50.8103C69.7621 50.7571 69.8394 50.7118 69.9299 50.6745C70.0205 50.6372 70.119 50.6105 70.2229 50.5972C70.3295 50.5839 70.4387 50.5733 70.5532 50.5706C70.6678 50.5653 70.785 50.5706 70.8995 50.5839C70.8995 50.5333 70.8942 50.4907 70.8889 50.4587C70.8809 50.4268 70.8649 50.3948 70.8382 50.3682C70.8143 50.3388 70.777 50.3202 70.7264 50.3069C70.6757 50.2936 70.6118 50.2882 70.5319 50.2882C70.2975 50.2882 70.0791 50.3309 69.8713 50.4188L69.6529 49.9979C69.7861 49.9313 69.9352 49.8807 70.0977 49.8487C70.2629 49.8168 70.42 49.8008 70.5692 49.8008C70.761 49.8008 70.9208 49.8168 71.0487 49.8541C71.1765 49.8887 71.2777 49.9446 71.3523 50.0192C71.4269 50.0938 71.4775 50.1817 71.5095 50.2829C71.5388 50.3841 71.5548 50.5093 71.5548 50.6558V51.9317H70.8942V51.6601C70.7983 51.8731 70.5905 51.9797 70.2709 51.9797C70.1643 51.9797 70.0631 51.9664 69.9699 51.9397C69.8767 51.9131 69.7941 51.8731 69.7168 51.8199C69.6422 51.7666 69.5837 51.6947 69.541 51.6041C69.5037 51.5135 69.4824 51.4097 69.4824 51.2898ZM70.1404 51.2312C70.1404 51.3058 70.1643 51.3644 70.2123 51.4097C70.2602 51.4523 70.3348 51.4736 70.436 51.4736C70.5772 51.4736 70.6917 51.439 70.7743 51.3724C70.8569 51.3058 70.8995 51.2232 70.8995 51.13V50.9515C70.8489 50.9488 70.7929 50.9488 70.729 50.9462C70.6651 50.9435 70.5985 50.9462 70.5292 50.9568C70.46 50.9675 70.3961 50.9835 70.3401 50.9994C70.2815 51.0181 70.2362 51.0474 70.199 51.0847C70.159 51.1273 70.1404 51.1752 70.1404 51.2312Z" fill="white"/>
<path d="M73.6677 49.8974L73.3773 50.3955C73.2841 50.3369 73.1749 50.3076 73.0444 50.3076C72.8925 50.3076 72.7833 50.3556 72.7194 50.4461C72.6555 50.5394 72.6235 50.6779 72.6235 50.8563V51.9298H71.9629V49.8601H72.6235V50.0785C72.746 49.8921 72.9298 49.7988 73.1775 49.7988C73.3693 49.8015 73.5318 49.8335 73.6677 49.8974Z" fill="white"/>
<path d="M73.9047 51.932V49.8623H74.5652V51.932H73.9047ZM73.9899 49.4947C73.9206 49.4281 73.8887 49.3455 73.8887 49.2496C73.8887 49.1537 73.9233 49.0738 73.9899 49.0045C74.0591 48.9353 74.1391 48.9033 74.2349 48.9033C74.3308 48.9033 74.4107 48.9379 74.48 49.0045C74.5466 49.0711 74.5812 49.1537 74.5812 49.2496C74.5812 49.3455 74.5466 49.4254 74.48 49.4947C74.4134 49.5613 74.3308 49.5959 74.2349 49.5959C74.1391 49.5959 74.0591 49.5613 73.9899 49.4947Z" fill="white"/>
</svg>
