<svg width="112" height="65" viewBox="0 0 112 65" fill="none" xmlns="http://www.w3.org/2000/svg">
<g clip-path="url(#clip0_940_378)">
<path fill-rule="evenodd" clip-rule="evenodd" d="M73.6091 54.0057L68.3761 56.3283L73.6091 54.0057ZM78.9185 51.6442L78.842 51.683L78.9185 51.6442ZM38.0453 44.3271L41.0248 48.0823L38.0453 44.3271ZM82.5856 40.301L82.5473 40.3398L82.5856 40.301ZM33.958 40.3398L33.9197 40.301L33.958 40.3398ZM83.6553 36.4682L83.6664 36.4795C83.6657 36.4788 83.6511 36.4718 83.6553 36.4682ZM86.1002 31.0873L84.8015 35.7714L86.1002 31.0873ZM87.3989 26.4031C87.4023 26.3996 87.41 26.4095 87.41 26.4144L87.3989 26.4031ZM87.9723 21.4094C87.9723 21.3099 88.0329 21.403 87.9946 21.4094C87.9939 21.4094 87.9723 21.5173 87.9723 21.4094ZM87.1699 17.4214L87.2137 17.4969L87.1699 17.4214ZM86.1768 12.4665C86.1802 12.4629 86.1879 12.4721 86.1879 12.4777L86.1768 12.4665ZM32.9272 12.4277L32.9064 12.5109L32.9272 12.4277ZM78.8427 0.0391846L81.6697 2.47823L78.8427 0.0391846ZM72.1962 -5.49698L72.2784 -5.47582L72.1962 -5.49698ZM41.2551 -5.49698L41.1807 -5.45254L41.2551 -5.49698ZM68.1471 -7.81964C68.342 -7.81964 68.2105 -7.82035 68.262 -7.78085C68.0601 -7.78085 68.2049 -7.78085 68.1471 -7.81964ZM45.3035 -7.81964C45.2527 -7.78014 45.3843 -7.78085 45.1887 -7.78085C45.2353 -7.81682 45.1456 -7.80624 45.3035 -7.81964ZM30.7864 25.5885C31.1783 25.3501 31.6954 24.9226 32.0204 24.5933C32.9411 23.6587 33.3058 22.9012 33.3866 21.4863C33.4026 21.2048 33.31 20.7083 33.31 20.4022C32.7609 20.4142 31.339 21.3734 30.856 21.8636C30.5213 22.2029 30.2589 22.5527 30.0738 23.045C29.9812 23.2912 29.9283 23.5444 29.8754 23.8117C29.8309 24.0382 29.7578 24.4522 29.7578 24.6991C29.5504 24.3675 29.0702 21.1766 29.0702 21.1759C30.0077 20.9544 31.2841 20.2618 31.9647 19.5797C32.7866 18.7552 33.1959 17.5441 33.1959 16.2978C31.8179 16.6237 30.2492 17.0758 29.5275 18.5034C29.3987 18.7587 29.0396 19.6728 29.0319 20.0142H28.9554C28.9554 19.1022 28.8879 18.0083 28.9157 17.0709L28.9936 16.1427C29.9165 16.1427 31.6209 15.5008 32.3468 14.8561C32.7129 14.531 32.9551 14.2509 33.1959 13.7812C33.4666 13.2543 33.6183 12.8071 33.7686 12.1547C32.1331 12.1547 30.5749 12.561 29.7495 13.8115L29.0702 15.0586C29.1523 14.0527 29.4906 12.3197 29.7397 11.2822C29.7884 11.0784 29.7634 11.1284 29.9464 11.1418C30.4872 11.1813 31.044 11.1369 31.4984 11.0544C31.9689 10.969 32.3433 10.8442 32.7512 10.6982C33.1395 10.5592 33.4715 10.3342 33.7568 10.0916C33.912 9.959 34.0192 9.82851 34.1445 9.67192L34.4918 9.21134C34.6205 9.0075 35.0068 8.35154 35.0283 8.09056L34.2426 7.99676C33.5376 7.89237 32.5514 8.0553 31.9397 8.28876C31.5235 8.44817 31.1936 8.70914 30.8936 9.00961L30.3076 9.73187C30.2492 9.81934 30.1698 9.93642 30.1009 9.98721C30.1197 9.7615 30.3563 9.11048 30.4538 8.7959L30.6967 8.11243C30.76 7.94527 30.8025 7.80279 30.8602 7.6589C30.9236 7.4995 30.9688 7.38382 31.0349 7.21666C31.1525 6.9183 31.2646 6.60937 31.4003 6.34839C33.049 6.73774 34.8662 6.77018 36.1273 5.48718C36.359 5.2516 36.9332 4.64783 37.0153 4.33537C36.2804 3.97847 34.846 3.80637 33.9684 3.99611C33.3184 4.13647 32.7338 4.5505 32.2883 5.00332C32.1387 5.15567 31.9877 5.3447 31.8206 5.45826C31.8332 5.3052 32.3753 4.26907 32.486 4.08074L32.9822 3.19061C33.0762 3.02768 33.1527 2.91906 33.246 2.76107L33.7686 1.89703C34.6323 2.36044 35.8197 2.67008 37.1274 2.55229C37.9764 2.47611 38.6174 1.93018 39.1547 1.5098C39.3412 1.36451 39.5375 1.18535 39.6509 0.967403L39.0287 0.669046C38.8958 0.61121 38.8603 0.58088 38.7107 0.527275C38.2082 0.347415 38.1985 0.324139 37.6173 0.202822C37.4315 0.164028 36.9624 0.0977268 36.7592 0.12594C35.4939 0.302274 35.2531 0.632369 34.189 1.35463C34.2816 1.00267 36.4899 -1.63105 36.9395 -1.93575C37.0077 -1.91741 37.6006 -1.4928 37.8686 -1.36725C38.5764 -1.03504 39.0364 -0.886213 39.8361 -0.767717C40.4896 -0.671086 41.063 -0.849536 41.53 -1.03927C41.8223 -1.15847 42.638 -1.61694 42.7849 -1.82007C42.3826 -2.09304 42.3116 -2.21012 41.6991 -2.5776C41.3247 -2.8026 40.8299 -2.99516 40.349 -3.1066C39.0044 -3.41695 37.831 -2.49367 37.4371 -2.40056L38.0008 -2.95143C38.0892 -3.03043 38.1212 -3.03748 38.211 -3.12565C38.6327 -3.5425 40.1806 -4.78106 40.722 -5.14925C40.8849 -4.90238 41.5203 -4.40794 41.7987 -4.22738C42.2107 -3.96076 42.6394 -3.73223 43.1335 -3.56648C44.2666 -3.1856 45.2374 -3.41765 46.2995 -3.98756C46.25 -4.17448 45.8186 -4.56241 45.6613 -4.69572C44.7711 -5.45395 44.0564 -5.99001 42.7501 -5.84259L41.617 -5.59714C41.4771 -5.55623 41.4034 -5.50897 41.2572 -5.49698C41.3498 -5.62464 41.9267 -5.9632 42.0972 -6.07747C42.3812 -6.26791 42.6881 -6.45976 43.0006 -6.63256C43.3131 -6.80537 43.5894 -6.97606 43.9047 -7.14816C44.0974 -7.25396 44.712 -7.58476 44.8853 -7.62567C45.4413 -6.78351 46.0378 -6.21924 46.9077 -5.68742C48.3595 -4.80011 49.5962 -5.45184 50.1189 -5.49627C50.0542 -5.77841 49.5733 -6.33491 49.3714 -6.59659C49.0033 -7.0741 48.3651 -7.57701 47.7846 -7.77591C46.85 -8.09684 45.9633 -7.81894 45.3056 -7.81894L46.1081 -8.20616C46.399 -8.32254 46.6697 -8.44527 46.9752 -8.56588C48.1431 -9.02788 47.4826 -8.75703 48.7917 -8.48618C49.7932 -8.27952 50.7188 -8.74222 51.4684 -9.35515C51.6145 -9.47435 52.0231 -9.81856 52.0676 -9.98642C51.2429 -10.1811 51.5491 -10.2227 50.3597 -10.3849C49.6491 -10.4823 48.894 -10.0711 48.4486 -9.6662C48.2718 -9.50609 48.0568 -9.34387 47.8988 -9.13932C47.7742 -8.9778 47.8097 -8.98979 47.5849 -8.91573L45.9939 -8.35993C46.1464 -8.57082 47.1917 -9.14144 47.5988 -10.179C47.8584 -10.842 47.8737 -11.6905 47.7826 -12.4572C47.7652 -12.6025 47.6858 -13.0941 47.6364 -13.1992C47.3434 -13.1301 46.7066 -12.6589 46.463 -12.4523C46.1116 -12.1532 45.8394 -11.8055 45.6237 -11.3675C45.2402 -10.5881 45.0641 -9.10053 45.3056 -8.05028C44.3897 -7.60522 43.5156 -7.21517 42.6296 -6.69746L41.7527 -6.19244C42.0854 -6.69534 42.9101 -7.38516 43.0083 -8.40436C43.1078 -9.44332 42.8412 -10.5697 42.4786 -11.2638C42.3735 -11.2074 42.2977 -11.153 42.2051 -11.0762C41.5843 -10.5592 41.0053 -9.90108 40.7742 -9.08078C40.5376 -8.23861 40.6246 -6.53805 41.0262 -5.68953C40.4617 -5.38695 38.6543 -3.98615 38.0941 -3.47338C38.0259 -3.41131 37.9639 -3.37533 37.8936 -3.32808C37.9208 -3.42965 37.9848 -3.5164 38.0398 -3.60598C38.765 -4.80011 38.8805 -5.96109 38.2632 -7.30263C38.1414 -7.56713 37.8136 -8.27176 37.6264 -8.39942C37.4976 -8.31196 37.4955 -8.27952 37.4023 -8.16173C36.849 -7.46274 36.3207 -6.78774 36.327 -5.76712C36.334 -4.53913 36.6019 -3.60316 37.1295 -2.59241C36.9687 -2.54868 36.8873 -2.40268 36.7773 -2.29124C36.6548 -2.16851 36.5609 -2.1142 36.4328 -1.9823C36.2324 -1.77705 35.9547 -1.5323 35.7876 -1.31999C35.67 -1.17046 35.6123 -1.11121 35.4779 -0.97579L34.8711 -0.274689C34.7848 -0.167478 34.6727 0.0102654 34.5711 0.0793877C34.7827 -0.840366 35.2044 -1.31082 34.6804 -2.70315C34.5092 -3.1588 33.7707 -4.40724 33.3483 -4.72111C33.1409 -4.56735 32.7686 -3.72659 32.6558 -3.4099C32.4783 -2.91405 32.3746 -2.28701 32.4916 -1.64586C32.6537 -0.760664 33.033 0.0857363 33.539 0.815756C33.5773 0.870067 33.6044 0.91944 33.6482 0.975867C33.7011 1.04499 33.7199 1.05134 33.7686 1.12469C33.7165 1.32219 33.3845 1.72775 33.2564 1.92242C32.8089 2.60307 32.3795 3.29218 31.9988 4.01585L31.7441 4.45457C31.7545 3.99187 31.9223 3.84375 31.8603 2.86616C31.829 2.37243 31.6126 1.87305 31.4086 1.54295C31.1671 1.15291 30.941 0.872184 30.6271 0.554078C30.4858 0.410895 30.3313 0.232446 30.1837 0.112538C30.0125 -0.026412 29.8754 -0.164658 29.6813 -0.269047C29.4502 0.173197 29.2999 0.741696 29.2108 1.34476C29.1106 2.02399 29.231 2.65597 29.4412 3.149C29.8198 4.03701 30.1218 4.38968 30.6633 5.04564C30.8115 5.2255 31.0161 5.44556 31.2096 5.57605C30.7732 6.41258 30.3897 7.34996 30.0967 8.24221C30.039 8.41784 29.8706 9.01173 29.7578 9.17607C29.7578 7.80349 29.5936 7.10945 28.947 6.35827C28.5218 5.86453 28.0256 5.44768 27.4681 5.10842C27.3644 5.04564 27.2941 5.00967 27.173 4.94266C27.0498 4.87495 27.0178 4.81429 26.8543 4.80089C26.7158 5.0936 26.6072 6.22425 26.6782 6.72081C26.7819 7.44236 26.9162 7.7908 27.228 8.293L27.6671 8.89253C28.0221 9.31291 28.9261 10.2432 29.4133 10.3751C29.1502 10.9309 28.7779 13.2882 28.6109 14.014C28.606 14.0055 28.6011 13.9815 28.599 13.9872L28.5552 13.8383C28.4139 13.1788 28.2698 12.5299 27.8349 12.0129C27.7889 11.9579 27.7694 11.9438 27.7263 11.8902C27.6776 11.8288 27.688 11.826 27.6275 11.759C27.1876 11.2716 25.5786 10.3124 24.9431 10.2983C24.9431 10.5338 24.9042 10.5818 24.9021 10.8012C24.8972 11.2568 24.9884 11.8204 25.0956 12.2344C25.2535 12.8431 25.4999 13.2 25.866 13.6606C26.1799 14.0563 26.594 14.3751 27.0004 14.6791C27.2203 14.8441 27.4256 14.9457 27.663 15.0917C27.9149 15.2462 28.1703 15.3139 28.4195 15.4479C28.4195 16.1504 28.2629 17.2338 28.2657 18.0019C28.2671 18.3123 28.2664 18.6219 28.2664 18.9322C28.1279 18.7305 27.9372 18.1437 27.6706 17.755C27.4166 17.3847 27.1097 17.1097 26.7366 16.8818C25.9871 16.4255 24.923 16.0284 23.9883 16.0284C24.0781 17.1266 24.5221 18.4681 25.3628 19.1255C25.4651 19.2052 25.5521 19.2814 25.6628 19.3639C26.2154 19.7751 26.8376 20.1087 27.4973 20.3309C27.7465 20.4149 28.1439 20.4812 28.3812 20.5968C28.3812 21.4489 28.5287 22.3397 28.6902 23.1487C28.7313 23.3568 28.8357 23.7539 28.8398 23.9648C28.4473 23.507 28.3694 22.8299 27.0832 22.1831C26.168 21.7233 25.0942 21.719 24.0266 21.719C24.0349 22.1055 24.5103 23.0309 24.6738 23.3088C24.9459 23.7701 25.3176 24.1976 25.7525 24.4994C26.5153 25.0277 27.9344 25.513 29.2219 25.513C29.2644 26.03 29.7237 27.3264 29.904 27.8794C29.952 28.0261 29.9882 28.0995 30.0383 28.2462C30.0849 28.3823 30.1496 28.5339 30.1761 28.6482C29.975 28.5121 29.9325 28.3604 29.7655 28.2123C29.2686 27.7715 28.8043 27.4329 28.1139 27.2538C27.3818 27.0633 26.5348 27.093 25.7713 27.2037C25.5187 27.2404 25.2313 27.3271 25.019 27.3321C25.0434 27.6269 25.6669 28.5262 25.85 28.735C26.7011 29.7055 27.4813 30.0441 28.7835 30.2528C29.3535 30.3445 30.3389 30.3594 30.8637 30.2352C30.8985 30.3862 30.9639 30.4701 31.0293 30.609L31.591 31.7439C31.6961 31.928 32.3426 32.9917 32.3913 33.1779C31.806 32.864 31.3168 32.1248 29.9088 32.1326C28.9839 32.1375 28.51 32.2123 27.64 32.505C27.3971 32.5868 27.196 32.6982 26.967 32.7518C26.9983 33.1377 28.1731 34.1703 28.645 34.4573C29.5094 34.9821 29.9924 34.9525 30.9034 35.0343C31.1525 35.0569 32.218 34.92 32.4575 34.8714C32.6085 34.8403 32.7651 34.8072 32.921 34.7599C33.0442 34.7233 33.2341 34.652 33.3838 34.6485C33.7032 35.1316 34.0415 35.5591 34.3985 36.0204L34.9337 36.6784C35.0367 36.8117 35.0931 36.8597 35.1954 36.9937C35.2977 37.1277 35.3993 37.1905 35.4849 37.3196C35.1091 37.2307 34.269 36.3568 32.5041 36.6608C31.5221 36.8301 30.5227 37.3534 29.8309 37.8232C30.0299 38.1244 30.7544 38.6632 31.1045 38.8551C32.4755 39.607 33.3921 39.5886 34.9344 39.2014C35.4591 39.0702 36.215 38.7754 36.5922 38.5201C36.7599 38.6336 37.0306 38.9454 37.1935 39.1111C37.5394 39.4631 38.5395 40.3243 38.9494 40.6615C39.0134 40.7144 39.0594 40.756 39.1143 40.8046C38.5604 40.7581 37.7614 40.0118 35.8725 40.7327C35.3701 40.9245 33.8925 41.8161 33.5369 42.3535C33.6594 42.4368 33.7387 42.5038 33.8786 42.5884C34.0122 42.6695 34.1187 42.726 34.276 42.8057C35.5503 43.4503 36.6639 43.65 38.1163 43.1231C38.2395 43.0786 38.3905 43.0194 38.5311 42.9622C38.9473 42.7951 39.3391 42.5863 39.724 42.3521C40.7582 41.7223 40.0212 41.5833 41.743 42.7097L43.0876 43.554C42.4633 43.5399 41.9935 43.3756 41.283 43.5449C40.1499 43.815 39.1018 44.684 38.394 45.5727C38.2305 45.7779 38.0955 45.9042 37.9688 46.1482C38.3251 46.2322 38.6564 46.5242 39.8284 46.7026C40.5807 46.8169 41.4159 46.6921 41.9406 46.4572C42.883 46.0361 43.7495 45.493 44.4726 44.7651C44.8052 44.43 44.68 44.3595 45.124 44.5873C45.4775 44.7686 47.5703 45.5621 47.6329 45.6065C46.4644 45.6065 45.4678 45.9134 44.682 46.7196C44.3375 47.0729 44.0174 47.4101 43.7369 47.8135C43.5776 48.0442 43.0354 48.8356 43.011 49.1297C43.3576 49.1586 43.7035 49.2947 44.0452 49.3208C44.2686 49.3378 44.4044 49.3624 44.6145 49.3639C46.2821 49.3723 47.3636 48.6486 48.4451 47.5526C48.7284 47.2655 49.4445 46.4868 49.5433 46.1109C49.9595 46.1109 50.7195 46.3316 51.1322 46.436C52.3738 46.7513 53.5806 47.099 54.7491 47.6097C54.9433 47.695 55.2342 47.8467 55.4256 47.8918L54.3441 48.5379C53.63 48.9696 52.9264 49.4386 52.3014 49.9909C52.2075 50.0741 52.1671 50.0904 52.0732 50.1856C51.9702 50.2893 51.9263 50.309 51.8254 50.3993C51.6626 50.5446 51.5512 50.716 51.3765 50.8345C51.5032 51.0263 51.7113 51.1554 51.8818 51.3289L52.4079 51.8029C52.5367 51.7154 52.5388 51.6837 52.6313 51.5652C52.9376 51.1737 54.0142 50.3224 54.3998 50.0276C54.5995 49.8745 56.4389 48.6042 56.6992 48.5696C56.7946 48.557 56.892 48.6529 56.9915 48.7065C58.1851 49.3406 59.0105 49.9994 60.0419 50.8415C60.3259 51.0736 60.7992 51.4954 61.0024 51.8036C61.2912 51.6075 61.507 51.3381 61.7826 51.123C61.9016 51.0306 61.9551 50.9932 62.0338 50.874C61.8925 50.6038 61.6204 50.4346 61.4137 50.2251C60.7588 49.5606 59.1219 48.4815 58.3027 48.0738L58.023 47.8932C58.2429 47.841 58.4823 47.6986 58.6994 47.6111C59.8867 47.1322 61.0664 46.7548 62.3164 46.4374C62.5871 46.3683 62.8161 46.3133 63.0937 46.2576C63.2949 46.2174 63.6797 46.113 63.9059 46.113C64.0013 46.5263 64.7028 47.2119 64.9694 47.5519C65.1879 47.8312 66.0634 48.4857 66.3432 48.6762C66.7991 48.9858 67.4686 49.2969 68.1847 49.3258C68.8459 49.3533 69.2182 49.3857 69.9003 49.2461C70.0548 49.2143 70.2886 49.1452 70.4375 49.1325C70.4174 48.8835 69.855 48.0223 69.7117 47.8164C69.4291 47.4115 69.1138 47.0758 68.7665 46.7224C67.9669 45.907 66.9619 45.6101 65.7767 45.6101L67.9794 44.7453C68.1826 44.6494 68.4972 44.454 68.7178 44.4491C68.7575 44.5986 68.8744 44.6656 68.976 44.7686L69.6052 45.3308C70.1675 45.7977 70.8294 46.1913 71.5058 46.4628C72.6667 46.9283 73.9271 46.7626 75.0427 46.3302C75.1882 46.2738 75.3497 46.1835 75.4791 46.1532C75.1346 45.493 74.0774 44.5704 73.5311 44.1782C72.7711 43.6337 71.7689 43.3601 70.8015 43.5032C70.6637 43.5237 70.4737 43.5568 70.3603 43.559C70.4271 43.4666 70.567 43.4123 70.6818 43.3431L72.6444 42.0806C73.1699 41.7187 72.9061 41.8506 73.6988 42.3423C73.9668 42.5087 74.1707 42.6258 74.4588 42.7718C75.7366 43.4193 76.9636 43.6429 78.3193 43.1858C78.9353 42.9785 79.428 42.6844 79.9089 42.3578C79.5721 41.8485 78.0994 40.9591 77.6227 40.7644C76.7743 40.4188 76.1451 40.3419 75.1875 40.5542C74.9168 40.6142 74.6913 40.7468 74.408 40.7708L75.0142 40.2234C75.3413 39.9561 76.6574 38.7641 76.8147 38.5257C77.8419 39.0766 78.9673 39.4744 80.5596 39.4567C81.1756 39.4497 81.9098 39.1083 82.3135 38.8727C82.667 38.6661 83.4033 38.1476 83.6135 37.8288C82.9169 37.455 82.6823 37.1983 81.7275 36.8752C79.4294 36.0987 78.556 37.1644 77.9595 37.3252L78.3708 36.8512C78.4432 36.773 78.4418 36.7574 78.5065 36.6791L79.5588 35.3454C79.6514 35.2205 79.7259 35.1196 79.8205 34.9913C79.9082 34.8728 80.0223 34.7592 80.0606 34.6153C80.4072 34.7839 81.4108 35.0033 81.9328 35.0019C82.1722 35.0012 82.2369 35.0505 82.4673 35.0435C82.6684 35.0378 82.7575 35.0047 83.0032 35.0033C83.8279 34.9983 84.8516 34.554 85.4181 34.0052C85.6221 33.8077 85.8239 33.6723 86.0035 33.4374C86.1078 33.3013 86.1656 33.2583 86.2658 33.1228C86.4252 32.9063 86.4649 32.9232 86.4781 32.7575L85.8336 32.5198C84.7542 32.122 83.1994 31.9196 82.1353 32.4598C81.7177 32.6714 81.4157 32.938 81.0538 33.1835C81.0858 33.0438 82.4617 30.7642 82.5821 30.2416C82.8549 30.3742 84.2531 30.3199 84.6289 30.2641C85.8907 30.0772 86.7753 29.7168 87.5749 28.7589C87.8408 28.4401 88.035 28.1213 88.2375 27.7658C88.3071 27.6431 88.3892 27.5394 88.4268 27.3765C88.1484 27.2411 87.3627 27.1649 86.9367 27.1437C86.7648 27.1353 86.7495 27.0986 86.5553 27.1021L85.3632 27.2517C84.7027 27.4104 84.1557 27.7404 83.6991 28.1975L83.2704 28.6531L84.0123 26.3474C84.0923 26.0632 84.1605 25.798 84.2253 25.5179C84.9254 25.5179 85.6235 25.3896 86.1406 25.2132C87.6445 24.7012 88.5215 24.0974 89.1374 22.5986C89.2258 22.3827 89.4011 21.9638 89.4206 21.724C88.8492 21.724 88.2695 21.7028 87.7608 21.7839C86.5839 21.9722 85.613 22.4109 84.9665 23.4041L84.608 23.9309L84.8871 22.3164C84.9595 21.8065 85.0667 21.147 85.0667 20.563C85.4717 20.5538 86.4189 20.168 86.7349 20.0086C88.1255 19.3089 88.8952 18.5288 89.2842 16.9785L89.4596 16.0333C88.2793 16.0333 86.4906 16.7316 85.803 17.7085C85.6944 17.863 85.5622 18.0901 85.4738 18.265L85.265 18.7503C85.24 18.8081 85.2574 18.7778 85.2288 18.83C85.201 18.8808 85.208 18.8688 85.1822 18.8991L85.0952 16.3162C85.0646 16.0869 85.0291 15.7265 85.0291 15.4542C85.6423 15.1256 86.3869 14.8498 87.0258 14.2256C87.2221 14.0337 87.3849 13.8581 87.5791 13.6634C88.1296 13.1118 88.4386 12.1681 88.5034 11.3478C88.5368 10.9211 88.5054 10.7193 88.5054 10.3046C87.9208 10.318 86.6389 11.0614 86.087 11.5312C85.7272 11.838 85.5045 12.087 85.2831 12.5363C85.1384 12.8304 84.876 13.5774 84.876 13.9822H84.7994C84.7994 13.6514 84.5572 12.5052 84.4779 12.1399C84.4125 11.8394 84.3387 11.5354 84.2726 11.2646C84.1974 10.957 84.1028 10.6728 84.0353 10.3822C84.4542 10.1572 84.9004 9.80876 85.2483 9.48289L85.7432 8.93838C86.7781 7.6984 87.0063 6.59738 86.595 4.80724C86.1914 4.84109 84.8781 5.85536 84.5099 6.33287C83.8446 7.19479 83.6915 7.68711 83.6915 9.18172L83.0094 7.35702C82.8848 7.04103 82.7763 6.76524 82.635 6.45913C82.4923 6.15019 82.3893 5.86735 82.2404 5.58169C82.8542 5.16484 83.6929 3.92204 83.9928 3.17651C84.4424 2.05855 84.2803 0.816462 83.7687 -0.264109L82.8041 0.539266C82.1826 1.26294 81.7135 1.85965 81.5792 2.85981C81.4901 3.52353 81.6718 4.0483 81.7059 4.4588L80.2082 1.94993C80.0885 1.76796 79.7182 1.26929 79.6806 1.12892C79.744 1.0337 79.8191 0.946949 79.8936 0.841854C80.3954 0.139342 80.7712 -0.741619 80.9452 -1.61482C81.257 -3.17643 80.1866 -4.53349 80.1386 -4.71617C79.9402 -4.66257 79.4872 -3.98827 79.3744 -3.82604C79.1468 -3.50159 78.9464 -3.16797 78.7849 -2.75887C78.1864 -1.241 78.7975 -0.471478 78.8399 0.0455322L77.9526 -0.990602C77.8363 -1.1098 77.7382 -1.1888 77.6338 -1.32564C77.2622 -1.81373 76.988 -1.96326 76.672 -2.28701C76.5342 -2.42807 76.4945 -2.49296 76.3191 -2.58748C76.4388 -3.04242 77.1125 -3.70966 77.1223 -5.76289C77.1264 -6.74965 76.5056 -7.61086 75.9183 -8.29715C75.8243 -8.40718 75.9176 -8.37968 75.7464 -8.39378C75.7102 -8.25624 75.516 -7.97975 75.4422 -7.84997C74.9028 -6.9013 74.5402 -5.5527 74.9599 -4.49964C75.0455 -4.28592 75.1256 -4.11452 75.2237 -3.91562C75.3086 -3.74281 75.4805 -3.52134 75.5167 -3.36123C75.3817 -3.39791 74.8987 -3.85567 74.7692 -3.95865L73.6452 -4.83255C73.5088 -4.92989 73.401 -5.0244 73.2478 -5.12668C72.9653 -5.31571 72.7154 -5.5266 72.4224 -5.68389C72.5693 -6.32081 72.6918 -6.32292 72.7697 -7.26807C72.8609 -8.36839 72.7447 -9.52655 71.9742 -10.3391C71.7369 -10.5895 71.2685 -11.1679 70.9331 -11.2588C70.869 -10.9795 70.6582 -10.5563 70.5287 -9.96526C70.4104 -9.42427 70.3735 -8.98979 70.4389 -8.3966C70.5155 -7.69762 70.9031 -7.16791 71.2929 -6.66854L71.6972 -6.1875L69.5565 -7.38657C69.4228 -7.46415 69.2433 -7.52693 69.0867 -7.60734L68.1443 -8.04605C68.1534 -8.16173 68.1986 -8.34582 68.2105 -8.44316C68.3796 -9.8249 68.0935 -11.5628 66.9821 -12.4431C66.7385 -12.6364 66.0982 -13.128 65.8136 -13.195C65.7586 -13.0786 65.6813 -12.6568 65.6639 -12.4953C65.6368 -12.2435 65.6187 -11.907 65.5936 -11.6736C65.5588 -11.3456 65.705 -10.5324 65.8344 -10.1966C65.9242 -9.96527 66.0015 -9.82631 66.1261 -9.64011C66.4838 -9.10476 67.028 -8.73305 67.456 -8.35569L65.8943 -8.90162C65.5087 -9.02788 65.57 -9.14849 65.3083 -9.39183C64.3124 -10.3172 63.6282 -10.5958 62.2071 -10.2298C61.9085 -10.1529 61.651 -10.045 61.3824 -9.98149C61.461 -9.68384 62.3692 -9.0441 62.6824 -8.86071C63.2587 -8.52286 63.9324 -8.3296 64.6263 -8.47419C65.0049 -8.55319 65.1956 -8.6216 65.5282 -8.76126C65.8115 -8.87976 66.0175 -8.72952 66.4406 -8.56518L67.7393 -8.02348C67.8841 -7.96212 68.0288 -7.91416 68.143 -7.81329C67.3064 -7.81329 66.156 -8.21604 65.048 -7.46556C64.6812 -7.21729 64.352 -6.94644 64.0667 -6.60224C63.8941 -6.39416 63.3867 -5.74102 63.3297 -5.49133C63.7354 -5.45677 64.6144 -4.99619 65.8268 -5.36085C66.3877 -5.52942 67.2243 -6.08452 67.637 -6.50772C67.8493 -6.72496 68.4506 -7.34001 68.525 -7.62144C68.8027 -7.59817 70.805 -6.43719 71.3291 -6.08875C71.5052 -5.97167 72.1093 -5.60701 72.1921 -5.49204C72.0431 -5.50474 71.2685 -5.77347 70.6992 -5.83695C69.5996 -5.96109 68.8382 -5.59079 68.0226 -4.91719L67.5416 -4.47565C67.3892 -4.32048 67.2285 -4.15826 67.1122 -3.98192C67.5778 -3.87189 68.6315 -2.99234 70.2879 -3.55096C71.0187 -3.79712 71.6221 -4.16249 72.1983 -4.63435L72.7273 -5.14361L73.584 -4.50246C73.8742 -4.28098 75.3051 -3.09673 75.6204 -2.77227C75.7923 -2.59524 75.9391 -2.50495 76.0115 -2.39492C75.4116 -2.53669 73.9821 -3.91492 71.7494 -2.57196C71.4599 -2.39845 70.8224 -2.01545 70.6637 -1.77493C70.9943 -1.59789 71.1537 -1.35173 71.913 -1.02799C73.2583 -0.453844 74.6537 -0.848125 75.8716 -1.53089L76.5091 -1.93011C76.7966 -1.73473 77.9623 -0.396007 78.2887 0.0222559C78.4112 0.179545 78.4996 0.3058 78.6221 0.458153C78.7223 0.582996 79.2206 1.21145 79.2596 1.36027C78.7863 1.10635 78.4599 0.681744 77.5141 0.303684C77.2079 0.180957 77.0889 0.192946 76.7228 0.137931C76.0296 0.032836 74.7581 0.477902 74.1282 0.805177C73.9883 0.877826 73.9431 0.939189 73.7977 0.973045C73.8881 1.31584 75.3497 2.46976 76.3219 2.55722C77.6115 2.6736 78.8295 2.35832 79.6806 1.90197C79.7175 2.04022 79.8435 2.18058 79.9221 2.31529C80.2736 2.91835 81.5082 4.93914 81.6293 5.4639C81.0023 5.03859 80.3641 3.59971 77.8635 3.97001C77.4132 4.03701 76.7659 4.1802 76.4347 4.34101C76.4931 4.59564 77.0923 5.30238 77.2837 5.49353C78.295 6.50356 79.7795 6.73985 81.1944 6.53248L82.0497 6.35403C82.1235 6.49581 82.1764 6.63899 82.2348 6.7857C82.5431 7.56368 82.9948 8.70985 83.2175 9.50617C83.2628 9.6691 83.3365 9.84755 83.3484 9.99285C83.2523 9.92796 83.221 9.85531 83.157 9.7608C82.9774 9.497 82.5772 9.0082 82.3329 8.81494C82.0525 8.59276 81.9188 8.45099 81.5096 8.2944C80.7093 7.98829 79.6945 7.9093 78.8176 8.03414C78.6889 8.05248 78.5288 8.08704 78.4202 8.09621C78.4251 8.32967 78.794 8.96659 78.9241 9.17255C79.6653 10.3476 80.5408 10.7842 81.8861 11.0487C82.541 11.1771 82.857 11.1581 83.5697 11.1404C83.6518 11.1383 83.6595 11.0304 83.7583 11.5128C83.8091 11.7611 83.855 11.9226 83.9044 12.1773C83.9977 12.6548 84.0798 13.0526 84.1605 13.5435C84.2253 13.9378 84.3408 14.5352 84.3408 14.9866L84.251 14.8455C84.1195 14.593 84.0151 14.3172 83.8599 14.0803C83.537 13.5865 83.2377 13.1887 82.7213 12.8727C81.9571 12.4058 80.8951 12.1603 79.6806 12.1603C79.7593 13.1154 80.5325 14.464 81.2466 14.9866C82.0038 15.5403 83.4548 16.1476 84.4556 16.1476L84.5217 17.0871C84.5788 17.511 84.5475 19.6199 84.4556 20.0185C84.4508 20.01 84.4452 19.9867 84.4431 19.9924L84.3916 19.8513C84.1898 19.1989 84.0074 18.4738 83.5488 17.9568C83.0491 17.3925 82.5021 17.0349 81.7984 16.7492C81.2869 16.5419 80.797 16.4297 80.2534 16.3021C80.2534 17.3798 80.5325 18.4928 81.1811 19.2722C81.2681 19.3773 81.369 19.4641 81.4665 19.5642L82.072 20.0735C82.5278 20.3923 82.9753 20.6561 83.4903 20.8818C83.7416 20.9918 84.1 21.0631 84.3415 21.1808C84.3415 21.8834 84.0861 23.1523 83.9142 23.8449L83.6922 24.6652C83.6351 24.4176 83.6191 24.0861 83.5732 23.8181C83.301 22.2445 82.2056 21.3459 80.8659 20.6772C80.7267 20.6074 80.3133 20.4106 80.1393 20.4071C80.0878 21.0391 80.021 21.81 80.1769 22.4596C80.5207 23.8957 81.486 24.7943 82.6378 25.5793C82.832 25.7112 83.1618 25.9284 83.3866 25.9821C83.3289 26.1034 83.3059 26.2458 83.2579 26.394C82.9816 27.2474 82.7108 28.103 82.3545 28.9233C82.3225 28.9959 82.3093 29.027 82.2745 29.113L82.1645 29.3112C82.1645 27.9732 82.2731 27.2502 81.4553 26.1584C81.0426 25.6068 80.5116 25.1208 79.9562 24.735C79.8115 24.6349 79.5011 24.3943 79.3375 24.3556C79.3027 24.5086 79.2568 24.6074 79.2143 24.7731C79.1788 24.9128 79.142 25.0926 79.1106 25.2492C78.7759 26.9244 79.2345 27.9083 80.1281 29.1285C80.3223 29.3937 81.2236 30.4115 81.591 30.511C81.566 30.8129 80.0725 33.3436 79.872 33.4917C80.0384 32.7681 80.2123 31.7728 79.9625 30.961C79.7488 30.2648 79.3563 29.6688 78.9053 29.1285C78.6207 28.7879 78.2908 28.3992 77.9233 28.1495C77.7062 28.3111 77.3512 29.386 77.2656 29.7669C76.8606 31.5612 77.7138 33.0629 78.7418 34.4051C78.8323 34.5236 78.9179 34.6153 79.0313 34.6922C78.7216 35.1606 78.3381 35.5654 77.9999 36.0084C77.8384 36.22 77.6192 36.4224 77.4647 36.6277C77.4146 36.6947 76.9364 37.2166 76.8919 37.2469C76.942 37.0297 77.084 36.7603 77.1543 36.5451C77.2399 36.2842 77.3053 36.086 77.3561 35.782C77.544 34.6654 77.1153 33.6265 76.5933 32.7483C76.4305 32.4739 76.006 31.7834 75.7839 31.6332C75.6719 31.7164 75.3907 32.1474 75.2995 32.3032C74.8729 33.0297 74.4094 34.0257 74.534 34.9906C74.6641 36.0006 74.9091 36.8223 75.326 37.6722C75.4534 37.9325 75.6148 38.1554 75.7464 38.4072L74.5716 39.4624C74.3864 39.6415 73.4907 40.4082 73.3014 40.459C73.9146 39.5308 74.225 38.7535 74.1394 37.558C74.1025 37.0424 73.9104 36.4153 73.7643 36.0027C73.6035 35.5499 73.3641 35.1048 73.1483 34.6915C72.7704 34.8939 72.3006 35.5231 72.0473 35.899C71.755 36.3335 71.4516 36.9232 71.3305 37.534C71.0771 38.8149 71.5184 40.7249 71.9255 41.505C71.7397 41.5551 71.4063 41.8182 71.2379 41.9311C71.0201 42.0771 70.7723 42.2188 70.5482 42.355C70.2023 42.5651 69.4354 43.0518 69.0985 43.1315C69.2829 42.8522 69.6588 42.5391 69.9518 42.0601C70.6964 40.8427 70.5948 39.3213 70.2531 37.9741C70.2162 37.8274 70.1877 37.7315 70.1445 37.5813C70.1007 37.431 70.0457 37.3365 70.0158 37.2081C69.7757 37.3372 69.5356 37.51 69.3275 37.6722C69.102 37.8479 68.9127 38.0355 68.7074 38.2443C67.7713 39.193 67.3781 40.2707 67.3802 41.6997C67.3809 42.2936 67.3823 42.8318 67.4846 43.3756C67.5229 43.578 67.5716 43.676 67.5716 43.9067C67.3816 43.9229 66.4191 44.3546 66.1539 44.4442C65.7307 44.5873 65.0682 44.8765 64.6304 44.9132C64.7474 44.7517 65.0083 44.6177 65.1559 44.478C65.7189 43.949 66.1149 43.4955 66.3738 42.7309C66.5325 42.2626 66.6571 41.6532 66.655 41.0416C66.6543 40.7433 66.6759 40.3638 66.6529 40.076C66.6313 39.8094 66.5457 39.4328 66.5402 39.1838C66.1059 39.1937 65.0932 39.8757 64.7181 40.2016L64.1043 40.818C63.9693 40.9746 63.8802 41.1051 63.7681 41.2906C63.2371 42.1688 62.942 43.4602 62.9107 44.5246C62.8724 45.821 63.2831 44.9344 60.2236 45.9437C59.3898 46.2188 58.6236 46.4734 57.8204 46.7986C57.613 46.8825 56.8468 47.2718 56.6978 47.2535C56.5051 47.2302 55.7736 46.8585 55.5446 46.7654C54.7791 46.4529 53.9725 46.1743 53.1373 45.9148C52.7357 45.7899 52.2952 45.6792 51.872 45.5713C51.6911 45.5254 50.5991 45.3265 50.5351 45.2616L50.5358 44.7573C50.5386 43.6401 50.2275 42.2111 49.6791 41.2899C49.2149 40.5098 48.5078 40.002 47.7631 39.5541C47.5856 39.4476 47.1284 39.2021 46.9063 39.1838C46.8611 39.7368 46.7073 40.4322 46.7811 40.9753C46.82 41.2638 46.7936 41.4796 46.8618 41.9C46.9328 42.3366 47.0219 42.6674 47.1861 43.0427L47.3511 43.3791C47.7018 44.0329 48.2753 44.4378 48.8161 44.9139C48.356 44.8751 46.2876 44.1105 45.8366 43.8686C46.0573 43.4024 46.0642 42.2894 46.0656 41.7392C46.0691 40.0196 45.4351 38.6837 44.1343 37.6955C43.904 37.5206 43.6792 37.3429 43.43 37.2095C43.0173 38.0813 42.8336 39.6317 42.9693 40.6191C43.0855 41.4634 43.4029 42.0566 43.9165 42.6399C44.0118 42.7478 44.0404 42.805 44.1455 42.9108C44.2373 43.0032 44.3167 43.0688 44.3849 43.1717C44.0278 43.0878 42.6032 42.197 42.2302 41.9487C42.0492 41.8281 41.7124 41.5593 41.5196 41.5071C41.6247 41.3047 41.7653 40.9154 41.8335 40.6643C42.3088 38.9179 42.4209 37.4875 41.4048 35.9329C41.1807 35.5901 40.9155 35.2628 40.6315 34.9743C40.5223 34.8636 40.4193 34.7776 40.2968 34.6943C39.9077 35.2833 39.3781 36.6178 39.3071 37.5234C39.2556 38.1815 39.264 38.6435 39.4616 39.1795C39.5883 39.5223 40.0852 40.3835 40.1061 40.4625C39.5848 40.1085 38.7371 39.3897 38.2827 38.9426C38.0975 38.7606 37.847 38.5955 37.6994 38.3719C37.7753 38.257 37.8282 38.173 37.9068 38.0404L38.2973 37.2751C38.7406 36.3173 39.0601 35.0491 38.8227 33.9424C38.7531 33.6166 38.6453 33.3493 38.5346 33.0735C38.4128 32.7688 37.8734 31.794 37.6612 31.636C37.4802 31.7587 37.3661 31.9583 37.2408 32.1389C36.8365 32.7201 36.4725 33.338 36.2518 34.0405C35.9999 34.8417 35.9776 35.636 36.2623 36.4993C36.3451 36.7518 36.4613 36.9761 36.5156 37.2103C36.2832 37.0523 34.8411 35.2925 34.5509 34.9038L34.4145 34.7324C34.4855 34.6252 34.5655 34.5617 34.6595 34.439C35.2573 33.6603 35.3151 33.6582 35.7897 32.6813C36.6096 30.9956 36.304 29.5764 35.5601 28.151C35.4299 28.1862 35.1432 28.4761 35.0346 28.5861C34.2844 29.3493 33.3434 30.597 33.3427 31.7108C33.3427 32.0726 33.3448 32.3195 33.3887 32.6348L33.5348 33.4544L32.8542 32.402C32.6502 32.0585 31.8749 30.7713 31.8541 30.5124C32.0113 30.4701 32.5987 29.9312 32.7616 29.7676C33.6552 28.8669 34.4166 27.6847 34.4138 26.3319C34.4117 25.3078 34.315 25.2584 34.1083 24.3577C33.8271 24.424 32.6461 25.3571 32.438 25.6075C32.3816 25.6752 32.3969 25.6717 32.3398 25.7401C31.6787 26.5393 31.2444 27.0937 31.2423 28.383C31.2416 28.7625 31.282 28.9896 31.282 29.3521C31.2764 29.3444 31.2701 29.3218 31.2681 29.3274L31.1915 29.1723C31.1546 29.0905 31.149 29.0693 31.1129 28.9811C31.0516 28.833 30.9959 28.7053 30.9437 28.572C30.8289 28.2807 30.7384 28.0332 30.6271 27.7313L30.0599 25.9835L30.7837 25.5948L30.7864 25.5885Z" fill="white"/>
<path fill-rule="evenodd" clip-rule="evenodd" d="M7.10547 28.6872L9.62973 41.8078C9.65896 41.9538 9.7035 42.0998 9.7035 42.2755L12.9182 41.7775C13.4297 41.69 22.2113 40.4557 22.7681 40.4557V26.6347C22.7681 26.4534 22.2413 26.5867 21.8829 26.6276L16.8886 27.2187C15.2872 27.4042 12.5841 27.7879 10.9917 28.0559C10.3389 28.166 9.66313 28.2746 9.04373 28.3656L7.10686 28.6865L7.10547 28.6872Z" fill="white"/>
<path fill-rule="evenodd" clip-rule="evenodd" d="M88.8906 40.3015C88.8906 40.4623 89.3374 40.4644 89.62 40.4912C91.2826 40.6499 93.6907 41.0026 95.3199 41.2191L101.765 42.1593L102.366 38.7427C102.797 36.5047 103.154 34.1249 103.595 31.8967C103.708 31.3261 103.813 30.7922 103.95 30.2434C104.013 29.9909 104.078 29.7024 104.141 29.4309C104.193 29.2066 104.306 28.8045 104.324 28.5711L103.402 28.4223C103.084 28.3686 102.75 28.3108 102.447 28.2678L96.6959 27.4369C95.4382 27.2697 94.1326 27.0934 92.8298 26.9418L89.4049 26.5411C89.2609 26.5214 89.0124 26.4833 88.892 26.4805V40.3015H88.8906Z" fill="white"/>
<path fill-rule="evenodd" clip-rule="evenodd" d="M102.909 43.9791C102.786 43.9192 96.629 42.955 96.2908 42.9345C96.0918 42.9225 96.1203 42.9775 96.0959 43.1525C95.8231 45.0985 95.6707 44.8975 96.1913 44.9807L98.2924 45.3291C102.01 45.9562 105.554 46.6749 109.059 47.503C109.055 47.3436 108.982 47.1489 108.94 47.0043C108.894 46.8435 108.842 46.6523 108.796 46.4915C108.355 44.9567 107.817 43.0798 107.325 41.5944L106.869 40.1273C106.859 40.0081 107.03 39.8579 107.119 39.7697L108.323 38.4352C108.44 38.316 108.485 38.2285 108.609 38.1051C108.745 37.9683 108.793 37.9083 108.916 37.7588L111.056 35.4361C111.245 35.2062 111.793 34.7308 111.999 34.4183C110.851 34.1475 109.71 33.89 108.533 33.6347C108.26 33.5754 107.955 33.5014 107.654 33.4407C107.38 33.385 107.049 33.3251 106.766 33.2566L104.971 32.9082C104.79 33.6961 104.621 34.8324 104.452 35.6731C103.953 38.1559 103.536 40.7684 103.038 43.2611L102.908 43.9805L102.909 43.9791Z" fill="white"/>
<path fill-rule="evenodd" clip-rule="evenodd" d="M0 34.4169C0.0501093 34.6066 0.619407 35.0722 0.790614 35.2802C1.14068 35.7041 2.37045 36.9441 2.58133 37.2206C2.69755 37.373 2.76715 37.4308 2.89451 37.5613L4.80423 39.6907C5.31368 40.2091 5.10141 40.0701 4.85156 40.9977L2.90356 47.5015C3.0344 47.4903 3.14645 47.4501 3.28216 47.4211C3.41439 47.3929 3.50626 47.3696 3.65798 47.3372C6.04305 46.8272 8.26734 46.2989 10.7123 45.8532C11.0672 45.7883 15.3161 45.0301 15.5854 45.0237C15.5854 44.7042 15.4142 43.7753 15.3509 43.3641C15.3007 43.0403 15.385 42.9909 15.085 43.0389C14.3382 43.1581 13.6235 43.2597 12.8795 43.3655L8.51859 44.056C8.41837 43.6187 8.34599 43.1214 8.26108 42.6912C7.67438 39.7309 7.15868 36.7106 6.57407 33.7546C6.52883 33.5247 6.45645 33.2771 6.45645 33.0225C6.21495 33.0225 5.13273 33.2799 4.82372 33.342L0.000695963 34.4162L0 34.4169Z" fill="white"/>
<path fill-rule="evenodd" clip-rule="evenodd" d="M41.1793 33.1003C41.1793 34.1138 41.1153 34.6104 42.3255 34.6104H44.9229V35.7721C44.9229 35.8609 44.8964 35.8884 44.808 35.8884H41.8669C41.6324 35.8884 41.7138 35.4229 41.7138 35.1916C41.4806 35.2113 41.2593 35.327 41.0262 35.3467C41.0262 35.7206 41.0074 35.9745 41.1542 36.2235C41.292 36.4569 41.5488 36.5472 41.8286 36.5472H44.7698C45.6216 36.5472 45.6105 35.8715 45.6105 35.1535C45.6105 34.281 45.4511 33.9149 44.5791 33.9149H41.8669V32.7144H44.8846V33.3337C45.092 33.3295 45.337 33.2251 45.5339 33.1786C45.5339 32.3505 45.3954 32.0557 44.3877 32.0557H42.3248C41.4897 32.0557 41.1786 32.2489 41.1786 33.101L41.1793 33.1003Z" fill="white"/>
<path fill-rule="evenodd" clip-rule="evenodd" d="M67.6502 35.9653H64.8614V33.4487H67.8026V35.8101C67.8026 35.9004 67.7392 35.9653 67.6495 35.9653H67.6502ZM64.1738 33.5262V35.8489C64.1738 36.313 64.4035 36.5458 64.8614 36.5458H67.8026C68.4032 36.5458 68.5285 36.1769 68.5285 35.5781V33.8359C68.5285 33.1425 68.3364 32.8682 67.6502 32.8682H65.0146C64.5253 32.8682 64.1745 33.0339 64.1745 33.5262H64.1738Z" fill="white"/>
<path fill-rule="evenodd" clip-rule="evenodd" d="M61.9986 35.9265C61.6095 36.0182 59.608 35.9653 59.0574 35.9653V33.4487H61.9227C62.0104 33.4487 62.0376 33.4762 62.0376 33.565C62.0376 33.8965 62.0765 35.7509 61.9993 35.9265H61.9986ZM58.3691 33.6426V35.7332C58.3691 35.9674 58.4116 36.1832 58.5139 36.3222C58.6134 36.4569 58.7999 36.5458 59.0185 36.5458H62.0744C62.2756 36.5458 62.4872 36.4414 62.5797 36.3222C62.6813 36.1903 62.7238 35.9596 62.7238 35.7332V33.6426C62.7238 33.0692 62.4203 32.8682 61.8838 32.8682H59.2099C58.6524 32.8682 58.3691 33.0769 58.3691 33.6426Z" fill="white"/>
<path fill-rule="evenodd" clip-rule="evenodd" d="M47.3672 33.6426V35.7332C47.3672 36.1882 47.5238 36.5458 48.0165 36.5458H50.5763C51.3509 36.5458 51.2256 35.7368 51.2256 35.2296C51.0092 35.2113 50.7711 35.1189 50.538 35.1132C50.538 35.6352 50.6146 35.9653 50.4232 35.9653H48.2072C48.0527 35.9653 48.0541 35.6465 48.0541 35.4236V33.8747C48.0541 33.6596 48.0924 33.6454 48.0924 33.4487H50.5373V34.2231C50.6981 34.2231 50.7482 34.1991 50.9089 34.1737C51.2708 34.118 51.2249 34.2365 51.2249 33.6038C51.2249 33.0544 50.9236 32.8682 50.3849 32.8682H48.2072C47.6497 32.8682 47.3672 33.0769 47.3672 33.6426Z" fill="white"/>
<path fill-rule="evenodd" clip-rule="evenodd" d="M52.6387 36.546H53.3263V34.9203H56.0385C56.1261 34.9203 56.1533 34.9471 56.1533 35.0366V36.5468H56.8409V32.8691H56.1533V34.1853C56.1533 34.2756 56.09 34.3405 56.0002 34.3405H53.3263V32.8691H52.6387V36.5468V36.546Z" fill="white"/>
<path fill-rule="evenodd" clip-rule="evenodd" d="M70.0195 33.4487V35.8877C70.0195 36.1677 70.0578 36.2756 70.0578 36.5458H73.4959V35.9653H70.7454V32.8682H70.0578C70.0578 33.1136 70.0195 33.1912 70.0195 33.4487Z" fill="white"/>
<path fill-rule="evenodd" clip-rule="evenodd" d="M64.3648 43.7852H65.6635V45.1014H64.3648V43.7852ZM64.0593 43.824V45.0626C64.0593 45.2495 64.1804 45.3722 64.3648 45.3722H65.6635C66.1026 45.3722 65.969 44.6528 65.969 43.9397C65.969 43.6879 65.8723 43.5137 65.6252 43.5137H64.4407C64.2131 43.5137 64.0586 43.5927 64.0586 43.8233L64.0593 43.824Z" fill="white"/>
<path fill-rule="evenodd" clip-rule="evenodd" d="M59.1715 43.7855H60.4701V45.1016H59.1715V43.7855ZM58.8659 43.9019V45.0628C58.8659 45.2498 58.987 45.3725 59.1715 45.3725H60.4701C60.6546 45.3725 60.7757 45.2498 60.7757 45.0628V43.9019C60.7757 43.6247 60.6664 43.5146 60.3936 43.5146H59.2473C58.9738 43.5146 58.8652 43.6254 58.8652 43.9019H58.8659Z" fill="white"/>
<path fill-rule="evenodd" clip-rule="evenodd" d="M61.6539 43.7849C61.6539 44.1439 61.6045 44.1806 61.9594 44.2109V43.7849H62.9526V44.1721C62.8217 44.2031 61.9643 44.7759 61.7458 44.9233C61.5892 45.0291 61.5391 45.1257 61.5391 45.3719H63.0674C63.3263 45.3719 63.3729 45.1814 63.3729 44.9458C63.3729 44.802 63.1913 44.8125 63.0674 44.7526V45.101H61.9594C62.0179 45.0495 61.9747 45.0855 62.0485 45.0368L63.0764 44.3752C63.3966 44.1636 63.4279 43.514 62.9143 43.514C62.2858 43.514 61.6539 43.392 61.6539 43.7849Z" fill="white"/>
<path fill-rule="evenodd" clip-rule="evenodd" d="M56.4594 43.746C56.4594 44.1481 56.4065 44.1805 56.7649 44.2109V43.7848H57.7963C57.7963 44.2292 57.8283 44.0952 57.4602 44.3343L56.673 44.8534C56.3891 45.0417 56.3828 45.0135 56.3828 45.3726H57.9487C58.1464 45.3726 58.1777 45.1102 58.1777 44.9465C58.1777 44.8026 57.9954 44.8132 57.8722 44.7533V45.1017H56.8025C56.8811 44.9924 57.0161 44.9416 57.1386 44.8619C57.2757 44.773 57.3641 44.7124 57.5117 44.6207C57.9571 44.3442 58.1004 44.3089 58.1004 43.9012C58.1004 43.3779 57.6321 43.514 56.7635 43.514C56.6236 43.514 56.458 43.6205 56.458 43.746H56.4594Z" fill="white"/>
<path fill-rule="evenodd" clip-rule="evenodd" d="M47.3281 45.3728H49.0472V45.1019H47.6337V44.5602C48.6129 44.5602 48.5127 44.6364 48.5127 44.2894H47.6337V43.7865H49.0472V43.5156H47.3281V45.3742V45.3728Z" fill="white"/>
<path fill-rule="evenodd" clip-rule="evenodd" d="M49.6586 44.1336C49.6586 44.8333 49.573 44.7141 50.9573 44.7141V45.1401H49.8876C49.8876 44.8347 49.9036 45.0181 49.8493 44.9081C49.7706 44.9264 49.582 44.9426 49.582 45.0244C49.582 45.1747 49.6697 45.3729 49.811 45.3729H50.9573C51.2746 45.3729 51.2245 45.028 51.2245 44.7924C51.2245 44.3508 50.7408 44.4827 49.9258 44.4827V44.0955H50.919V44.2888C51.0672 44.2761 51.0185 44.2542 51.1862 44.25C51.1862 43.7534 51.15 43.8628 49.9258 43.8628C49.7477 43.8628 49.6586 43.953 49.6586 44.1336Z" fill="white"/>
<path fill-rule="evenodd" clip-rule="evenodd" d="M51.5684 43.979C51.5684 44.1638 51.8238 44.0953 52.2943 44.0953V45.3727H52.5615V44.0953C53.3514 44.0953 53.2874 44.1567 53.2874 43.8633H51.5684V43.9797V43.979Z" fill="white"/>
<path fill-rule="evenodd" clip-rule="evenodd" d="M53.7852 45.3726C54.2508 45.3726 54.2055 45.4185 54.2055 45.1018C54.2055 44.9438 54.0858 44.9854 53.7852 44.9854V45.3726Z" fill="white"/>
<path fill-rule="evenodd" clip-rule="evenodd" d="M46.7614 19.1895H47.0363H47.9557H48.1777V25.012L52.1809 19.1895H52.5414H53.3759H53.6828V28.5619H52.5414V20.4033L48.1777 26.7499L47.0363 28.4096V26.6716V20.5275L41.5055 28.5711H40.3105L46.7614 19.1895Z" fill="white"/>
<path fill-rule="evenodd" clip-rule="evenodd" d="M54.8262 19.1895H55.9675H60.128V20.3356H55.9675V23.2557H58.4069V24.4026H55.9675V27.4158H60.128V28.5619H55.9675H54.8262V27.4158V24.4026V23.2557V20.3356V19.1895Z" fill="white"/>
<path fill-rule="evenodd" clip-rule="evenodd" d="M68.877 19.1895H70.0183V28.5619H68.877V19.1895Z" fill="white"/>
<path fill-rule="evenodd" clip-rule="evenodd" d="M73.1059 19.1895H74.2473H76.4006V20.3462H74.2473V28.5619H73.1059V20.3462H71.1523V19.1895H73.1059Z" fill="white"/>
<path fill-rule="evenodd" clip-rule="evenodd" d="M61.2585 19.1895H62.3999H65.0668V19.1909C65.151 19.1937 65.2352 19.2 65.3201 19.2113C66.8624 19.4067 67.9084 20.8766 67.6572 22.4939C67.4421 23.8792 66.3453 24.9231 65.0661 25.0726C65.0258 25.0776 64.9854 25.0811 64.945 25.0839L67.7532 28.5711H66.2527L62.8745 24.3765H64.375H64.7112C64.7759 24.3807 64.8399 24.38 64.904 24.3765C65.7503 24.3243 66.4922 23.5872 66.6327 22.5962C66.7907 21.4853 66.1337 20.476 65.165 20.342C65.1322 20.3377 65.0988 20.3342 65.0661 20.3314V20.3363H62.3992V28.5626H61.2578V19.1902L61.2585 19.1895Z" fill="white"/>
<path fill-rule="evenodd" clip-rule="evenodd" d="M38.7101 28.571H33.7812L45.0927 19.2246L38.7101 28.571Z" fill="white"/>
</g>
<defs>
<clipPath id="clip0_940_378">
<rect width="112" height="65" fill="white"/>
</clipPath>
</defs>
</svg>
