<svg width="128" height="40" viewBox="0 0 128 40" fill="none" xmlns="http://www.w3.org/2000/svg">
<path d="M86.5112 28.5379C86.5082 28.1756 86.7215 27.7286 86.2774 27.4423C86.2511 27.6059 86.2278 27.7695 86.2015 27.9332C85.9473 27.8338 85.7545 27.6673 85.6376 27.4189C85.4681 27.4803 85.3016 27.5417 85.1322 27.6059C85.0854 27.6147 85.0299 27.6264 84.9744 27.6498C84.9598 27.6556 84.9452 27.6644 84.9306 27.6702C84.7144 27.7754 84.4397 27.6877 84.2089 27.6877C69.8054 27.752 55.0776 27.6907 40.4462 27.6614H40.0051C26.5423 27.641 13.1614 27.6468 0.195273 27.8017C0.183587 31.3777 0.192356 34.9567 0.171905 38.5327C0.168983 39.0937 0.382258 39.155 0.890617 39.1521C28.9994 39.1287 57.1081 39.1171 85.2198 39.1638C86.257 39.1667 86.5725 38.9008 86.5491 37.8462C86.4761 34.7434 86.5316 31.6407 86.5112 28.5379ZM8.91918 30.6356C8.05439 30.621 8.14204 31.1411 8.14788 31.7166C8.16249 33.1687 8.12159 34.6207 8.14496 36.0727C8.15373 36.6688 7.89078 36.8061 7.35613 36.8031C6.77473 36.8002 6.71337 36.473 6.71922 36.0289C6.73382 35.2313 6.7163 34.4191 6.72506 33.6303C6.72506 32.9758 6.72798 32.3214 6.72506 31.667C6.72214 31.1352 6.85653 30.5421 5.94207 30.6298C5.48046 30.6736 5.55642 30.2062 5.55057 29.8877C5.54181 29.5137 5.65283 29.245 6.09692 29.2479C7.00261 29.2566 7.91123 29.2566 8.81985 29.2566C9.18797 29.2537 9.35158 29.4436 9.33698 29.7971C9.32237 30.1419 9.45092 30.6444 8.91918 30.6356ZM15.6681 36.7505C15.2415 36.8382 14.6806 36.9317 14.4907 36.286C14.3242 35.728 14.1722 35.167 14.0086 34.609C13.9414 34.3811 13.9969 34.0042 13.6551 34.0276C13.2753 34.0539 13.4389 34.4162 13.4301 34.6441C13.4185 34.9713 13.4594 35.3014 13.436 35.6287C13.398 36.1166 13.696 36.7885 12.7582 36.8031C11.8642 36.8178 12.0132 36.2159 12.0132 35.6812C12.0073 34.7697 12.019 33.8465 12.0073 32.9437C12.0073 31.9942 12.0336 31.0476 11.9986 30.0981C11.9781 29.5225 12.095 29.1982 12.7728 29.2479C13.7749 29.3209 14.8939 29.0726 15.5337 30.136C16.1823 31.2141 16.0479 32.3009 15.2941 33.3031C15.0575 33.6157 15.1334 33.8874 15.2649 34.2146C15.484 34.7551 15.6652 35.3102 15.8288 35.8712C15.9194 36.1808 16.2495 36.6337 15.6681 36.7505ZM22.3527 36.7739C21.821 36.8353 21.4646 36.7184 21.4733 36.1049C21.4792 35.652 21.3126 35.3453 20.7751 35.3307C20.664 35.3307 20.5735 35.3453 20.5004 35.3716C20.4478 35.3891 20.4069 35.4095 20.369 35.4329C20.3047 35.4738 20.2609 35.5264 20.2258 35.5878C20.2083 35.617 20.1937 35.6491 20.182 35.6812C20.1586 35.7426 20.144 35.8127 20.1294 35.8828C20.1235 35.9237 20.1177 35.9646 20.1118 36.0085C20.0826 36.2364 20.0593 36.473 19.9103 36.6308C19.8927 36.6483 19.8781 36.6629 19.8606 36.6775C19.7057 36.7973 19.4399 36.8528 18.9724 36.7768C18.2975 36.7038 18.5839 36.1954 18.6452 35.8478C19.0046 33.8465 19.4077 31.851 19.7525 29.8439C19.8489 29.2888 20.1703 29.2099 20.5998 29.2596C21.0175 29.3063 21.5756 29.0112 21.7158 29.765C22.1102 31.8715 22.5455 33.9721 22.9546 36.0757C23.051 36.5665 22.9137 36.882 22.3527 36.7739ZM29.4756 35.2576C29.4055 36.5139 27.0799 37.4459 26.0661 36.6892C25.8177 36.5022 25.8674 36.2393 25.8674 35.988C25.8586 35.0064 25.8733 34.0072 25.8616 33.0343C25.8616 32.0117 25.8762 30.9891 25.8557 29.9666C25.844 29.4641 26.0106 29.2157 26.5452 29.2508C27.0536 29.2829 27.5678 29.2479 28.0761 29.2888C28.9818 29.356 29.4873 29.8702 29.5019 30.7729C29.5253 32.2688 29.5632 33.7676 29.4756 35.2576ZM34.232 31.518C34.2349 31.7604 34.2787 31.927 34.3518 32.0409C34.3664 32.0643 34.381 32.0847 34.3956 32.1052C34.5446 32.2776 34.7754 32.2893 35.015 32.2776C35.1786 32.2659 35.3451 32.2484 35.4912 32.2659C35.4912 32.2659 35.4941 32.2659 35.497 32.2659C35.535 32.2688 35.5759 32.2747 35.6139 32.2863C35.6168 32.2863 35.6168 32.2863 35.6168 32.2863C35.6548 32.2951 35.6898 32.3068 35.7249 32.3243L35.7278 32.3272C35.7629 32.3419 35.7921 32.3623 35.8213 32.3857C35.8505 32.412 35.8798 32.4412 35.9031 32.4792C35.9148 32.4967 35.9265 32.5171 35.9382 32.5376C35.9499 32.5581 35.9586 32.5814 35.9674 32.6077C35.9879 32.6545 35.9995 32.707 36.0083 32.7684C36.0112 32.783 36.0141 32.7976 36.0141 32.8122C36.02 32.8268 36.02 32.8444 36.02 32.8619C36.0258 32.8999 36.0288 32.9408 36.0288 32.9846C36.0404 33.8202 35.462 33.6303 35.0529 33.5835C34.1531 33.4871 34.2933 34.1036 34.2232 34.6295C34.1326 35.3073 34.4832 35.4271 35.0559 35.4154C35.5876 35.4066 36.3268 35.167 36.2362 36.1692C36.2303 36.2422 36.242 36.3386 36.2011 36.3824C35.3685 37.2794 34.3079 36.6162 33.3613 36.771C32.7419 36.8733 32.815 36.3503 32.815 35.953V33.0021C32.8121 31.9825 32.8325 30.9629 32.8062 29.9432C32.7916 29.4261 32.9728 29.2216 33.4986 29.2449C34.1881 29.2742 34.8835 29.2712 35.573 29.2449C36.1252 29.2216 36.2479 29.5108 36.2596 29.9841C36.2742 30.5042 36.0521 30.6736 35.5438 30.697C34.9916 30.7262 34.1268 30.3084 34.232 31.518ZM45.9827 36.7856C43.1838 36.7652 43.7301 37.0486 43.6775 34.46C43.66 33.9546 43.6863 33.4258 43.6687 32.9291C43.6687 31.9796 43.6658 31.0301 43.6717 30.0805C43.6746 29.7621 43.6074 29.3151 44.0427 29.2888C44.9513 29.2333 45.8687 29.2274 46.7744 29.3034C47.201 29.3384 47.0841 29.8117 47.0899 30.1214C47.1045 30.6473 46.7101 30.6356 46.3391 30.6882C45.9155 30.7525 45.3458 30.3931 45.1149 31.0476C44.8462 31.8043 45.1705 32.2571 46.0177 32.2688C46.5115 32.2776 46.8708 32.3039 46.8767 32.9437C46.8825 33.6098 46.4823 33.6507 46.0148 33.5952C45.2932 33.5076 45.0886 33.7822 45.077 34.5097C45.0653 35.2693 45.3282 35.4563 46.0206 35.4241C46.4618 35.4037 47.0929 35.1437 47.1075 36.0435C47.1221 36.958 46.5027 36.7885 45.9827 36.7856ZM53.76 36.7564C53.2867 36.8178 52.6907 36.9755 52.4365 36.3269C52.2641 35.8916 52.156 35.43 52.0012 34.9275C51.4285 35.1729 51.5542 35.7426 51.3789 36.1282C51.1919 36.5343 51.0253 36.7798 50.5287 36.8002C49.7223 36.8324 49.3863 36.6308 49.8596 35.8244C50.9465 33.9692 51.2269 32.111 50.0086 30.2032C49.8626 29.9724 49.4214 29.4641 49.959 29.3121C50.4264 29.1778 51.1422 28.947 51.4548 29.7445C51.5804 30.0718 51.5103 30.4808 51.9661 30.8285C52.3313 30.1127 52.1531 28.9762 53.4707 29.2362C53.9586 29.3326 54.2011 29.4407 53.9031 29.8906C52.5329 31.9474 52.7286 33.9692 53.9528 36.0026C54.1135 36.2714 54.2888 36.6892 53.76 36.7564ZM60.6696 32.6808C60.468 33.4287 59.9479 33.9371 59.2175 33.9633C58.3878 33.9926 58.3673 34.425 58.4053 35.021C58.4258 35.3453 58.3966 35.6754 58.4228 35.9997C58.4608 36.5402 58.2738 36.8031 57.6837 36.8002C57.0731 36.7973 56.9591 36.4642 56.965 35.9646C56.9767 34.9479 56.9591 33.9166 56.9708 32.9116C56.9708 31.9299 56.9679 30.9482 56.9708 29.9666C56.9737 29.6306 56.9796 29.2625 57.4441 29.2625C58.4141 29.2683 59.4805 29.0171 60.2459 29.8059C61.0348 30.6181 60.9442 31.6611 60.6696 32.6808ZM67.4068 35.0706C67.3659 36.248 66.6647 36.8645 65.499 36.8499C65.1776 36.847 64.9088 36.8031 64.6897 36.7213C64.64 36.7038 64.5933 36.6863 64.5465 36.6629C64.491 36.6366 64.4384 36.6103 64.3917 36.5782C64.3186 36.5314 64.2544 36.4788 64.193 36.4233C63.9827 36.2247 63.8541 35.9676 63.7752 35.6754C63.7577 35.6111 63.7431 35.5469 63.7285 35.4797C63.7226 35.4446 63.7168 35.4095 63.711 35.3716C63.6993 35.2985 63.6905 35.2225 63.6817 35.1437C63.6438 34.7522 63.6554 34.3256 63.6642 33.9078C63.6701 33.6157 63.6788 33.3235 63.67 33.0489C63.6963 32.2367 63.5766 31.2901 63.7285 30.5392C63.7431 30.4691 63.7577 30.4048 63.7752 30.3405C63.8132 30.212 63.86 30.0893 63.9184 29.9783C63.9505 29.9198 63.9827 29.8673 64.0177 29.8147C64.0557 29.765 64.0937 29.7153 64.1375 29.6686C64.4209 29.3647 64.8679 29.1836 65.5632 29.1865C66.6676 29.1807 67.3776 29.803 67.4097 30.9103C67.4506 32.298 67.4506 33.6858 67.4068 35.0706ZM74.3602 36.7418C73.8898 36.9083 73.2558 36.9755 72.9929 36.248C72.7299 35.5206 72.6861 34.7142 72.1281 33.8085C71.8447 34.7025 71.982 35.3569 71.982 35.9939C71.9849 36.5373 71.8213 36.809 71.2341 36.7915C70.7286 36.7768 70.5241 36.5869 70.5271 36.0698C70.5417 34.0276 70.5417 31.9883 70.5241 29.9491C70.5183 29.4349 70.7082 29.2128 71.2282 29.2479C71.5905 29.2771 71.9586 29.2391 72.3209 29.2654C74.0125 29.391 75.0614 30.9044 74.2141 32.4529C73.5013 33.753 74.0096 34.7171 74.3105 35.8361C74.3894 36.1282 74.8949 36.5519 74.3602 36.7418ZM80.1596 30.6707C79.4672 30.6853 79.584 31.1966 79.5811 31.6114C79.5694 33.0664 79.5694 34.5214 79.5899 35.9763C79.5957 36.4964 79.473 36.7915 78.8712 36.8061C78.2518 36.8207 78.0122 36.584 78.0327 35.9822C78.059 35.2196 78.0297 34.4425 78.0414 33.6887C78.0414 33.0723 78.0473 32.4529 78.0385 31.8335C78.0297 31.2755 78.2021 30.6532 77.2555 30.6093C76.7618 30.586 76.9692 30.0309 76.9546 29.6978C76.9341 29.3034 77.2088 29.245 77.5389 29.2479C78.3394 29.2596 79.1399 29.2654 79.9405 29.2449C80.3524 29.2333 80.6767 29.2829 80.6679 29.7971C80.665 30.1828 80.7877 30.659 80.1596 30.6707Z" fill="white"/>
<path d="M118.796 1.60417C121.499 1.60417 124.198 1.63631 126.901 1.58664C127.716 1.57204 127.955 1.77947 127.915 2.62673C127.377 20.7115 112.734 36.1054 94.9852 38.5566C93.5448 38.7933 92.0899 38.9394 90.6262 38.9364C90.2989 38.9364 89.8607 39.1906 89.7818 38.5858C89.7205 38.1067 89.8169 37.7882 90.3603 37.5896C92.7326 36.7189 94.9355 35.5211 97.0478 34.1275C106.859 27.6474 112.272 14.579 109.888 3.05913C109.587 1.60125 109.587 1.60417 111.022 1.60417C113.61 1.60417 116.205 1.60125 118.796 1.60417Z" fill="white"/>
<path d="M89.8045 1.79664C90.7073 1.49864 91.2916 1.6155 91.8613 1.6155C96.1999 1.60381 100.541 1.63888 104.88 1.58044C105.85 1.56876 106.271 1.83462 106.49 2.79875C109.701 15.5603 103.13 29.5548 91.2039 35.1468C90.7891 35.3513 90.1609 35.9706 89.9038 35.509C89.5708 34.9101 89.5678 34.1067 90.345 33.4814C100.056 25.4938 99.9542 9.40742 89.8045 1.79664Z" fill="white"/>
<path d="M102.625 39.0355C113.768 35.4653 122.171 28.655 127.806 18.3359C128.116 18.8355 127.961 19.2767 127.961 19.6799C127.976 25.7685 127.973 31.8542 127.967 37.9428C127.967 38.457 128.154 39.0501 127.231 39.0472C119.03 39.0267 110.829 39.0355 102.625 39.0355Z" fill="white"/>
<path d="M11.8536 17.138C11.6403 15.128 11.316 13.188 8.89399 12.3291C10.0714 11.5695 10.9917 10.7923 11.3364 9.57984C11.9996 7.25133 11.8682 4.95203 10.8748 2.74329C10.2905 1.4461 9.25334 0.622212 7.84221 0.294992C5.57212 -0.233818 3.26698 0.14891 0.982283 0.00575172C0.225587 -0.0409939 -0.0139845 0.189814 0.000623551 0.969882C0.0619772 8.98969 -0.00814358 17.0124 0.0210725 25.0322C0.0210725 25.5055 -0.177594 26.1015 0.690122 26.0869C4.57293 25.9963 10.0451 26.8816 11.4241 22.1135C11.9237 20.495 12.0347 18.8238 11.8536 17.138ZM3.75196 2.71116C3.94479 2.717 4.14054 2.72284 4.33336 2.72576C4.52619 2.72869 4.71901 2.73453 4.90891 2.74329C4.97027 2.74621 5.03455 2.74914 5.0959 2.75206C5.22153 2.7579 5.34716 2.76374 5.46987 2.77543C5.53122 2.78127 5.59257 2.78712 5.651 2.79296C5.71236 2.7988 5.77079 2.80465 5.83214 2.81341C5.89057 2.82218 5.95193 2.82802 6.01036 2.83679C6.2996 2.88061 6.58007 2.94781 6.8401 3.0413C6.85762 3.04714 6.87223 3.05298 6.88684 3.05883C6.96572 3.08804 7.04461 3.1231 7.11765 3.15816C7.3134 3.25165 7.50038 3.3656 7.66983 3.50876C7.69613 3.52921 7.7195 3.54965 7.74287 3.57303C7.92986 3.73956 8.09931 3.94699 8.24539 4.19533C8.26584 4.23331 8.28629 4.2713 8.30967 4.3122C8.33596 4.36186 8.36225 4.41445 8.38855 4.46996C8.46743 4.63942 8.53755 4.82932 8.5989 5.03967C8.95242 6.2872 8.9641 7.55518 8.56676 8.79978C8.11976 10.2022 7.07674 10.9238 5.4202 11.0377C3.00987 11.2013 3.00987 11.2013 3.00987 8.80562V6.8423C3.00987 5.71456 3.03909 4.58683 2.99819 3.46201C2.98066 2.88061 3.18809 2.67025 3.75196 2.71116ZM7.70197 22.6453C7.60556 22.73 7.49746 22.8059 7.38644 22.8761C6.93651 23.1595 6.37556 23.326 5.6773 23.3406C3.0128 23.4575 3.01279 23.4575 3.00987 20.8309V18.4235C3.00695 17.0738 3.03325 15.724 2.99527 14.3742C2.98066 13.8162 3.12382 13.5561 3.71982 13.6146C5.63932 13.5737 7.12349 13.6964 8.03503 14.5612C8.1256 14.6459 8.21033 14.7394 8.29213 14.8417C8.4499 15.0432 8.58429 15.277 8.69532 15.5487C8.75083 15.6831 8.79757 15.8262 8.8414 15.9811C8.96995 16.4427 9.04006 16.989 9.05175 17.6405C9.14816 19.4315 8.97287 21.5672 7.70197 22.6453Z" fill="white"/>
<path d="M24.6888 11.716C24.6801 10.4802 24.2944 9.3349 23.3478 8.47011C21.3056 6.60612 16.8239 7.00638 15.103 9.18882C13.838 10.7957 13.9549 11.1229 15.8685 11.7248C16.5843 11.9497 16.9933 11.9936 17.379 11.158C17.8114 10.2289 19.1465 9.90753 20.2889 10.2114C21.3524 10.4948 21.6767 11.3011 21.7205 12.2828C21.7497 12.8642 21.7059 13.4514 21.7555 14.0328C21.8081 14.6814 21.6036 14.9385 20.9053 14.9181C18.0246 14.8976 15.3718 14.8275 14.2529 17.9828C13.1426 20.9687 13.7182 26.2335 17.7705 26.2481C19.2576 26.2977 20.5226 25.7923 21.7409 24.5009C21.4634 26.1283 22.2873 26.2072 23.2864 26.0845C23.9467 25.9734 24.7794 26.4146 24.7385 25.3833C24.7151 20.8285 24.7268 16.2708 24.6888 11.716ZM21.7643 19.4992C21.7643 19.6423 21.7614 19.7855 21.7585 19.9286C21.7555 20.0075 21.7526 20.0893 21.7497 20.1682C21.7468 20.2471 21.7409 20.326 21.7351 20.4049C21.7292 20.5013 21.7234 20.5948 21.7117 20.6853C21.7029 20.7671 21.6942 20.846 21.6825 20.9249C21.6766 20.9746 21.6679 21.0272 21.6591 21.0768C21.6504 21.1265 21.6445 21.1762 21.6328 21.2258C21.6211 21.2872 21.6095 21.3456 21.5948 21.404C21.5802 21.4712 21.5627 21.5384 21.5423 21.6027C21.5218 21.6699 21.5014 21.7342 21.478 21.7985C21.4663 21.8335 21.4546 21.8686 21.44 21.9036C21.4225 21.9504 21.402 21.9971 21.3816 22.0439C21.3377 22.1374 21.291 22.225 21.2384 22.3097C21.215 22.3506 21.1858 22.3916 21.1566 22.4325C21.1362 22.4675 21.1099 22.4997 21.0836 22.5318C20.955 22.6925 20.806 22.8327 20.6278 22.9467C20.5957 22.97 20.5577 22.9905 20.5226 23.0109C20.4467 23.0548 20.3678 23.0957 20.283 23.1278C20.248 23.1453 20.21 23.1599 20.172 23.1716C20.1019 23.1979 20.0259 23.2213 19.9471 23.2388C19.912 23.2505 19.8769 23.2593 19.8419 23.2651C19.7893 23.2768 19.7367 23.2885 19.6812 23.2972C19.6374 23.306 19.5935 23.3119 19.5468 23.3148C19.3803 23.3352 19.1991 23.3469 19.0063 23.344C17.4841 23.306 16.8239 22.6048 16.7128 20.9074C16.5726 18.8009 17.376 17.8309 19.5001 17.5446C21.7438 17.2408 21.7438 17.2408 21.7643 19.4378V19.4992Z" fill="white"/>
<path d="M86.5707 12.6185C86.5678 11.6398 86.5269 10.6552 86.1062 9.72907C84.7389 6.72566 79.2258 6.38675 76.9849 9.17689C75.7111 10.7633 75.8338 11.146 77.7416 11.7274C78.3698 11.9174 78.8197 12.0605 79.182 11.2249C79.5881 10.2959 80.9057 9.92482 82.0598 10.1848C83.1291 10.4273 83.5118 11.2045 83.5761 12.192C83.6199 12.8435 83.5702 13.5038 83.6228 14.1553C83.6696 14.7513 83.4183 14.912 82.8691 14.9091C79.8335 14.8916 77.1398 14.8156 76.05 18.2017C75.4628 20.019 75.4599 21.8625 76.1055 23.6739C76.7425 25.4502 77.9812 26.2654 79.8598 26.2478C81.233 26.2332 82.4104 25.7599 83.6491 24.4306C83.2459 26.5838 84.5168 26.0258 85.6504 26.0871C86.3428 26.1777 86.6087 25.944 86.6029 25.1931C86.5649 21.0006 86.5912 16.8081 86.5707 12.6185ZM80.7597 23.3408C79.3018 23.2707 78.6327 22.5023 78.5509 20.8049C78.5363 20.6004 78.5305 20.4046 78.5422 20.2206C78.5422 20.1738 78.5451 20.1271 78.5509 20.0832C78.5538 20.0394 78.5568 19.9956 78.5626 19.9547C78.5685 19.8875 78.5801 19.8232 78.5918 19.7589C78.5977 19.7268 78.6035 19.6976 78.6094 19.6655C78.6503 19.4609 78.7116 19.2739 78.7905 19.1016C78.8022 19.0753 78.8139 19.049 78.8256 19.0256C78.8577 18.9526 78.8957 18.8854 78.9395 18.8182C78.9629 18.7831 78.9862 18.751 79.0096 18.7159C79.0359 18.6721 79.071 18.6283 79.106 18.5874C79.1236 18.5669 79.1411 18.5465 79.1586 18.526C79.182 18.4968 79.2083 18.4676 79.2404 18.4384C79.2521 18.4238 79.2667 18.4121 79.2813 18.3975C79.293 18.3829 79.3047 18.3712 79.3193 18.3595C79.3456 18.3332 79.3748 18.3098 79.4011 18.2865C79.4303 18.2602 79.4596 18.2368 79.4888 18.2163C79.5472 18.1696 79.6085 18.1258 79.6728 18.0849C79.7254 18.0498 79.7809 18.0177 79.8364 17.9884C79.8803 17.9651 79.927 17.9417 79.9737 17.9183C80.114 17.8511 80.263 17.7927 80.4208 17.7401C80.4587 17.7255 80.4967 17.7138 80.5376 17.705C80.5785 17.6934 80.6194 17.6817 80.6603 17.67C80.7421 17.6495 80.8298 17.6291 80.9145 17.6116C81.0284 17.5882 81.1453 17.5677 81.2651 17.5502C81.566 17.5064 81.8845 17.4859 82.2175 17.4801C83.6141 17.4538 83.6141 17.4596 83.6141 18.8854C83.6433 19.0461 83.5527 19.3353 83.6491 19.4346C83.5936 21.509 83.2752 23.484 80.7597 23.3408Z" fill="white"/>
<path d="M50.2986 11.724C50.2869 10.57 49.9684 9.48023 49.1212 8.63296C47.1374 6.64919 42.5709 6.90629 40.7829 9.08873C39.4273 10.7365 39.5675 11.1689 41.5805 11.7591C42.2116 11.9461 42.5885 11.9987 42.9186 11.2303C43.3276 10.2808 44.7358 9.88633 45.9016 10.2106C46.9446 10.5028 47.3127 11.2712 47.3185 12.2791C47.3215 12.8634 47.2806 13.4507 47.3419 14.0292C47.4208 14.7917 47.0848 14.9436 46.3953 14.9173C43.7016 14.9027 41.1832 14.818 39.9941 17.6958C39.1322 19.7351 39.1497 21.8269 39.9269 23.875C40.5112 25.4205 41.712 26.2269 43.3861 26.2502C44.8644 26.2707 46.1674 25.8354 47.3302 24.6025C46.778 26.6856 48.5164 25.9464 49.6704 26.0895C50.2139 26.1451 50.3541 25.8967 50.3512 25.3884C50.3249 20.8336 50.3336 16.2788 50.2986 11.724ZM44.5868 23.3462C43.1377 23.3023 42.419 22.5602 42.308 20.9943C42.159 18.8761 42.98 17.8331 45.0163 17.5439C47.3302 17.2196 47.3302 17.2196 47.2835 19.5744C47.4383 21.6166 47.041 23.3666 44.5868 23.3462Z" fill="white"/>
<path d="M55.4985 9.29345C56.1062 8.61856 56.6087 8.05469 57.3479 7.75084C60.547 6.42735 63.2729 8.30011 63.3167 11.9404C63.3635 15.9868 63.3255 20.0333 63.3255 24.0826C63.3255 26.0956 63.3226 26.0401 61.3329 26.1044C60.4389 26.1336 60.3484 25.7947 60.3542 25.038C60.3893 21.0646 60.3834 17.0883 60.363 13.1149C60.3542 11.3503 59.6355 10.4913 58.1864 10.3832C56.7197 10.2751 55.5482 11.2714 55.4196 12.8637C55.3261 14.0235 55.3729 15.1951 55.37 16.3608C55.3641 19.3146 55.3495 22.2683 55.3816 25.222C55.3875 25.8794 55.2209 26.0985 54.5314 26.0985C52.3461 26.1044 52.3461 26.1365 52.3461 23.9365C52.3461 18.8325 52.3636 13.7284 52.3286 8.62148C52.3169 7.68656 52.5331 7.37103 53.5001 7.53172C55.2589 7.53172 55.2589 7.53172 55.4985 9.29345Z" fill="white"/>
<path d="M29.8639 9.35488C32.1515 6.14404 37.0306 6.83353 37.612 10.9209C37.8428 12.2969 37.7317 13.6847 37.7376 15.0695C37.7522 18.4235 37.7171 21.7775 37.761 25.1315C37.7726 25.9233 37.5097 26.1103 36.7676 26.1015C34.7605 26.0811 34.7605 26.1132 34.7605 24.1119C34.7605 20.4307 34.7838 16.7465 34.7517 13.0653C34.7313 10.8391 32.9578 9.67625 31.1552 10.6842C30.0888 11.2802 29.7587 12.3115 29.7558 13.4685C29.747 15.2536 29.7499 17.0416 29.7499 18.8267C29.7499 20.977 29.7295 23.1302 29.7645 25.2805C29.7762 25.9087 29.5659 26.0752 28.9582 26.0957C26.7582 26.1599 26.7582 26.1833 26.7582 23.9483C26.7582 18.8822 26.7933 13.8133 26.729 8.74719C26.7144 7.68957 27.0445 7.47044 28.0116 7.51719C29.6681 7.58731 29.671 7.5318 29.8639 9.35488Z" fill="white"/>
<path d="M69.7335 26.0782C68.3486 26.0782 66.9608 26.0577 65.576 26.0869C65.0151 26.0986 64.8105 25.9292 64.8105 25.3419C64.8105 24.0973 64.9128 22.9433 65.5322 21.7746C67.3932 18.2687 69.0995 14.681 70.9021 11.1458C71.3053 10.357 71.2614 10.0824 70.2886 10.132C68.9066 10.1992 67.5189 10.1233 66.134 10.1642C65.5205 10.1817 65.316 10.0093 65.3043 9.37243C65.2751 7.5698 65.2459 7.5698 67.0631 7.5698C69.2865 7.5698 71.5127 7.59025 73.7361 7.55519C74.4022 7.5435 74.5921 7.73341 74.6067 8.41414C74.633 9.60908 74.4022 10.6784 73.8412 11.7565C72.0269 15.2478 70.3207 18.7946 68.5239 22.2947C68.1061 23.1098 68.2989 23.2705 69.1287 23.2471C70.6947 23.2062 72.2636 23.253 73.8325 23.2238C74.3934 23.2121 74.5804 23.3844 74.6008 23.9688C74.671 26.0782 74.6943 26.0752 72.5762 26.0752C71.6296 26.0782 70.6801 26.0782 69.7335 26.0782Z" fill="white"/>
<path d="M85.6366 27.4189C85.4847 27.5066 85.2656 27.6147 84.9939 27.7053C84.9734 27.7111 84.617 27.828 84.2226 27.8689C82.008 28.1055 80.9036 28.2224 79.174 28.0208C76.9945 27.7666 46.5164 27.7228 0.194326 27.8017C0.194326 27.676 0.191406 27.5475 0.191406 27.4219C28.6712 27.4189 57.1539 27.4189 85.6366 27.4189Z" fill="white"/>
<path d="M86.2972 27.4508C86.4257 27.5501 86.2475 27.965 86.1803 28.114C85.745 28.2075 85.4178 28.0176 85.3856 27.816C85.3535 27.6202 85.6048 27.4303 85.6252 27.4157C85.7655 27.4041 86.0518 27.3894 86.2504 27.4303C86.2621 27.4333 86.2797 27.4362 86.2972 27.4508Z" fill="white"/>
<path d="M63.6614 33.9082C63.6497 34.3289 63.638 34.7525 63.6789 35.144C63.641 34.7525 63.6526 34.326 63.6614 33.9082Z" fill="white"/>
<path d="M34.2305 31.5186C34.2509 31.7406 34.2831 31.913 34.3503 32.0415C34.2772 31.9276 34.2334 31.761 34.2305 31.5186Z" fill="white"/>
<path d="M79.9746 17.9184C80.1148 17.8483 80.2639 17.7899 80.4216 17.7402C80.2639 17.7928 80.1148 17.8513 79.9746 17.9184Z" fill="white"/>
<path d="M72.9504 31.5302C72.9533 31.9684 72.8773 32.3891 72.3427 32.3511C71.7817 32.3102 72.0389 31.8048 71.9629 31.4922C72.0184 31.1679 71.8373 30.6771 72.4362 30.7238C72.9183 30.7618 72.9475 31.1445 72.9504 31.5302Z" fill="white"/>
<path d="M14.4718 31.4689C14.4659 31.9364 14.3958 32.3863 13.8319 32.4038C13.2505 32.4184 13.4521 31.9247 13.4083 31.5712C13.5106 31.2702 13.1746 30.7064 13.8086 30.6713C14.2731 30.645 14.4776 30.9985 14.4718 31.4689Z" fill="white"/>
<path d="M28.1237 33.023C28.1237 33.6044 28.1412 34.1858 28.1149 34.7672C28.1032 35.0652 27.9864 35.3807 27.6124 35.3573C27.2531 35.3369 27.3086 35.0067 27.3086 34.7672C27.2998 33.5664 27.3027 32.3656 27.3057 31.1648C27.3086 30.9457 27.3261 30.6944 27.6124 30.674C27.8666 30.6565 28.0331 30.8434 28.0565 31.0713C28.1266 31.717 28.1617 32.3714 28.2084 33.02C28.1792 33.023 28.15 33.023 28.1237 33.023Z" fill="white"/>
<path d="M65.9251 33.0224C65.9251 33.6418 65.928 34.2641 65.9222 34.8835C65.9192 35.1523 65.855 35.4035 65.5073 35.3977C65.1684 35.3948 65.0866 35.1494 65.0837 34.8777C65.0778 33.6389 65.0749 32.4001 65.0837 31.1585C65.0866 30.8488 65.1742 30.5508 65.5716 30.5858C65.9163 30.615 65.9192 30.9101 65.9251 31.1643C65.9309 31.7837 65.9251 32.4031 65.9251 33.0224Z" fill="white"/>
<path d="M20.7417 33.9609C20.4642 33.9433 20.4174 33.6862 20.4408 33.47C20.5051 32.9149 20.5986 32.3657 20.6804 31.8135C20.7622 31.8193 20.8469 31.8222 20.9287 31.8281C20.9696 32.3861 21.0134 32.9471 21.0514 33.5051C21.066 33.733 21.0485 33.9813 20.7417 33.9609Z" fill="white"/>
<path d="M59.4003 31.5917C59.3857 32.0504 59.3389 32.5879 58.8072 32.5967C58.0534 32.6113 58.5735 31.9306 58.3865 31.6092C58.5034 31.2703 58.1732 30.683 58.8364 30.7006C59.3389 30.7123 59.412 31.1534 59.4003 31.5917Z" fill="white"/>
</svg>
