<svg width="98" height="31" viewBox="0 0 98 31" fill="none" xmlns="http://www.w3.org/2000/svg">
<path d="M94.7836 3.48283H95.3438C95.4651 3.48283 95.5568 3.46973 95.6223 3.44679C95.6911 3.42386 95.7403 3.38455 95.7763 3.32885C95.8124 3.27643 95.8287 3.21417 95.8287 3.15192C95.8287 3.06019 95.796 2.98155 95.7272 2.92258C95.6584 2.8636 95.5535 2.83412 95.4061 2.83412H94.7803V3.48283H94.7836ZM94.5215 4.58697V2.61133H95.3963C95.5732 2.61133 95.7042 2.6277 95.796 2.66374C95.8877 2.69978 95.9598 2.76203 96.0155 2.8505C96.0712 2.93896 96.0974 3.04052 96.0974 3.14864C96.0974 3.28953 96.0515 3.40748 95.9631 3.5025C95.8713 3.59751 95.7337 3.65976 95.5437 3.68597C95.6125 3.71873 95.6649 3.75149 95.701 3.78426C95.7763 3.85306 95.8484 3.94152 95.9172 4.04636L96.2579 4.58369H95.9303L95.6682 4.17414C95.5929 4.05619 95.5306 3.96446 95.4815 3.90221C95.4323 3.83996 95.3864 3.79408 95.3471 3.77115C95.3078 3.74494 95.2685 3.72855 95.2292 3.71873C95.1997 3.71217 95.1505 3.7089 95.085 3.7089H94.7836V4.58697H94.5215Z" fill="white"/>
<path d="M95.3256 1.88415C94.3722 1.88415 93.599 2.65736 93.599 3.61078C93.599 4.5642 94.3722 5.33741 95.3256 5.33741C96.279 5.33741 97.0523 4.5642 97.0523 3.61078C97.0523 2.65736 96.2823 1.88415 95.3256 1.88415ZM95.3256 1.57617C96.4494 1.57617 97.3602 2.48699 97.3602 3.61078C97.3602 4.73457 96.4494 5.64539 95.3256 5.64539C94.2018 5.64539 93.291 4.73457 93.291 3.61078C93.291 2.48699 94.2051 1.57617 95.3256 1.57617Z" fill="white"/>
<path d="M92.6356 7.06038C91.8165 6.641 90.8958 6.36906 90.0047 6.18559C88.8514 5.94641 87.6752 5.8252 86.4957 5.8252C85.0737 5.8252 83.5896 5.99556 82.2594 6.51978C81.247 6.91949 80.2968 7.50269 79.6285 8.37419C79.0322 9.15396 78.7438 10.032 78.7438 11.0117C78.7438 12.0175 78.9568 13.0397 79.6678 13.7933C80.2968 14.4584 81.0438 14.9236 81.9252 15.1759C82.9998 15.4839 84.1433 15.6641 85.2507 15.8082C86.0042 15.9065 86.8528 16.031 87.5769 16.2636C88.088 16.4275 88.5041 16.7551 88.5041 17.3285C88.5041 17.8494 88.1961 18.2163 87.7407 18.4391C87.1575 18.7242 86.25 18.7602 85.6111 18.7602C84.543 18.7602 83.4847 18.6095 82.4527 18.3376C79.8971 17.6594 78.4883 20.7752 78.4883 20.7752C79.3762 21.283 80.4279 21.6106 81.4075 21.84C82.7279 22.1512 84.0712 22.3052 85.4276 22.3052C86.8758 22.3052 88.396 22.1414 89.7589 21.6237C90.7779 21.2371 91.7477 20.6605 92.416 19.7857C93.0058 19.0158 93.3007 18.1475 93.3007 17.1777C93.3007 16.1883 93.0877 15.1824 92.3898 14.442C91.7772 13.79 91.0465 13.328 90.1914 13.0758C89.1102 12.758 87.9602 12.5515 86.8462 12.3844C86.0894 12.2698 85.2081 12.1387 84.4807 11.8995C83.9598 11.7292 83.5699 11.3819 83.5699 10.8052C83.5699 10.2745 83.927 9.92062 84.3759 9.69783C84.982 9.39313 85.8568 9.34399 86.5252 9.34399C87.2918 9.34399 88.0421 9.4259 88.7695 9.58644C91.7051 10.2384 92.6356 7.06038 92.6356 7.06038Z" fill="white"/>
<path d="M77.5599 14.0357C77.5599 12.5188 77.2126 11.0837 76.4165 9.7863C75.6334 8.50852 74.5457 7.5551 73.2122 6.8769C71.751 6.13645 70.1619 5.8252 68.527 5.8252C66.902 5.8252 65.3162 6.13317 63.8582 6.8769C62.5215 7.55838 61.4403 8.5249 60.654 9.80268C59.8545 11.0968 59.4941 12.5221 59.4941 14.0357C59.4941 15.5625 59.8513 16.9975 60.654 18.3015C61.4468 19.5826 62.5346 20.5524 63.8746 21.2404C65.326 21.9874 66.8987 22.3052 68.527 22.3052C70.1619 22.3052 71.7477 21.9907 73.2089 21.2404C74.5457 20.5524 75.6302 19.5859 76.4132 18.3015C77.2094 16.9975 77.5599 15.5592 77.5599 14.0357ZM68.527 18.4785C67.4589 18.4785 66.535 18.1148 65.8044 17.3285C65.0115 16.4733 64.7494 15.1726 64.7494 14.0357C64.7494 12.9087 65.0181 11.549 65.8077 10.7102C66.5383 9.93374 67.4655 9.57661 68.527 9.57661C69.5886 9.57661 70.5158 9.93046 71.2464 10.7102C72.036 11.549 72.3047 12.9087 72.3047 14.0357C72.3047 15.1726 72.0393 16.4733 71.2497 17.3285C70.5191 18.1148 69.5951 18.4785 68.527 18.4785Z" fill="white"/>
<path d="M54.3511 22.0302H60.6024L53.3813 12.8564L62.2078 3.67933C58.3581 3.94144 55.0621 5.18318 52.133 7.83047C50.7307 9.09514 49.4235 10.4614 48.0703 11.7785L47.5592 12.2765L45.7212 13.8524L47.5592 11.1068V0C42.4841 0 42.7364 4.12164 42.7364 4.12164V22.0302H47.5592V18.151L49.5906 16.0836L54.3511 22.0302Z" fill="white"/>
<path d="M40.5634 15.2283C40.6387 13.4231 40.298 11.182 39.3773 9.6618C38.6238 8.42006 37.6048 7.47319 36.3107 6.81465C34.951 6.12334 33.4832 5.8252 31.963 5.8252C30.3772 5.8252 28.8439 6.143 27.4383 6.88673C26.1278 7.57804 25.0728 8.54456 24.3061 9.81251C23.5231 11.1034 23.1758 12.5253 23.1758 14.0324C23.1758 15.5592 23.5329 16.9975 24.3356 18.2983C25.135 19.5957 26.2523 20.5557 27.6152 21.2371C29.1584 22.0071 30.8588 22.3052 32.5756 22.3052C36.1993 22.3052 39.1512 20.6212 40.2652 17.2105C34.9706 16.1817 37.1789 17.4693 33.5978 18.4326C31.4682 19.0059 28.9061 18.1082 28.4081 15.5887L28.336 15.2283H40.5634ZM31.9924 9.34071C32.8967 9.34071 33.7354 9.58644 34.43 10.1762C35.1213 10.7627 35.5112 11.5391 35.675 12.4238L35.7406 12.7809H28.2443L28.3098 12.4238C28.4736 11.5391 28.8635 10.7594 29.5548 10.1762C30.2494 9.58644 31.0882 9.34071 31.9924 9.34071Z" fill="white"/>
<path d="M0.0314865 5.65517V22.0304H9.82777C11.9312 22.0304 14.0149 21.67 15.9185 20.7493C17.6189 19.9269 19.0081 18.7475 20.0008 17.1388C21.0362 15.4744 21.4523 13.6003 21.4523 11.6542C21.4523 9.70801 21.0362 7.83394 20.0008 6.16956C19.0048 4.56415 17.6156 3.38138 15.9185 2.56229C14.0117 1.64164 11.9312 1.28125 9.82777 1.28125H4.84116C-0.695865 1.28125 0.0314865 5.65517 0.0314865 5.65517ZM9.58532 17.8137H5.47023V5.49791H9.58532C11.3021 5.49791 12.9239 5.94349 14.1984 7.13608C15.4795 8.33523 15.9578 9.93408 15.9578 11.6574C15.9578 13.3808 15.4795 14.9797 14.1984 16.1788C12.9239 17.3681 11.3021 17.8137 9.58532 17.8137Z" fill="white"/>
<path d="M81.145 25.1956C61.8014 29.8644 30.7351 18.5708 7.71875 30.808C34.1982 25.4774 64.4651 36.807 81.145 25.1956Z" fill="white"/>
</svg>
