<?xml version="1.0" standalone="no"?>
<!DOCTYPE svg PUBLIC "-//W3C//DTD SVG 20010904//EN"
 "http://www.w3.org/TR/2001/REC-SVG-20010904/DTD/svg10.dtd">
<svg version="1.0" xmlns="http://www.w3.org/2000/svg"
 width="91.000000pt" height="60.000000pt" viewBox="0 0 91.000000 60.000000"
 preserveAspectRatio="xMidYMid meet">
<metadata>
Created by potrace 1.16, written by Peter Selinger 2001-2019
</metadata>
<g transform="translate(0.000000,60.000000) scale(0.100000,-0.100000)"
fill="#000000" stroke="none">
<path d="M0 300 l0 -300 455 0 455 0 0 300 0 300 -455 0 -455 0 0 -300z m576
255 c30 -15 64 -40 76 -56 20 -27 27 -29 86 -29 71 0 114 -18 131 -57 6 -13
11 -62 11 -109 0 -81 -1 -87 -29 -115 -27 -26 -36 -29 -98 -29 -66 0 -70 -1
-104 -36 -107 -114 -316 -112 -407 2 -26 33 -29 34 -98 34 -65 0 -72 2 -99 30
-25 27 -30 40 -33 99 -8 133 28 181 136 181 64 0 68 1 108 41 83 82 208 99
320 44z"/>
<path d="M377 534 c-31 -10 -65 -31 -93 -60 -43 -42 -47 -44 -104 -44 -32 0
-70 -4 -83 -9 -34 -13 -50 -60 -45 -128 7 -77 27 -93 119 -93 67 0 71 -1 101
-36 92 -104 231 -109 332 -12 50 48 50 48 118 48 61 0 72 3 95 26 23 23 25 31
21 96 -5 93 -22 108 -119 108 -67 0 -71 1 -101 36 -62 70 -154 96 -241 68z
m107 -36 c11 -44 8 -48 -39 -48 -25 0 -45 5 -45 10 0 6 -7 10 -15 10 -8 0 -15
-6 -15 -13 0 -18 -50 -64 -75 -70 -11 -3 3 -5 31 -6 33 -1 56 -7 65 -17 11
-14 13 -14 21 0 7 13 29 16 106 17 53 1 85 4 70 8 -26 6 -68 49 -68 70 0 6 -5
11 -11 11 -22 0 -1 25 22 27 42 2 96 -47 103 -94 2 -15 13 -18 57 -19 47 -1
56 -4 66 -25 13 -24 13 -24 13 -1 0 17 6 22 26 22 21 0 25 -4 19 -17 -3 -10
-11 -39 -17 -65 -10 -40 -15 -48 -34 -48 -18 0 -26 8 -33 33 -6 22 -9 26 -10
11 -1 -29 -24 -46 -58 -42 -24 3 -30 10 -40 48 l-11 45 -1 -47 c-1 -41 -4 -48
-21 -48 -17 0 -20 7 -20 44 0 31 -5 46 -16 50 -14 5 -15 -1 -9 -44 l7 -50 -66
0 c-64 0 -66 1 -66 25 0 18 -5 25 -20 25 -15 0 -20 -7 -20 -25 0 -25 0 -25
-92 -24 -51 0 -99 5 -105 11 -9 7 -13 7 -13 -1 0 -17 -31 -13 -46 7 -13 16
-13 16 -14 0 0 -11 -8 -18 -20 -18 -18 0 -20 7 -20 65 l0 65 40 0 c28 0 43 -5
47 -16 6 -15 7 -15 19 1 9 13 23 16 49 13 33 -4 36 -2 31 17 -12 48 101 131
126 93 6 -10 10 -7 14 10 5 18 13 22 44 22 31 0 39 -4 44 -22z m-133 -284 c51
-49 138 -47 193 5 29 27 86 29 86 3 0 -20 -61 -82 -100 -103 -14 -7 -52 -13
-86 -13 -48 0 -70 6 -107 27 -38 23 -87 79 -87 101 0 3 17 6 37 6 26 0 45 -8
64 -26z"/>
<path d="M260 323 c0 -14 1 -24 3 -22 1 2 8 11 15 20 10 14 10 18 -3 23 -11 4
-15 -1 -15 -21z"/>
<path d="M212 315 c0 -16 2 -22 5 -12 2 9 2 23 0 30 -3 6 -5 -1 -5 -18z"/>
<path d="M672 315 c0 -16 2 -22 5 -12 2 9 2 23 0 30 -3 6 -5 -1 -5 -18z"/>
<path d="M322 310 c-10 -17 -10 -20 3 -20 8 0 15 9 15 20 0 11 -1 20 -3 20 -1
0 -8 -9 -15 -20z"/>
<path d="M508 293 c7 -3 16 -2 19 1 4 3 -2 6 -13 5 -11 0 -14 -3 -6 -6z"/>
</g>
</svg>
