<svg width="11" height="13" viewBox="0 0 11 13" fill="none" xmlns="http://www.w3.org/2000/svg">
<path d="M5.30651 0.739815C5.35861 0.540623 5.6414 0.540624 5.69349 0.739816L6.61878 4.27768C6.64697 4.38545 6.75777 4.44942 6.8652 4.41994L10.3917 3.45234C10.5903 3.39786 10.7317 3.64276 10.5852 3.78748L7.98398 6.35773C7.90474 6.43603 7.90474 6.56397 7.98398 6.64227L10.5852 9.21252C10.7317 9.35724 10.5903 9.60214 10.3917 9.54766L6.8652 8.58006C6.75777 8.55058 6.64697 8.61455 6.61878 8.72232L5.69349 12.2602C5.64139 12.4594 5.3586 12.4594 5.30651 12.2602L4.38122 8.72232C4.35303 8.61455 4.24223 8.55058 4.1348 8.58006L0.60828 9.54766C0.409726 9.60214 0.268332 9.35724 0.414789 9.21252L3.01602 6.64227C3.09526 6.56397 3.09526 6.43603 3.01602 6.35773L0.414788 3.78748C0.268331 3.64276 0.409727 3.39786 0.608281 3.45234L4.1348 4.41994C4.24223 4.44942 4.35303 4.38545 4.38122 4.27768L5.30651 0.739815Z" fill="white"/>
</svg>
