<svg width="34" height="34" viewBox="0 0 34 34" fill="none" xmlns="http://www.w3.org/2000/svg">
<path d="M33 33H24.854L18.6214 25.68L25.3314 23.1568V12.5879L9.25633 33H1V1H9.46934L17.1097 11.4922L25.1569 1H33V33ZM25.0914 32.462H32.4764V1.53928H25.4097L17.0982 12.3765L9.20756 1.53928H1.52356V32.462H9.00609L25.855 11.0679V23.5348L19.5196 25.918L25.0914 32.462Z" fill="#fff" stroke="#fff" stroke-width="0.5"/>
<path d="M8.51178 23.0773C8.48098 23.0773 8.45018 23.072 8.42067 23.0601C8.31801 23.0204 8.25 22.92 8.25 22.8076V12.6763C8.25 12.5639 8.31801 12.4622 8.42067 12.4238C8.52333 12.3855 8.63882 12.4146 8.7094 12.5005L12.9543 17.5668C13.039 17.6673 13.039 17.818 12.9543 17.9197L8.7094 22.9861C8.65807 23.0442 8.58621 23.0773 8.51178 23.0773ZM8.77228 13.4006V22.0833L12.4102 17.7426L8.77228 13.4006Z" fill="#fff" stroke="#fff" stroke-width="0.5"/>
</svg>
