<svg width="46" height="46" viewBox="0 0 46 46" fill="none" xmlns="http://www.w3.org/2000/svg">
<path d="M45 45H33.7993L25.2294 34.9351L34.4557 31.4656V16.9334L12.3524 45H1V1H12.6453L23.1509 15.4268L34.2157 1H45V45ZM34.1257 44.2603H44.2801V1.74151H34.5633L23.135 16.6426L12.2854 1.74151H1.71989V44.2603H12.0084L35.1756 14.8434V31.9854L26.4645 35.2622L34.1257 44.2603Z" fill="white" stroke="white"/>
<path d="M11.3287 31.3569C11.2864 31.3569 11.244 31.3496 11.2034 31.3332C11.0623 31.2787 10.9688 31.1406 10.9688 30.9861V17.0555C10.9688 16.901 11.0623 16.7611 11.2034 16.7084C11.3446 16.6557 11.5034 16.6956 11.6004 16.8138L17.4372 23.78C17.5537 23.9181 17.5537 24.1253 17.4372 24.2653L11.6004 31.2315C11.5298 31.3114 11.431 31.3569 11.3287 31.3569ZM11.6869 18.0515V29.9902L16.6891 24.0217L11.6869 18.0515Z" fill="white" stroke="white"/>
</svg>
